<?xml version="1.0" encoding="utf-8"?>
<!-- Generator: Adobe Illustrator 25.1.0, SVG Export Plug-In . SVG Version: 6.00 Build 0)  -->
<svg version="1.1" id="Layer_1" xmlns="http://www.w3.org/2000/svg" xmlns:xlink="http://www.w3.org/1999/xlink" x="0px" y="0px"
	 viewBox="0 0 80 114" style="enable-background:new 0 0 80 114;" xml:space="preserve">
<style type="text/css">
	.st0{fill:#1B2F4F;}
	.st1{fill:#B81B26;}
	.st2{fill:#F8B133;}
	.st3{fill:#FFFFFF;}
</style>
<g>
	<g>
		<path class="st0" d="M30,65.2c0.3-0.1,0.5-0.3,0.8-0.4c1.2-0.4,2.5-0.9,3.7-1.3c1-0.3,1.9-0.6,2.9-0.9c1-0.3,2.1-0.6,3.1-0.9
			c1.2-0.3,2.5-0.6,3.7-0.9c1-0.2,1.9-0.4,2.9-0.6c1.2-0.2,2.4-0.4,3.7-0.6c0.9-0.2,1.9-0.3,2.8-0.4c1.1-0.1,2.1-0.3,3.2-0.4
			c1.3-0.1,2.6-0.2,3.9-0.3c0.3,0,0.6,0,0.9-0.1c0.1,0,0.2,0,0.3-0.1c0.1-0.1,0.1-0.2,0.1-0.3c0-0.1-0.2-0.2-0.2-0.2
			c-0.2,0-0.5,0-0.7,0c-1.1,0-2.2,0-3.3,0c-0.3,0-0.4-0.1-0.5-0.3c-0.3-0.9-0.7-1.8-1-2.7c-0.4-0.9-0.6-1.8-0.7-2.8
			c-0.1-1.1-0.1-2.1,0.1-3.2c0.1-0.5,0.1-1,0.2-1.5c0.2-1.8,0.2-3.5,0.2-5.3c0-0.4,0-0.8,0-1.2c0-1-0.4-1.8-0.9-2.5
			c-0.2-0.4-0.2-1.1,0-1.5c0.5-0.7,1-1.5,0.9-2.4c0-0.4-0.2-0.7-0.6-0.8c-0.7-0.2-1.4-0.3-2.1-0.2c-0.3,0-0.4,0.1-0.4,0.4
			c0,0.1,0,0.2-0.1,0.3c-0.1,0.4-0.2,0.8-0.3,1.2c-0.1,0.3-0.2,0.7-0.4,1c-0.1,0.2-0.1,0.2,0,0.4c0.1,0.2,0.2,0.5,0.3,0.7
			c0.1,0.2,0.2,0.3,0.5,0.3c0.3,0,0.4,0.1,0.4,0.4c0.1,0.5-0.1,0.9-0.4,1.3c-0.2,0.3-0.4,0.5-0.6,0.8c-0.4,0.5-0.9,0.8-1.4,1.2
			c-0.1,0.1-0.2,0.1-0.4,0c-1.1-0.3-2.1-0.6-3.2-1c-0.3-0.1-0.5-0.3-0.7-0.4c-0.1,0-0.2-0.1-0.3-0.1c-0.3-0.1-0.6-0.1-0.8,0.1
			c-0.2,0.3-0.2,0.6-0.1,0.9c0.1,0.3,0.3,0.5,0.7,0.5c0.8-0.1,1.5,0.3,2.1,0.6c0.6,0.3,1.2,0.6,1.9,0.9c0.3,0.1,0.5,0.3,0.8,0.2
			c0.3-0.1,0.5-0.2,0.8-0.3c0.4-0.2,0.5-0.1,0.5,0.3c-0.1,1.2-0.3,2.3-0.6,3.5c-0.6,1.9-1.1,3.8-1.2,5.9c0,1.5-0.1,3.1-0.1,4.6
			c0,0.7-0.1,0.8-0.8,0.9c-0.2,0-0.5,0.2-0.7,0.2c-0.3,0.1-0.7,0.2-1,0.2c-0.7,0.1-1.4,0.1-2.2,0.1c-1.4,0.1-2.8,0.3-4.2,0.4
			c-1.3,0.1-2.6,0.3-3.9,0.4c-0.1,0-0.2,0-0.3,0.1c-0.2,0-0.4,0-0.4-0.3c0-0.3-0.2-0.5-0.5-0.4c-0.3,0-0.4,0.2-0.4,0.5
			c0,0.3-0.1,0.4-0.4,0.4c-0.9,0.1-1.8,0.2-2.8,0.4c-0.8,0.1-1.5,0.3-2.3,0.4c-1.2,0.2-2.3,0.4-3.5,0.6c-0.9,0.2-1.9,0.4-2.8,0.7
			c-0.8,0.2-1.7,0.4-2.5,0.6c-0.7,0.2-1.4,0.4-2.1,0.6c-0.2,0.1-0.3,0.2-0.3,0.4c0.1,0.6,0.3,1.2,0.4,1.8c0.1,0.4,0.3,0.8,0.4,1.2
			c0.1,0.2,0,0.3-0.2,0.4c-0.1,0-0.3,0.1-0.4,0.1c-0.1,0-0.3-0.1-0.3-0.2c-0.2-0.5-0.4-1-0.5-1.5c-0.2-0.6-0.3-1.2-0.4-1.8
			c-0.2-1-0.3-2-0.4-2.9c-0.2-1.7-0.3-3.4-0.4-5.1c-0.1-0.9-0.1-1.7-0.2-2.6c-0.1-1.7-0.3-3.4-0.5-5.1c-0.1-1.3-0.3-2.6-0.4-4
			c-0.1-1.2-0.3-2.5-0.4-3.7c-0.2-1.7-0.4-3.4-0.7-5.1c-0.2-1.1-0.4-2.3-0.7-3.4c-0.2-0.7-0.4-1.4-0.5-2.1c-0.1-0.3,0.1-0.4,0.3-0.4
			c0.6-0.1,1.2-0.3,1.7-0.4c1-0.2,2-0.5,3-0.7c0.9-0.2,1.7-0.4,2.6-0.6c0.8-0.2,1.6-0.4,2.4-0.7c0.8-0.2,1.6-0.4,2.4-0.6
			c0.3-0.1,0.7-0.2,1-0.3c1.3-0.4,2.7-0.8,4-1.3c1.1-0.4,2.1-0.8,3.2-1.2c0.9-0.4,1.9-0.7,2.8-1.1c0.6-0.3,1.2-0.6,1.8-0.9
			c0.2-0.1,0.4-0.2,0.7-0.3c0.2-0.2,0.5-0.1,0.7,0c1.1,0.5,2.2,1.1,3.3,1.6c1.1,0.5,2.1,0.9,3.2,1.3c0.8,0.3,1.7,0.6,2.5,0.9
			c0.7,0.2,1.3,0.4,2,0.6c0.7,0.2,1.4,0.4,2.1,0.7c0.7,0.2,1.4,0.4,2.1,0.6c0.6,0.2,1.1,0.3,1.7,0.5c0.5,0.1,1,0.2,1.5,0.3
			c0.5,0.1,1,0.2,1.4,0.4c0.4,0.1,0.9,0.2,1.3,0.3c0.9,0.2,1.9,0.4,2.8,0.6c0.5,0.1,1,0.2,1.6,0.3c0.4,0.1,0.4,0.2,0.3,0.6
			c-0.3,1-0.5,2.1-0.7,3.1c-0.2,0.7-0.3,1.5-0.4,2.2c-0.1,0.8-0.2,1.5-0.3,2.3c-0.2,1.2-0.3,2.4-0.5,3.6c-0.2,1.4-0.3,2.7-0.4,4.1
			c-0.2,2-0.4,3.9-0.6,5.9c-0.1,1.4-0.2,2.8-0.3,4.2c-0.1,1.8-0.3,3.5-0.5,5.3c-0.1,1-0.1,2.1-0.3,3.1c-0.2,1.1-0.6,2.2-0.9,3.4
			c-0.1,0.3-0.4,0.4-0.8,0.2c-0.3-0.1-0.1-0.3-0.1-0.5c0.1-0.4,0.3-0.7,0.4-1.1c0-0.1,0-0.2,0-0.3c-0.1,0-0.2,0-0.3,0
			c-0.9,0.4-1.8,0.9-2.7,1.3c-0.2,0.1-0.4,0.1-0.5,0.1c-1.7-0.2-3.3-0.4-5-0.7c-0.2,0-0.3-0.1-0.5-0.2c0.2-0.1,0.3-0.2,0.5-0.3
			c0.5-0.2,1-0.4,1.5-0.6c0.5-0.2,1-0.4,1.6-0.6c0.6-0.2,1.3-0.5,1.9-0.7c0.7-0.2,1.3-0.4,2-0.6c0.7-0.2,1.3-0.3,2-0.5
			c0.1,0,0.2-0.2,0.2-0.2c0.1-0.5,0.1-0.9,0.1-1.4c0-0.2-0.1-0.3-0.3-0.2c-1.1,0.2-2.2,0.3-3.2,0.5c-1.2,0.2-2.4,0.4-3.6,0.7
			c-1,0.2-1.9,0.4-2.9,0.6c-0.9,0.2-1.7,0.4-2.6,0.7c-0.8,0.2-1.5,0.4-2.3,0.6c-0.7,0.2-1.4,0.4-2,0.7c-0.6,0.2-1.2,0.4-1.8,0.6
			c-0.3,0.1-0.6,0.2-0.9,0.3c-0.3,0.1-0.6,0.2-0.8,0.2c-1.9,0-3.8,0-5.7,0.1c-1.5,0.1-3.1,0.2-4.6,0.3c-0.2,0-0.3,0.1-0.5,0.1
			c-0.1,0-0.3,0-0.4,0C30,65.2,30,65.2,30,65.2z"/>
		<path class="st0" d="M40.5,65.2c1.7,0,3.3,0,5,0.1c1.8,0.1,3.6,0.2,5.4,0.4c1.8,0.2,3.5,0.3,5.3,0.6c1.3,0.2,2.6,0.4,4,0.7
			c1.4,0.3,2.8,0.5,4.2,0.9c1.1,0.3,2.2,0.6,3.3,0.9c0.3,0.1,0.6,0.2,0.9,0.3c0.6,0.2,0.9,0.7,0.5,1.3c-0.5,0.9-0.8,1.8-1.1,2.7
			c-0.3,0.7-0.6,1.5-0.9,2.2c-0.1,0.2-0.2,0.3-0.2,0.5c0,0.1,0.1,0.2,0.1,0.2c0.8,0.3,1.6,0.5,2.4,0.8c0.5,0.2,1.1,0.4,1.6,0.7
			c0.6,0.3,1.2,0.6,1.8,0.9c0.4,0.2,0.7,0.5,1,0.8c0.2,0.1,0.2,0.3,0.1,0.5c-0.4,0.9-0.8,1.9-1.2,2.8c-0.4,0.9-0.8,1.8-1.2,2.7
			c-0.2,0.5-0.4,1.1-0.6,1.6c-0.1,0.2-0.2,0.3-0.4,0.1c-0.3-0.2-0.5-0.4-0.7-0.6c-0.8-0.4-1.6-0.8-2.4-1.2c-0.5-0.2-1.1-0.5-1.6-0.7
			c-0.6-0.2-1.3-0.4-2-0.6c-0.6-0.2-1.3-0.4-1.8-0.7c-0.7-0.4-0.6-1.1-0.3-1.7c0.6-0.9,1.4-1.6,2.3-2.3c0.5-0.4,1.1-0.7,1.7-1.1
			c0.2-0.1,0.5-0.3,0.4-0.6c-0.1-0.2-0.3-0.5-0.5-0.6c-0.9-0.3-1.9-0.6-2.8-0.8c-0.9-0.2-1.9-0.5-2.8-0.7c-0.6-0.1-1.2-0.2-1.9-0.3
			c-0.7-0.1-1.4-0.2-2-0.3c-1.4-0.2-2.8-0.4-4.2-0.5c-2.8-0.3-5.6-0.5-8.4-0.5c-1.6,0-3.3-0.1-4.9,0c-1.8,0-3.6,0.1-5.5,0.2
			c-1.7,0.1-3.5,0.3-5.2,0.5c-1.1,0.1-2.2,0.3-3.3,0.4c-0.6,0.1-1.3,0.2-1.9,0.4c-1.1,0.2-2.1,0.4-3.2,0.7c-0.9,0.2-1.8,0.5-2.6,0.7
			c-0.3,0.1-0.7,0.2-1,0.3c-0.1,0-0.1,0-0.2,0.1c-0.5,0.3-0.5,0.8,0.1,1.1c1.1,0.7,2.2,1.4,3.2,2.3c0.4,0.4,0.7,0.8,0.9,1.4
			c0.3,0.7-0.2,1.3-0.8,1.5c-0.6,0.2-1.2,0.4-1.8,0.6c-0.6,0.2-1.2,0.4-1.9,0.7c-0.7,0.3-1.4,0.5-2.1,0.8c-0.9,0.4-1.8,0.8-2.5,1.5
			c-0.3,0.3-0.4,0.2-0.5-0.1c-0.2-0.5-0.4-1-0.6-1.6c-0.3-0.8-0.6-1.5-0.9-2.3c-0.3-0.7-0.6-1.4-0.9-2.1c-0.2-0.4-0.3-0.8-0.5-1.2
			c0-0.1,0-0.3,0.1-0.4c0.3-0.3,0.6-0.6,1-0.8c1-0.5,1.9-1,2.9-1.4c0.9-0.4,1.8-0.7,2.8-1C14,76,14.1,76,14,75.8
			c-0.4-0.8-0.7-1.7-1.1-2.5c-0.3-0.7-0.6-1.4-0.9-2.2c-0.1-0.3-0.2-0.6-0.4-0.8c-0.3-0.5-0.1-0.9,0.4-1.1c0.9-0.3,1.8-0.6,2.6-0.8
			c0.7-0.2,1.5-0.4,2.2-0.6c0.7-0.2,1.4-0.3,2-0.4c0.7-0.2,1.5-0.3,2.2-0.5c1.1-0.2,2.3-0.4,3.4-0.5c1.9-0.2,3.8-0.4,5.7-0.6
			c2.1-0.2,4.1-0.3,6.2-0.4C37.9,65.3,39.2,65.3,40.5,65.2C40.5,65.3,40.5,65.3,40.5,65.2z M32.4,69C32.4,69,32.4,69,32.4,69
			c0.2,0.2,0.4,0.4,0.4,0.6c0.3,0.7,0.5,1.4,0.7,2.1c0,0.1,0.2,0.3,0.3,0.2c0.1,0,0.3-0.2,0.4-0.3c0.1-0.4,0.2-0.8,0.3-1.2
			c0.1-0.4,0.2-0.8,0.3-1.1c0-0.1,0.2-0.2,0.3-0.4c0.1,0.1,0.2,0.2,0.2,0.4c0.1,0.7,0.1,1.4,0.2,2c0,0.4,0.1,0.5,0.4,0.5
			c0.3,0,0.3-0.2,0.3-0.6c-0.1-1.1-0.2-2.1-0.3-3.2c0-0.2,0-0.4-0.3-0.5c-0.5-0.1-0.7,0-0.8,0.3c-0.2,0.8-0.4,1.6-0.6,2.4
			c0,0.1-0.1,0.2-0.2,0.3c-0.1-0.1-0.2-0.1-0.2-0.2c-0.3-0.6-0.5-1.3-0.7-1.9c-0.2-0.7-0.3-0.7-0.9-0.6c-0.2,0-0.3,0.1-0.3,0.3
			c0,1.2,0,2.3,0,3.5c0,0.2,0,0.4,0.3,0.4c0.2,0,0.3-0.1,0.3-0.4c0-0.8,0-1.6-0.1-2.5C32.3,69.2,32.4,69.1,32.4,69z M39.3,68.7
			c0,0,0.1,0,0.1,0c0.1,0.2,0.3,0.3,0.4,0.5c0.5,0.8,0.9,1.6,1.4,2.3c0.2,0.3,0.4,0.2,0.7,0.2c0.1,0,0.2-0.2,0.2-0.3
			c0-1.2,0-2.3,0-3.5c0-0.2-0.1-0.3-0.3-0.3c-0.2,0-0.3,0.1-0.3,0.3c0,0.5,0,1,0,1.5c0,0.2,0,0.4,0,0.6c0,0.1-0.1,0.2-0.2,0.3
			c-0.1-0.1-0.2-0.2-0.3-0.3c-0.1-0.1-0.1-0.2-0.2-0.3c-0.4-0.6-0.8-1.3-1.1-1.9c-0.1-0.2-0.5-0.3-0.8-0.2c-0.3,0.1-0.2,0.3-0.2,0.5
			c0,1.1,0,2.2,0,3.3c0,0.2,0.1,0.3,0.3,0.3c0.2,0,0.4-0.1,0.4-0.3c0-0.8-0.1-1.6-0.1-2.4C39.3,69,39.3,68.9,39.3,68.7z M56.5,72.9
			c0.2,0,0.4,0,0.5-0.1c0.1-0.1,0.3-0.2,0.3-0.3c0.1-0.5,0.1-1,0.2-1.5c0-0.1-0.1-0.3-0.2-0.3c-0.3-0.1-0.6-0.1-1-0.1
			c-0.1,0-0.2,0.1-0.2,0.2c0,0.1,0.1,0.2,0.1,0.3c0,0,0.1,0.1,0.2,0.1c0.3,0,0.4,0.2,0.4,0.5c0,0.1,0,0.2-0.1,0.3
			c-0.1,0.3-0.2,0.4-0.5,0.4c-0.6-0.1-1.1-0.3-1.4-0.8c-0.3-0.6-0.2-1.3,0.2-1.8c0.5-0.6,1.2-0.7,2-0.4c0.2,0.1,0.3,0.1,0.4-0.1
			c0.1-0.2,0-0.4-0.2-0.4c-0.2-0.1-0.4-0.1-0.6-0.1c-1.1-0.2-2.2,0.3-2.6,1.4c-0.2,0.8-0.2,1.5,0.4,2.1
			C55.1,72.7,55.8,72.8,56.5,72.9z M19.6,69.6c0,0.1,0.1,0.1,0.1,0.2c0.4,0.5,0.8,0.9,1.2,1.4c0.2,0.2,0.2,0.3,0.1,0.6
			c-0.2,0.5-0.4,1.1-0.6,1.6c-0.1,0.2,0,0.3,0.3,0.3c0.4,0,0.5-0.3,0.6-0.6c0.1-0.3,0.2-0.6,0.3-0.9c0-0.1,0.1-0.2,0.2-0.2
			c0.1,0,0.2,0.1,0.2,0.2c0.3,0.3,0.5,0.7,0.8,1c0.1,0.2,0.5,0.2,0.7,0c0.2-0.2-0.1-0.3-0.2-0.4c-0.4-0.4-0.8-0.8-1.1-1.3
			c-0.1-0.1-0.1-0.4-0.1-0.5c0.2-0.6,0.4-1.1,0.7-1.6c0.1-0.2,0-0.2-0.1-0.3c-0.3,0-0.6,0.1-0.7,0.4c-0.1,0.3-0.2,0.7-0.3,1
			c0,0.1-0.1,0.2-0.2,0.2c-0.1,0-0.2-0.1-0.2-0.2c-0.2-0.2-0.4-0.5-0.5-0.7C20.3,69.4,20.1,69.4,19.6,69.6z M29.6,71.8
			c-0.2,0-0.4-0.1-0.4-0.4c0-0.2,0-0.4-0.1-0.6c0-0.3,0-0.4,0.4-0.4c0.3,0,0.6,0,0.9-0.1c0.2,0,0.3-0.1,0.3-0.3
			c0-0.2-0.2-0.3-0.3-0.2c-0.2,0-0.4,0-0.6,0.1c-0.6,0.1-0.6,0.1-0.7-0.5c0-0.1,0-0.2,0-0.2c0-0.3,0.1-0.4,0.4-0.5
			c0.3,0,0.6,0,0.9,0c0.2,0,0.3-0.1,0.3-0.3c0-0.2-0.1-0.3-0.4-0.3c-0.6,0.1-1.2,0.1-1.8,0.2c-0.2,0-0.3,0.1-0.3,0.4
			c0.1,0.4,0.1,0.8,0.1,1.3c0.1,0.7,0.1,1.4,0.2,2.2c0,0.4,0.1,0.4,0.5,0.4c0.5-0.1,1.1-0.1,1.6-0.2c0.2,0,0.4,0,0.4-0.3
			c0-0.3-0.2-0.3-0.4-0.3C30.3,71.7,30,71.7,29.6,71.8z M60.9,69.9c0.1-0.1,0.2-0.1,0.2-0.3c0-0.2,0-0.3-0.2-0.3
			c-0.5-0.1-1.1-0.2-1.6-0.3c-0.4-0.1-0.4,0-0.5,0.4c-0.2,1.1-0.4,2.2-0.6,3.3c0,0.2,0,0.4,0.3,0.4c0.6,0.1,1.2,0.2,1.8,0.3
			c0.2,0,0.4,0.1,0.4-0.2c0-0.2-0.1-0.4-0.3-0.4c-0.3,0-0.6-0.1-0.9-0.1c-0.4-0.1-0.5-0.2-0.4-0.6c0-0.1,0-0.2,0-0.4
			c0-0.3,0.1-0.4,0.5-0.4c0.3,0,0.6,0.1,0.9,0.1c0.2,0,0.3-0.1,0.4-0.3c0-0.2-0.1-0.2-0.3-0.3c-0.3-0.1-0.7-0.1-1-0.2
			c-0.1,0-0.2-0.2-0.3-0.3c0-0.1,0-0.2,0-0.3c0-0.5,0.2-0.6,0.7-0.5C60.3,69.8,60.5,69.8,60.9,69.9z M18.5,69.7
			c-0.7,0.1-1.3,0.3-1.9,0.4c-0.2,0-0.3,0.1-0.2,0.3c0.2,0.7,0.3,1.4,0.5,2.2c0.1,0.4,0.2,0.8,0.3,1.2c0.1,0.4,0.2,0.4,0.6,0.3
			c0.2-0.1,0.4-0.1,0.6-0.2c0.4-0.1,0.8-0.2,1.1-0.3c0.1,0,0.2-0.2,0.2-0.3c-0.1-0.1-0.2-0.2-0.3-0.2c-0.4,0.1-0.8,0.2-1.1,0.3
			c-0.3,0.1-0.4,0-0.5-0.3c0-0.2-0.1-0.4-0.2-0.6c-0.1-0.3,0-0.4,0.3-0.4c0.3-0.1,0.7-0.1,1-0.3c0.1,0,0.2-0.2,0.1-0.3
			c0-0.1-0.2-0.2-0.3-0.2c-0.3,0-0.5,0.1-0.8,0.2c-0.5,0.1-0.6,0-0.7-0.6c-0.1-0.4,0-0.6,0.5-0.6c0.3,0,0.6-0.1,0.8-0.2
			c0.1,0,0.2-0.2,0.2-0.3C18.8,69.8,18.6,69.8,18.5,69.7z M52.9,72.4c0.2,0,0.4,0,0.4-0.3c0-0.2-0.2-0.3-0.4-0.3c-0.2,0-0.4,0-0.6,0
			c-0.7-0.1-0.9,0.1-0.8-0.9c0.1-0.5,0.1-0.6,0.6-0.5c0.1,0,0.2,0,0.3,0c0.2,0,0.4,0.1,0.5,0c0.1,0,0.2-0.2,0.3-0.3
			C53.2,70.1,53.1,70,53,70c-0.2,0-0.4,0-0.6-0.1c-0.8-0.1-0.8-0.1-0.7-0.9c0,0,0,0,0,0c0-0.3,0.2-0.4,0.5-0.3
			c0.3,0.1,0.6,0.1,0.9,0.1c0.2,0,0.4,0,0.4-0.3c0-0.2-0.1-0.3-0.3-0.3c-0.6,0-1.1-0.1-1.7-0.1c-0.3,0-0.4,0-0.4,0.3
			c-0.1,1.2-0.2,2.3-0.3,3.5c0,0.2,0,0.3,0.2,0.3C51.6,72.3,52.3,72.3,52.9,72.4z M44.6,69.9c0.2,0,0.4,0,0.5,0
			c0.1,0,0.2-0.1,0.3-0.2c-0.1-0.1-0.2-0.2-0.3-0.2c-0.2,0-0.4,0-0.6,0c-0.8,0-0.8-0.1-0.8-0.9c0,0,0,0,0-0.1c0-0.2,0.1-0.3,0.4-0.3
			c0.3,0,0.7,0,1,0c0.2,0,0.3-0.1,0.3-0.3c0-0.2-0.1-0.2-0.3-0.2c-0.6,0-1.2,0-1.7-0.1c-0.2,0-0.4,0.1-0.4,0.3
			c0,1.1-0.1,2.3-0.1,3.4c0,0.2,0.1,0.4,0.3,0.4c0.6,0,1.3,0.1,1.9,0.1c0.2,0,0.3-0.1,0.3-0.3c0-0.2-0.1-0.3-0.3-0.3
			c-0.3,0-0.6,0-1,0c-0.5,0-0.6,0-0.5-0.6C43.8,69.9,43.8,69.9,44.6,69.9z M63.1,69.7C63.1,69.7,63.1,69.7,63.1,69.7
			c-0.5,0-0.9,0.2-1.1,0.6c-0.3,0.5-0.3,0.9,0.3,1.5c0.2,0.2,0.5,0.4,0.8,0.6c0.2,0.2,0.3,0.4,0.2,0.6c-0.1,0.3-0.3,0.4-0.6,0.4
			c-0.4,0-0.7-0.1-1-0.3c-0.2-0.1-0.3-0.1-0.4,0.1c-0.1,0.2,0,0.3,0.1,0.4c0.6,0.3,1.2,0.6,2,0.2c0.6-0.3,0.9-1.2,0.4-1.7
			c-0.3-0.3-0.7-0.6-1-0.8c-0.2-0.2-0.3-0.4-0.2-0.7c0.1-0.3,0.4-0.4,0.6-0.3c0.2,0,0.5,0.1,0.7,0.2c0.2,0.1,0.3,0.1,0.4-0.1
			c0.1-0.2,0.1-0.3-0.1-0.4C63.8,69.9,63.5,69.8,63.1,69.7z M48.6,72.1c0.2-0.1,0.5-0.1,0.7-0.2c0.4-0.1,0.6-0.4,0.7-0.7
			c0.1-0.4,0.1-0.9-0.3-1.2c-0.2-0.1-0.4-0.2-0.5-0.3c-0.3-0.2-0.5-0.3-0.7-0.5c-0.2-0.1-0.1-0.3,0-0.5c0.3-0.4,0.6-0.4,1.2-0.2
			c0.2,0.1,0.3,0.1,0.4-0.1c0.1-0.2,0-0.4-0.2-0.4c-0.2,0-0.4-0.1-0.5-0.1c-0.4,0-0.8,0-1.1,0.2c-0.8,0.4-0.7,1.4,0,1.8
			c0.3,0.2,0.6,0.3,0.9,0.5c0.2,0.1,0.4,0.4,0.3,0.7c-0.1,0.3-0.3,0.5-0.6,0.5c-0.3,0-0.6-0.1-0.9-0.2c-0.2-0.1-0.4-0.1-0.5,0.1
			c-0.1,0.2,0,0.4,0.2,0.4C48,72,48.3,72.1,48.6,72.1z M26,72.7C26,72.7,26,72.7,26,72.7c0.1,0,0.2,0,0.3,0c0.5,0,1-0.2,1.3-0.7
			c0.4-0.9-0.2-1.6-0.9-1.7c-0.3-0.1-0.5-0.2-0.8-0.3c-0.4-0.2-0.4-0.6-0.1-0.9c0.3-0.2,0.6-0.3,1-0.2c0.2,0.1,0.3-0.1,0.3-0.2
			c0-0.1-0.1-0.3-0.2-0.3c-0.4,0-0.8,0-1.1,0.1c-0.5,0.1-0.9,0.7-0.9,1.1c0,0.5,0.4,0.9,0.9,1c0.3,0.1,0.5,0.2,0.8,0.2
			c0.3,0.1,0.5,0.3,0.4,0.6c0,0.3-0.2,0.5-0.5,0.6c-0.3,0-0.6,0-0.9,0c-0.2,0-0.4,0-0.4,0.2c0,0.2,0.1,0.4,0.3,0.4
			C25.7,72.7,25.9,72.7,26,72.7z M37,69.7C37,69.7,37,69.7,37,69.7c0.1,0.6,0.1,1.2,0.1,1.8c0,0.2,0.1,0.4,0.4,0.3
			c0.2,0,0.4-0.1,0.3-0.4c0-1.1-0.1-2.3-0.1-3.4c0-0.2-0.1-0.4-0.3-0.4c-0.3,0-0.3,0.1-0.3,0.4C37,68.6,37,69.2,37,69.7z"/>
		<path class="st0" d="M63.1,67.2c-0.3-0.1-0.6-0.2-0.9-0.3c-0.2-0.1-0.2-0.2-0.2-0.3c0.1-0.4,0.3-0.7,0.4-1.1
			c0.2-1,0.5-1.9,0.7-2.9c0.2-1.3,0.2-2.5,0.3-3.8c0.2-1.7,0.3-3.5,0.5-5.2c0.1-1.4,0.2-2.8,0.3-4.2c0.1-1.2,0.3-2.5,0.4-3.7
			c0.1-1.2,0.2-2.4,0.4-3.5c0.1-1.1,0.3-2.1,0.4-3.2c0.1-1,0.2-2.1,0.4-3.1c0.2-1.4,0.5-2.9,0.8-4.3c0.2-0.9,0.5-1.8,0.7-2.7
			c0.1-0.3,0-0.4-0.2-0.5c-0.5-0.1-1.1-0.2-1.6-0.4c-1.1-0.2-2.2-0.5-3.3-0.7c-0.9-0.2-1.8-0.4-2.6-0.6c-0.8-0.2-1.6-0.4-2.4-0.7
			c-0.7-0.2-1.5-0.4-2.2-0.6c-0.8-0.2-1.5-0.4-2.2-0.7c-0.7-0.2-1.4-0.4-2-0.6c-0.6-0.2-1.2-0.4-1.8-0.6c-0.6-0.2-1.2-0.4-1.8-0.6
			c-0.6-0.2-1.2-0.5-1.7-0.7c-0.5-0.2-1-0.4-1.5-0.6c-0.6-0.3-1.3-0.6-1.9-0.9c-0.4-0.2-0.8-0.5-1.3-0.6c-0.2-0.1-0.4,0-0.6,0
			c-0.8,0.4-1.5,0.8-2.3,1.2c-0.7,0.3-1.4,0.6-2.1,0.9c-0.8,0.3-1.5,0.6-2.3,0.9c-0.6,0.2-1.2,0.4-1.7,0.6c-0.7,0.2-1.3,0.4-2,0.7
			c-0.6,0.2-1.3,0.4-1.9,0.6c-0.8,0.2-1.6,0.5-2.4,0.7c-0.8,0.2-1.6,0.4-2.4,0.6c-0.8,0.2-1.7,0.4-2.5,0.7c-0.9,0.2-1.8,0.4-2.7,0.6
			c-0.3,0.1-0.7,0.2-1,0.2c-1,0.2-2,0.4-3,0.7c-0.4,0.1-0.4,0.2-0.3,0.5c0.3,0.9,0.5,1.8,0.7,2.8c0.2,0.7,0.3,1.4,0.4,2.2
			c0.1,0.8,0.2,1.6,0.4,2.4c0.1,1,0.3,2,0.4,3c0.1,1.1,0.2,2.1,0.4,3.2c0.1,1.1,0.3,2.3,0.4,3.4c0.1,1.3,0.2,2.6,0.4,3.9
			c0.1,1.4,0.3,2.9,0.4,4.3c0.1,0.9,0.1,1.8,0.2,2.7c0.1,1.8,0.3,3.6,0.5,5.5c0.1,0.7,0.2,1.3,0.4,1.9c0.2,0.8,0.5,1.7,0.7,2.5
			c0,0.1-0.1,0.3-0.2,0.3c-0.3,0.1-0.6,0.2-1,0.3c-0.2,0-0.3,0-0.4-0.2c-0.3-0.9-0.5-1.7-0.7-2.6c-0.2-0.8-0.3-1.7-0.4-2.6
			c-0.2-1.6-0.2-3.2-0.4-4.8c-0.1-1.6-0.3-3.1-0.4-4.6c-0.1-1.4-0.2-2.8-0.3-4.2c-0.1-1.4-0.3-2.8-0.4-4.1c-0.1-1-0.2-2.1-0.3-3.1
			c-0.1-1.2-0.3-2.4-0.5-3.6c-0.3-1.7-0.5-3.5-0.8-5.2c-0.2-1-0.5-2-0.8-3c-0.1-0.5-0.4-0.9-0.6-1.3c-0.1-0.2-0.1-0.4,0.2-0.4
			c0.7-0.2,1.4-0.3,2.1-0.5c0.8-0.2,1.7-0.4,2.5-0.6c0.9-0.2,1.8-0.4,2.6-0.7c0.7-0.2,1.5-0.4,2.2-0.6c0.8-0.2,1.5-0.4,2.3-0.7
			c0.7-0.2,1.4-0.4,2.1-0.7c0.6-0.2,1.3-0.4,1.9-0.6c0.7-0.2,1.3-0.5,2-0.7c0.5-0.2,1.1-0.4,1.6-0.6c0.6-0.2,1.2-0.5,1.8-0.7
			c0.7-0.3,1.4-0.6,2-0.9c0.7-0.3,1.3-0.6,2-0.9c0.7-0.4,1.4-0.7,2.1-1.1c0.4-0.2,0.8-0.5,1.1-0.7c0.2-0.2,0.4-0.2,0.7-0.1
			c0.6,0.4,1.2,0.8,1.8,1.1c0.8,0.4,1.6,0.8,2.4,1.2c0.7,0.3,1.3,0.6,2,0.9c0.7,0.3,1.5,0.6,2.2,0.9c0.6,0.2,1.1,0.4,1.7,0.6
			c0.6,0.2,1.2,0.4,1.8,0.6c0.7,0.2,1.4,0.5,2,0.7c0.7,0.2,1.4,0.4,2,0.6c0.7,0.2,1.5,0.4,2.2,0.7c0.3,0.1,0.7,0.2,1,0.3
			c1.4,0.4,2.9,0.7,4.3,1.1c1.2,0.3,2.5,0.6,3.7,0.9c0.4,0.1,0.8,0.2,1.2,0.3c0.3,0.1,0.4,0.2,0.2,0.5c-0.5,0.8-0.7,1.6-0.9,2.5
			c-0.2,1-0.5,2-0.7,3.1c-0.2,0.8-0.3,1.6-0.4,2.4c-0.3,1.8-0.5,3.6-0.7,5.4c-0.2,1.5-0.4,3.1-0.5,4.6c-0.1,1.3-0.2,2.5-0.3,3.8
			c-0.1,1.5-0.3,3-0.4,4.5c-0.1,1.4-0.2,2.8-0.3,4.1c-0.2,1.8-0.3,3.6-0.5,5.4c-0.1,1.1-0.5,2.1-0.8,3.1
			C63.7,66.9,63.6,67.2,63.1,67.2z"/>
		<path class="st0" d="M26.1,75.1c0.1,0,0.2,0.1,0.2,0.1c1.2,1.2,2.5,2.2,3.8,3.2c0.3,0.2,0.7,0.5,1,0.7c0.2,0.2,0.4,0.1,0.6-0.1
			c1.6-1.4,3.1-2.8,4.7-4.2c0.1-0.1,0.3-0.2,0.4-0.3c0.2-0.3,0.5-0.3,0.8-0.3c2.4,0,4.7,0,7.1,0.1c0.6,0,1.3,0,1.9,0.1
			c0.1,0,0.2,0.1,0.3,0.1c0,0.1-0.1,0.2-0.1,0.3c-0.7,0.8-1.5,1.5-2.2,2.3c-1.7,1.9-3.4,3.8-4.9,5.9c0,0-0.1,0.1-0.1,0.1
			c-0.2,0.2-0.2,0.4,0.1,0.5c0.4,0.1,0.7,0.2,1.1,0.1c0.7-0.3,1.5-0.6,2.2-0.9c0.7-0.3,1.4-0.6,2-1c0.9-0.5,1.7-0.9,2.6-1.4
			c0.9-0.5,1.7-1,2.6-1.6c1.2-0.9,2.3-1.8,3.5-2.7c0.3-0.2,0.5-0.5,0.7-0.7c0.2-0.2,0.9-0.2,1,0c0.1,0.1,0,0.3-0.1,0.4
			c-0.8,0.7-1.5,1.4-2.3,2c-1.4,1.2-2.9,2.2-4.5,3.2c-1.2,0.7-2.3,1.3-3.5,1.9c-1.1,0.6-2.3,1.1-3.5,1.6c-0.2,0.1-0.4,0.2-0.7,0.3
			c-0.3,0.1-0.6,0.2-1,0c-0.7-0.3-1.5-0.6-2.2-0.9c-0.8-0.3-1.6-0.7-2.3-1.1c-1.1-0.6-2.1-1.1-3.1-1.7c-1.2-0.8-2.4-1.5-3.5-2.4
			c-1.2-0.9-2.3-1.9-3.4-2.9c-0.2-0.2-0.2-0.4,0.1-0.4c0.1,0,0.3-0.1,0.5-0.1C26,75.1,26,75.1,26.1,75.1z"/>
		<path class="st1" d="M42.1,7.9c0.5-0.1,0.9-0.4,1.3-0.8c0.4-0.4,0.7-0.8,0.9-1.3c0.1-0.3,0.2-0.3,0.4-0.1c0.8,0.9,1.5,1.8,1.9,3
			c0.3,0.9,0.5,1.9,0.2,2.9c-0.3,0.9-0.7,1.6-1.3,2.2C45.3,13.9,45,14,44.7,14c-2.9,0-5.7,0-8.6,0c-0.3,0-0.5-0.1-0.7-0.3
			c-0.7-0.8-1-1.7-1-2.7c0-0.8,0.3-1.6,0.8-2.3c0.8-1.1,1.8-2,2.9-2.7c1.6-1.1,3.1-2.2,4.4-3.6c0.2-0.2,0.3-0.4,0.5-0.6
			c0.1-0.1,0.2-0.1,0.2-0.1c0,0.1,0.1,0.2,0.1,0.2c0,0.9-0.1,1.9-0.1,2.8c-0.1,0.9-0.3,1.8-0.8,2.6C42.3,7.4,42.2,7.6,42.1,7.9
			C42.1,7.8,42.1,7.8,42.1,7.9z"/>
		<path class="st0" d="M35.6,104.4c0-1.9,0-3.7,0-5.6c0-0.5,0-0.5,0.5-0.5c1.8,0,3.6,0,5.4,0c0.9,0,1.7,0.1,2.5,0.5
			c0.8,0.4,1.3,1,1.7,1.8c0.4,0.9,0.4,1.9,0.2,2.8c-0.2,0.9-0.8,1.5-1.6,2c-0.2,0.1-0.4,0.2-0.6,0.3c-0.2,0.1-0.2,0.2-0.1,0.3
			c0.8,1.3,1.5,2.6,2.3,4c0.4,0.6,0.3,0.7-0.4,0.6c-0.8,0-1.5,0-2.3,0c-0.3,0-0.5-0.1-0.6-0.4c-0.4-0.8-0.9-1.6-1.4-2.5
			c-0.2-0.4-0.4-0.8-0.7-1.2c-0.1-0.2-0.3-0.3-0.5-0.3c-0.4,0-0.8,0-1.2,0c-0.3,0-0.3,0.2-0.3,0.4c0,1.1,0,2.3,0,3.4
			c0,0.5,0,0.5-0.5,0.5c-0.7,0-1.5,0-2.2,0c-0.4,0-0.4-0.1-0.4-0.5c0-1,0-1.9,0-2.9C35.6,106.3,35.6,105.3,35.6,104.4
			C35.6,104.4,35.6,104.4,35.6,104.4z M40.4,100.7C40.4,100.7,40.4,100.7,40.4,100.7c-0.4,0-0.9,0-1.3,0c-0.2,0-0.3,0-0.3,0.2
			c0,0.9,0,1.8,0,2.7c0,0.2,0.1,0.3,0.3,0.3c0.8,0,1.5,0,2.3,0c0.9-0.1,1.4-0.4,1.6-1.3c0.2-1-0.3-1.9-1.5-1.9
			C41.1,100.7,40.8,100.7,40.4,100.7z"/>
		<path class="st1" d="M22.1,12.9c0.7-0.2,1.1-0.7,1.4-1.2c0.2-0.3,0.3-0.6,0.4-1c0.1-0.3,0.2-0.3,0.5-0.1c0.9,0.8,1.7,1.7,2.2,2.9
			c0.5,1.1,0.5,2.3-0.1,3.4c-0.2,0.3-0.4,0.7-0.6,1c-0.1,0.1-0.3,0.2-0.4,0.3c-1.5,0.2-3.1,0.4-4.6,0.5c-1.2,0.1-2.4,0.3-3.6,0.4
			c-0.2,0-0.4,0-0.5-0.1c-1-0.9-1.5-2-1.3-3.4c0.2-1.2,0.9-2.1,1.7-3C18,11.6,19,10.8,20,9.9c0.7-0.8,1.4-1.6,2.1-2.4
			c0.1-0.1,0.1-0.2,0.2-0.3C22.2,7.1,22.3,7,22.4,7c0.1,0.1,0.2,0.1,0.2,0.2c0.1,0.2,0.1,0.5,0.1,0.7c0.1,1.3,0.1,2.6-0.2,3.9
			C22.4,12.2,22.2,12.5,22.1,12.9z"/>
		<path class="st1" d="M61.9,13.2c0.3-0.1,0.7-0.2,1-0.4c0.5-0.3,1-0.7,1.2-1.3c0.1-0.2,0.3-0.2,0.5,0c0.4,0.7,0.8,1.3,1.1,2
			c0.2,0.5,0.4,1,0.4,1.5c0.2,1.4-0.4,2.6-1.4,3.5c-0.1,0.1-0.2,0.2-0.3,0.2c-0.3,0.2-0.5,0.3-0.9,0.2c-1.3-0.2-2.6-0.3-3.9-0.4
			c-1.4-0.2-2.8-0.3-4.2-0.5c-0.2,0-0.3-0.2-0.4-0.3c-0.8-1.1-0.9-2.6-0.2-3.9c0.6-1,1.5-1.7,2.4-2.3c1-0.6,2.1-1.2,3.1-1.8
			c0.8-0.5,1.6-1.2,2.4-1.8C62.9,8,63,7.8,63.2,7.7c0.1-0.1,0.2-0.1,0.3-0.2c0,0.1,0.1,0.2,0.1,0.3c0,0.3,0,0.7-0.1,1
			c-0.2,0.9-0.4,1.8-0.7,2.6c-0.2,0.5-0.5,1-0.8,1.4c0,0.1-0.1,0.2-0.2,0.2C61.8,13.2,61.9,13.2,61.9,13.2z"/>
		<path class="st0" d="M59.6,104.4c0-1.9,0-3.8,0-5.6c0-0.4,0.1-0.5,0.5-0.5c2.7,0,5.5,0,8.2,0c0.3,0,0.4,0.1,0.4,0.4
			c0,0.5,0,1.1,0,1.6c0,0.3-0.1,0.4-0.4,0.4c-1.7,0-3.4,0-5.1,0c-0.4,0-0.4,0-0.4,0.4c0,0.5,0,0.9,0,1.4c0,0.3,0.1,0.4,0.4,0.4
			c1.5,0,3.1,0,4.6,0c0.6,0,0.6,0.1,0.6,0.6c0,0.4,0,0.9,0,1.3c0,0.4-0.1,0.5-0.5,0.5c-1.6,0-3.1,0-4.7,0c-0.4,0-0.4,0-0.4,0.4
			c0,0.6,0,1.3,0,1.9c0,0.4,0,0.4,0.4,0.4c1.8,0,3.6,0,5.4,0c0.7,0,0.7,0,0.7,0.7c0,0.5,0,0.9,0,1.4c0,0.3-0.1,0.4-0.4,0.4
			c-2.8,0-5.7,0-8.5,0c-0.1,0-0.2,0-0.2,0c-0.4,0-0.5-0.1-0.5-0.5C59.6,108.2,59.6,106.3,59.6,104.4
			C59.6,104.4,59.6,104.4,59.6,104.4z"/>
		<path class="st0" d="M15.3,102.6c0,1.2,0,2.5,0,3.7c0,0.3,0.1,0.7,0.2,1c0.1,0.4,0.5,0.6,0.9,0.7c0.7,0.2,1.3,0.3,2,0
			c0.5-0.2,0.8-0.5,0.9-0.9c0.1-0.4,0.2-0.8,0.2-1.2c0-2.4,0-4.7,0-7.1c0-0.5,0-0.6,0.6-0.6c0.7,0,1.4,0,2.1,0
			c0.4,0,0.5,0.1,0.5,0.5c0,2.2,0,4.4,0,6.6c0,0.9,0,1.7-0.4,2.6c-0.4,0.9-0.9,1.6-1.7,2.1c-1.3,0.8-2.8,1-4.3,0.8
			c-1.3-0.2-2.4-0.8-3.2-1.8c-0.6-0.8-0.8-1.7-0.8-2.6c0-2.4,0-4.7,0-7.1c0-0.2,0-0.3,0-0.5c0-0.4,0.1-0.5,0.5-0.5
			c0.8,0,1.5,0,2.3,0c0.4,0,0.4,0.1,0.4,0.4C15.3,100,15.3,101.3,15.3,102.6C15.3,102.6,15.3,102.6,15.3,102.6z"/>
		<path class="st0" d="M47.8,104.4c0-1.9,0-3.7,0-5.6c0-0.5,0.1-0.5,0.5-0.5c2,0,4,0,5.9,0c1.1,0,2.1,0.3,2.9,1
			c0.5,0.5,0.9,1.1,1,1.7c0.1,0.5,0.2,1,0.2,1.5c0,1.1-0.4,2.1-1.2,2.9c-0.5,0.5-1.2,0.8-2,1c-1.2,0.2-2.5,0.2-3.7,0.2
			c-0.5,0-0.5,0-0.5,0.5c0,1,0,2,0,3.1c0,0.3-0.1,0.4-0.4,0.4c-0.8,0-1.5,0-2.3,0c-0.4,0-0.5-0.1-0.5-0.5
			C47.8,108.2,47.8,106.3,47.8,104.4z M50.9,102.4C50.9,102.4,50.9,102.4,50.9,102.4c0,0.5,0,1,0,1.5c0,0.2,0.1,0.3,0.3,0.3
			c0.8,0,1.7,0,2.5,0c1.5-0.2,1.7-1.4,1.3-2.6c-0.2-0.6-0.8-0.9-1.5-0.9c-0.8,0-1.6,0-2.3,0c-0.2,0-0.3,0.1-0.3,0.3
			C50.9,101.5,50.9,102,50.9,102.4z"/>
		<path class="st0" d="M24.8,104.4c0-1.9,0-3.8,0-5.7c0-0.4,0.1-0.5,0.5-0.5c2.9,0,5.7,0,8.6,0c0.3,0,0.4,0.1,0.4,0.4
			c0,0.5,0,1,0,1.5c0,0.4-0.1,0.5-0.5,0.5c-1.8,0-3.6,0-5.4,0c-0.4,0-0.4,0-0.4,0.4c0,0.6,0,1.1,0,1.7c0,0.3,0.1,0.4,0.4,0.4
			c1.6,0,3.2,0,4.9,0c0.5,0,0.6,0,0.6,0.6c0,0.5,0,0.9,0,1.4c0,0.3-0.1,0.4-0.4,0.5c-0.2,0-0.5,0-0.7,0c-1.5,0-2.9,0-4.4,0
			c-0.2,0-0.3,0.1-0.3,0.3c0,0.5,0,1,0,1.5c0,0.9,0,1.8,0,2.7c0,0.4-0.1,0.5-0.4,0.5c-0.8,0-1.5,0-2.3,0c-0.4,0-0.5-0.1-0.5-0.5
			C24.8,108.2,24.8,106.3,24.8,104.4z"/>
		<path class="st0" d="M40.4,87.1c-0.2,0-0.3-0.1-0.5-0.1c-0.9-0.3-1.7-0.7-2.6-1c-0.8-0.3-1.5-0.7-2.3-1.1c-1-0.5-2.1-1.1-3.1-1.7
			c-1-0.6-1.9-1.2-2.9-1.8c-1.7-1.2-3.3-2.5-4.9-3.9c-0.5-0.4-0.9-0.9-1.4-1.4c-0.1-0.1-0.1-0.2-0.2-0.4c0.1-0.1,0.3-0.1,0.4-0.2
			c0.3-0.1,0.6-0.1,0.8-0.1c0.3-0.1,0.5,0,0.7,0.2c1.6,1.6,3.3,3.1,5.2,4.4c1.3,0.9,2.6,1.7,4,2.5c1.1,0.6,2.2,1.1,3.4,1.7
			c0.9,0.4,1.9,0.8,2.8,1.2c0.2,0.1,0.5,0.1,0.7,0c0.7-0.2,1.4-0.5,2.1-0.8c0.7-0.3,1.3-0.6,2-0.9c0.6-0.3,1.2-0.6,1.7-0.9
			c0.8-0.5,1.7-0.9,2.5-1.4c1.3-0.9,2.7-1.7,3.9-2.7c1.2-0.9,2.2-2,3.4-3c0.2-0.2,0.4-0.3,0.7-0.2c0.3,0.1,0.5,0.1,0.8,0.1
			c0.1,0,0.3,0.1,0.4,0.2c0,0.1-0.1,0.2-0.1,0.3c-1.6,1.7-3.2,3.2-5.1,4.5c-1.4,0.9-2.7,1.9-4.1,2.7c-1.2,0.7-2.5,1.3-3.7,1.9
			c-0.9,0.4-1.7,0.8-2.6,1.2c-0.5,0.2-1.1,0.4-1.7,0.6C40.6,87.1,40.5,87.1,40.4,87.1z"/>
		<path class="st2" d="M16,20.8c0-0.6,0.4-1.1,1-1.2c1.6-0.2,3.2-0.3,4.9-0.5c1.2-0.1,2.4-0.3,3.6-0.4c0.8-0.1,1.5,0.8,1.2,1.6
			c-0.1,0.4-0.4,0.6-0.7,0.8c-0.3,0.1-0.3,0.3-0.3,0.5c0,0.3,0.1,0.7,0.1,1c0,0.4-0.1,0.4-0.4,0.5c-0.4,0.1-0.8,0.3-1.3,0.4
			c-0.4,0.1-0.9,0.3-1.3,0.4c-0.4,0.1-0.9,0.3-1.3,0.4c-0.3,0.1-0.7,0.2-1,0.3c-0.8,0.2-1.5,0.4-2.3,0.6c-0.3,0.1-0.4,0-0.4-0.3
			c-0.1-0.7-0.2-1.4-0.3-2.1c0-0.4-0.1-0.6-0.6-0.7C16.5,21.8,16,21.4,16,20.8z"/>
		<path class="st2" d="M55.2,18.6c0.8,0.1,1.4,0.2,2,0.2c1.5,0.2,2.9,0.3,4.4,0.5c0.7,0.1,1.5,0.2,2.2,0.2c0.5,0.1,0.8,0.4,0.9,0.8
			c0.1,0.5,0,0.9-0.4,1.2c-0.2,0.1-0.4,0.2-0.6,0.3c-0.2,0.1-0.3,0.1-0.3,0.3c0,0.3-0.1,0.5-0.1,0.8c-0.1,0.6-0.2,1.2-0.2,1.8
			c0,0.2-0.1,0.3-0.4,0.3c-0.8-0.2-1.7-0.5-2.5-0.7c-0.4-0.1-0.7-0.2-1.1-0.3c-1-0.3-2-0.6-3-0.9c-0.3-0.1-0.6-0.1-0.8-0.3
			c-0.1-0.1-0.2-0.2-0.2-0.3c0-0.3,0-0.6,0.1-0.8c0.1-0.6,0.1-0.6-0.4-0.9c-0.4-0.3-0.7-0.9-0.6-1.3C54.2,19.1,54.8,18.6,55.2,18.6z
			"/>
		<path class="st2" d="M40.5,14.6c1.5,0,3.1,0,4.6,0c0.8,0,1.5,0.7,1.4,1.5c-0.1,0.5-0.4,0.9-0.9,1.1c-0.5,0.2-0.5,0.3-0.5,0.8
			c0,0.3,0,0.5,0,0.8c0,0.2-0.1,0.3-0.3,0.2c-0.3-0.1-0.5-0.2-0.8-0.4c-1-0.5-1.9-1.1-2.8-1.7c-0.2-0.1-0.3-0.2-0.5-0.3
			c-0.2,0-0.4,0-0.5,0c-1.1,0.6-2.1,1.3-3.2,1.9c-0.2,0.1-0.5,0.2-0.7,0.4c-0.2,0.1-0.4,0-0.4-0.2c0-0.3,0-0.6,0-0.9
			c0-0.4-0.1-0.5-0.5-0.7c-0.6-0.2-1.1-0.9-0.9-1.4c0.2-0.8,0.8-1.2,1.5-1.2c1.2,0,2.3,0,3.5,0C39.8,14.6,40.1,14.6,40.5,14.6z"/>
		<path class="st2" d="M31.3,84.9c0.1,0.8-0.4,1.4-1.3,1.6c-0.8,0.2-1.7,0.3-2.5,0.2c-0.7,0-1.3-0.6-1.3-1.3c-0.1-1-0.3-2-0.4-3
			c-0.1-1-0.3-1.9-0.4-2.9c0-0.1,0-0.2,0.1-0.2c0.1,0,0.2,0,0.2,0.1c0.6,0.5,1.2,1,1.8,1.4c1,0.7,2,1.4,3,2.1
			c0.2,0.1,0.3,0.2,0.5,0.3c0.3,0.2,0.4,0.4,0.4,0.7C31.2,84.2,31.3,84.5,31.3,84.9z"/>
		<path class="st2" d="M52.6,86.8c-0.7-0.1-1.4-0.2-2-0.4c-0.6-0.2-1.2-0.6-1.1-1.4c0-0.4,0-0.9,0.1-1.3c0-0.3,0.3-0.4,0.5-0.5
			c1.7-1,3.3-2.2,4.9-3.5c0.1-0.1,0.2-0.2,0.3-0.2c0.1,0,0.2-0.1,0.3-0.1c0,0.1,0.1,0.2,0,0.3c-0.1,0.6-0.2,1.2-0.3,1.8
			c-0.1,0.8-0.2,1.6-0.3,2.4c-0.1,0.6-0.1,1.1-0.3,1.7c-0.2,0.7-0.6,1.1-1.4,1.2C53.1,86.7,52.9,86.7,52.6,86.8
			C52.7,86.7,52.6,86.8,52.6,86.8z"/>
		<path class="st2" d="M43.4,87.7c0,0.6,0,1.2,0,1.8c0,1-0.5,1.6-1.4,1.8c-0.7,0.2-1.5,0.2-2.3,0.1c-0.4,0-0.8-0.1-1.2-0.3
			c-0.7-0.2-1-0.8-1-1.4c-0.1-0.9-0.1-1.8-0.1-2.7c0-0.3,0.1-0.4,0.4-0.3c0.6,0.2,1.1,0.5,1.7,0.7c0.3,0.1,0.5,0.2,0.8,0.3
			c0.1,0,0.1,0,0.2,0c0.5-0.2,1.1-0.4,1.6-0.6c0.3-0.1,0.6-0.3,0.9-0.4c0.3-0.1,0.4,0,0.4,0.3C43.4,87.2,43.4,87.5,43.4,87.7
			C43.4,87.7,43.4,87.7,43.4,87.7z"/>
		<path class="st0" d="M52,54.2c0.1-0.7,0.2-1.7,0.4-2.7c0.1-0.6,0.4-1.2,0.5-1.7c0-0.1,0.1-0.1,0.2-0.2c0,0.1,0.1,0.2,0.1,0.3
			c0.1,0.6,0.1,1.3,0.2,1.9c0.1,0.5,0.2,1,0.3,1.5c0.2,0.7,0.5,1.4,0.7,2.1c0.2,0.6,0.5,1.2,0.8,1.8c0.1,0.3,0.1,0.3-0.2,0.4
			c-0.4,0.1-0.7,0.2-1.1,0.3C53.7,58,53.4,58,53.1,58c-0.2,0-0.4,0-0.6,0c-0.3,0-0.4-0.1-0.4-0.4C52,56.6,52,55.6,52,54.2z"/>
		<path class="st3" d="M44.7,57.3c0-0.3,0.1-0.4,0.4-0.4c0.2,0,0.5,0.2,0.5,0.4c0,0.2-0.2,0.5-0.4,0.5
			C44.9,57.8,44.7,57.6,44.7,57.3z"/>
		<path class="st3" d="M32.4,69c0,0.1,0,0.1,0,0.2c0,0.8,0,1.6,0.1,2.5c0,0.2-0.1,0.4-0.3,0.4c-0.3,0-0.3-0.2-0.3-0.4
			c0-1.2,0-2.3,0-3.5c0-0.2,0.1-0.3,0.3-0.3c0.7-0.1,0.7,0,0.9,0.6c0.2,0.7,0.5,1.3,0.7,1.9c0,0.1,0.1,0.2,0.2,0.2
			c0.1-0.1,0.1-0.2,0.2-0.3c0.2-0.8,0.4-1.6,0.6-2.4c0.1-0.3,0.3-0.4,0.8-0.3c0.3,0,0.3,0.3,0.3,0.5c0.1,1.1,0.2,2.1,0.3,3.2
			c0,0.4,0,0.6-0.3,0.6c-0.3,0-0.4-0.1-0.4-0.5c-0.1-0.7-0.1-1.4-0.2-2c0-0.1-0.1-0.3-0.2-0.4c-0.1,0.1-0.2,0.2-0.3,0.4
			c-0.1,0.4-0.2,0.8-0.3,1.1c-0.1,0.4-0.2,0.8-0.3,1.2c0,0.1-0.2,0.3-0.4,0.3c-0.1,0-0.3-0.1-0.3-0.2c-0.3-0.7-0.5-1.4-0.7-2.1
			C32.7,69.4,32.6,69.2,32.4,69C32.4,69,32.4,69,32.4,69z"/>
		<path class="st3" d="M39.3,68.7c0,0.1,0,0.2,0,0.3c0,0.8,0.1,1.6,0.1,2.4c0,0.2-0.1,0.3-0.4,0.3c-0.2,0-0.3-0.1-0.3-0.3
			c0-1.1,0-2.2,0-3.3c0-0.2-0.1-0.4,0.2-0.5c0.3-0.1,0.6,0,0.8,0.2c0.4,0.6,0.8,1.3,1.1,1.9c0.1,0.1,0.1,0.2,0.2,0.3
			c0.1,0.1,0.2,0.2,0.3,0.3c0.1-0.1,0.1-0.2,0.2-0.3c0-0.2,0-0.4,0-0.6c0-0.5,0-1,0-1.5c0-0.2,0.1-0.3,0.3-0.3
			c0.2,0,0.3,0.1,0.3,0.3c0,1.2,0,2.3,0,3.5c0,0.1-0.1,0.3-0.2,0.3c-0.2,0.1-0.5,0.1-0.7-0.2c-0.5-0.8-0.9-1.6-1.4-2.3
			c-0.1-0.2-0.3-0.4-0.4-0.5C39.4,68.7,39.3,68.7,39.3,68.7z"/>
		<path class="st3" d="M56.5,72.9c-0.7-0.1-1.4-0.1-2-0.7c-0.6-0.6-0.6-1.3-0.4-2.1c0.3-1.2,1.5-1.7,2.6-1.4c0.2,0,0.4,0.1,0.6,0.1
			c0.2,0.1,0.3,0.2,0.2,0.4c-0.1,0.2-0.2,0.2-0.4,0.1c-0.8-0.4-1.5-0.2-2,0.4c-0.4,0.5-0.5,1.2-0.2,1.8c0.3,0.6,0.8,0.8,1.4,0.8
			c0.3,0,0.4-0.1,0.5-0.4c0-0.1,0-0.2,0.1-0.3c0.1-0.3,0-0.5-0.4-0.5c-0.1,0-0.2,0-0.2-0.1c-0.1-0.1-0.2-0.2-0.1-0.3
			c0-0.1,0.2-0.2,0.2-0.2c0.3,0,0.7,0.1,1,0.1c0.1,0,0.2,0.2,0.2,0.3c0,0.5-0.1,1-0.2,1.5c0,0.1-0.2,0.3-0.3,0.3
			C56.9,72.9,56.7,72.8,56.5,72.9z"/>
		<path class="st3" d="M19.6,69.6c0.5-0.2,0.7-0.2,1,0.2c0.2,0.2,0.4,0.5,0.5,0.7c0.1,0.1,0.2,0.2,0.2,0.2c0.1,0,0.2-0.1,0.2-0.2
			c0.1-0.3,0.2-0.7,0.3-1c0.1-0.3,0.3-0.5,0.7-0.4c0.2,0,0.2,0.1,0.1,0.3c-0.2,0.5-0.5,1.1-0.7,1.6c-0.1,0.1,0,0.4,0.1,0.5
			c0.3,0.4,0.7,0.8,1.1,1.3c0.1,0.1,0.3,0.2,0.2,0.4c-0.2,0.2-0.6,0.2-0.7,0c-0.3-0.3-0.5-0.7-0.8-1c-0.1-0.1-0.2-0.2-0.2-0.2
			c-0.1,0-0.2,0.1-0.2,0.2c-0.1,0.3-0.2,0.6-0.3,0.9c-0.1,0.3-0.2,0.5-0.6,0.6c-0.2,0-0.3,0-0.3-0.3c0.2-0.5,0.4-1.1,0.6-1.6
			c0.1-0.2,0.1-0.4-0.1-0.6c-0.4-0.4-0.8-0.9-1.2-1.4C19.6,69.7,19.6,69.7,19.6,69.6z"/>
		<path class="st3" d="M29.6,71.8c0.4,0,0.7-0.1,1.1-0.1c0.2,0,0.4,0,0.4,0.3c0,0.3-0.2,0.2-0.4,0.3c-0.5,0-1.1,0.1-1.6,0.2
			c-0.4,0-0.5,0-0.5-0.4c-0.1-0.7-0.1-1.4-0.2-2.2c0-0.4-0.1-0.8-0.1-1.3c0-0.2,0-0.3,0.3-0.4c0.6,0,1.2-0.1,1.8-0.2
			c0.2,0,0.3,0,0.4,0.3c0,0.2-0.1,0.3-0.3,0.3c-0.3,0-0.6,0-0.9,0c-0.3,0-0.4,0.2-0.4,0.5c0,0.1,0,0.2,0,0.2
			c0.1,0.5,0.1,0.6,0.7,0.5c0.2,0,0.4,0,0.6-0.1c0.2,0,0.3,0,0.3,0.2c0,0.2-0.1,0.3-0.3,0.3c-0.3,0-0.6,0-0.9,0.1
			c-0.3,0-0.4,0.1-0.4,0.4c0,0.2,0,0.4,0.1,0.6C29.3,71.7,29.4,71.8,29.6,71.8z"/>
		<path class="st3" d="M60.9,69.9c-0.4-0.1-0.6-0.1-0.9-0.2c-0.5-0.1-0.6,0-0.7,0.5c0,0.1-0.1,0.2,0,0.3c0.1,0.1,0.2,0.3,0.3,0.3
			c0.3,0.1,0.6,0.1,1,0.2c0.2,0,0.3,0,0.3,0.3c0,0.2-0.2,0.3-0.4,0.3c-0.3-0.1-0.6-0.1-0.9-0.1c-0.3,0-0.4,0-0.5,0.4
			c0,0.1,0,0.2,0,0.4c-0.1,0.4,0,0.5,0.4,0.6c0.3,0.1,0.6,0.1,0.9,0.1c0.2,0,0.3,0.2,0.3,0.4c0,0.3-0.2,0.2-0.4,0.2
			c-0.6-0.1-1.2-0.2-1.8-0.3c-0.2,0-0.3-0.2-0.3-0.4c0.2-1.1,0.4-2.2,0.6-3.3c0.1-0.4,0.1-0.4,0.5-0.4c0.5,0.1,1.1,0.2,1.6,0.3
			c0.2,0,0.3,0.2,0.2,0.3C61.1,69.8,61,69.8,60.9,69.9z"/>
		<path class="st3" d="M18.5,69.7c0.1,0,0.2,0.1,0.2,0.2c0,0.1-0.1,0.3-0.2,0.3c-0.3,0.1-0.6,0.1-0.8,0.2c-0.4,0.1-0.6,0.2-0.5,0.6
			c0.1,0.6,0.2,0.7,0.7,0.6c0.3-0.1,0.5-0.1,0.8-0.2c0.1,0,0.2,0.1,0.3,0.2c0,0.1-0.1,0.3-0.1,0.3c-0.3,0.1-0.7,0.2-1,0.3
			c-0.3,0.1-0.3,0.2-0.3,0.4c0.1,0.2,0.1,0.4,0.2,0.6c0.1,0.3,0.2,0.4,0.5,0.3c0.4-0.1,0.8-0.2,1.1-0.3c0.1,0,0.2,0.1,0.3,0.2
			c0,0-0.1,0.2-0.2,0.3c-0.4,0.1-0.8,0.2-1.1,0.3c-0.2,0-0.4,0.1-0.6,0.2c-0.4,0.1-0.5,0.1-0.6-0.3c-0.1-0.4-0.2-0.8-0.3-1.2
			c-0.2-0.7-0.3-1.4-0.5-2.2c0-0.2,0.1-0.3,0.2-0.3C17.3,70,17.9,69.9,18.5,69.7z"/>
		<path class="st3" d="M52.9,72.4c-0.6-0.1-1.2-0.1-1.9-0.2c-0.2,0-0.2-0.1-0.2-0.3c0.1-1.2,0.2-2.3,0.3-3.5c0-0.3,0.1-0.4,0.4-0.3
			c0.6,0.1,1.1,0.1,1.7,0.1c0.2,0,0.4,0.1,0.3,0.3c0,0.2-0.2,0.3-0.4,0.3c-0.3,0-0.6-0.1-0.9-0.1c-0.3-0.1-0.4,0.1-0.5,0.3
			c0,0,0,0,0,0c-0.1,0.8-0.1,0.8,0.7,0.9c0.2,0,0.4,0,0.6,0.1c0.1,0,0.2,0.1,0.3,0.2c-0.1,0.1-0.2,0.2-0.3,0.3c-0.2,0-0.3,0-0.5,0
			c-0.1,0-0.2,0-0.3,0c-0.5,0-0.6,0-0.6,0.5c-0.1,0.9,0.1,0.8,0.8,0.9c0.2,0,0.4,0,0.6,0c0.2,0,0.4,0,0.4,0.3
			C53.3,72.4,53.1,72.4,52.9,72.4z"/>
		<path class="st3" d="M44.6,69.9c-0.8,0-0.8,0-0.9,0.8c0,0.5,0,0.6,0.5,0.6c0.3,0,0.6,0,1,0c0.2,0,0.3,0.1,0.3,0.3
			c0,0.2-0.1,0.3-0.3,0.3c-0.6,0-1.3-0.1-1.9-0.1c-0.3,0-0.3-0.1-0.3-0.4c0-1.1,0.1-2.3,0.1-3.4c0-0.3,0.1-0.4,0.4-0.3
			c0.6,0,1.2,0,1.7,0.1c0.2,0,0.3,0,0.3,0.2c0,0.2-0.1,0.3-0.3,0.3c-0.3,0-0.7,0-1,0c-0.2,0-0.3,0.1-0.4,0.3c0,0,0,0,0,0.1
			c-0.1,0.8,0,0.8,0.8,0.9c0.2,0,0.4,0,0.6,0c0.1,0,0.2,0.2,0.3,0.2c-0.1,0.1-0.2,0.2-0.3,0.2C44.9,70,44.7,69.9,44.6,69.9z"/>
		<path class="st3" d="M63.1,69.7c0.3,0.1,0.7,0.2,1,0.3c0.2,0.1,0.2,0.2,0.1,0.4c-0.1,0.2-0.2,0.2-0.4,0.1
			c-0.2-0.1-0.5-0.2-0.7-0.2c-0.3,0-0.5,0.1-0.6,0.3c-0.1,0.3,0,0.5,0.2,0.7c0.3,0.3,0.7,0.5,1,0.8c0.5,0.5,0.2,1.4-0.4,1.7
			c-0.7,0.3-1.3,0.1-2-0.2c-0.2-0.1-0.2-0.2-0.1-0.4c0.1-0.2,0.2-0.2,0.4-0.1c0.3,0.2,0.6,0.3,1,0.3c0.3,0,0.5-0.1,0.6-0.4
			c0.1-0.3,0-0.5-0.2-0.6c-0.3-0.2-0.5-0.4-0.8-0.6c-0.6-0.6-0.6-0.9-0.3-1.5C62.3,69.9,62.6,69.7,63.1,69.7
			C63.1,69.7,63.1,69.7,63.1,69.7z"/>
		<path class="st3" d="M48.6,72.1c-0.3-0.1-0.6-0.1-0.9-0.2c-0.2-0.1-0.3-0.2-0.2-0.4c0.1-0.2,0.2-0.2,0.5-0.1
			c0.3,0.1,0.6,0.2,0.9,0.2c0.3,0,0.5-0.2,0.6-0.5c0.1-0.3,0-0.5-0.3-0.7c-0.3-0.2-0.6-0.3-0.9-0.5c-0.8-0.5-0.8-1.4,0-1.8
			c0.3-0.2,0.7-0.2,1.1-0.2c0.2,0,0.4,0.1,0.5,0.1c0.2,0.1,0.3,0.2,0.2,0.4c-0.1,0.2-0.2,0.2-0.4,0.1c-0.6-0.2-0.9-0.2-1.2,0.2
			c-0.1,0.2-0.2,0.4,0,0.5c0.2,0.2,0.5,0.4,0.7,0.5c0.2,0.1,0.4,0.2,0.5,0.3c0.4,0.3,0.4,0.7,0.3,1.2c-0.1,0.4-0.3,0.6-0.7,0.7
			C49.1,72.1,48.8,72.1,48.6,72.1z"/>
		<path class="st3" d="M26,72.7c-0.2,0-0.3,0-0.5,0c-0.2,0-0.3-0.1-0.3-0.4c0-0.2,0.2-0.2,0.4-0.2c0.3,0,0.6,0,0.9,0
			c0.3,0,0.5-0.3,0.5-0.6c0-0.3-0.2-0.5-0.4-0.6c-0.2-0.1-0.5-0.2-0.8-0.2c-0.5-0.1-0.9-0.6-0.9-1c0-0.5,0.4-1,0.9-1.1
			c0.4-0.1,0.8-0.1,1.1-0.1c0.1,0,0.2,0.2,0.2,0.3c0,0.2-0.1,0.3-0.3,0.2c-0.4-0.1-0.7,0-1,0.2c-0.3,0.3-0.3,0.7,0.1,0.9
			c0.2,0.1,0.5,0.2,0.8,0.3c0.8,0.2,1.4,0.9,0.9,1.7c-0.3,0.5-0.7,0.7-1.3,0.7C26.2,72.7,26.1,72.7,26,72.7C26,72.7,26,72.7,26,72.7
			z"/>
		<path class="st3" d="M37,69.7c0-0.6,0-1.1,0-1.7c0-0.2,0.1-0.4,0.3-0.4c0.3,0,0.3,0.1,0.3,0.4c0,1.1,0.1,2.3,0.1,3.4
			c0,0.2-0.1,0.4-0.3,0.4c-0.2,0-0.4-0.1-0.4-0.3C37,70.9,37,70.3,37,69.7C37,69.7,37,69.7,37,69.7z"/>
	</g>
	<polygon class="st3" points="27.3,31.1 27.7,31.8 28.5,31.8 28,32.4 28.2,33.2 27.5,32.9 26.8,33.3 26.8,32.5 26.2,32.1 27,31.9 	
		"/>
	<polygon class="st3" points="21.9,36.2 22.3,36.9 23.1,36.9 22.6,37.5 22.8,38.3 22.1,38 21.4,38.4 21.5,37.6 20.9,37.1 21.6,36.9 
			"/>
	<polygon class="st3" points="30.2,37.2 30.6,37.8 31.4,37.9 30.9,38.5 31.1,39.3 30.4,39 29.7,39.4 29.8,38.6 29.1,38.1 29.9,37.9 
			"/>
	<polygon class="st3" points="34.3,35 34.7,35.7 35.5,35.7 35,36.4 35.2,37.1 34.5,36.8 33.8,37.3 33.9,36.5 33.2,36 34,35.8 	"/>
	<polygon class="st3" points="30.2,44.4 30.6,45.1 31.4,45.2 30.9,45.8 31.1,46.5 30.4,46.2 29.7,46.7 29.8,45.9 29.1,45.4 
		29.9,45.2 	"/>
	<circle class="st3" cx="43.8" cy="42.5" r="0.5"/>
	<circle class="st3" cx="42" cy="46.5" r="0.5"/>
	<circle class="st3" cx="38.2" cy="46.7" r="0.5"/>
	<circle class="st3" cx="38.9" cy="53" r="0.5"/>
	<circle class="st3" cx="34.3" cy="53" r="0.5"/>
	<circle class="st3" cx="33.2" cy="57.3" r="0.5"/>
	<circle class="st3" cx="45.1" cy="57.3" r="0.5"/>
	<circle class="st3" cx="39.1" cy="57.1" r="0.5"/>
	<circle class="st3" cx="41" cy="43.4" r="0.2"/>
	<circle class="st3" cx="36" cy="49.3" r="0.2"/>
	<circle class="st3" cx="41.3" cy="50.5" r="0.2"/>
	<circle class="st3" cx="44.6" cy="49" r="0.2"/>
	<circle class="st3" cx="44.6" cy="53.7" r="0.2"/>
	<circle class="st3" cx="41.9" cy="55.8" r="0.2"/>
	<circle class="st3" cx="35.4" cy="55.7" r="0.2"/>
	<circle class="st3" cx="46.1" cy="45.4" r="0.2"/>
</g>
</svg>
