<?xml version="1.0" encoding="utf-8"?>
<!-- Generator: Adobe Illustrator 25.1.0, SVG Export Plug-In . SVG Version: 6.00 Build 0)  -->
<svg version="1.1" id="Layer_1" xmlns="http://www.w3.org/2000/svg" xmlns:xlink="http://www.w3.org/1999/xlink" x="0px" y="0px"
	 viewBox="0 0 150 114" style="enable-background:new 0 0 150 114;" xml:space="preserve">
<style type="text/css">
	.st0{fill-rule:evenodd;clip-rule:evenodd;fill:#478CBD;}
	.st1{fill-rule:evenodd;clip-rule:evenodd;fill:#035199;}
	.st2{fill-rule:evenodd;clip-rule:evenodd;fill:#FFFFFF;}
	.st3{fill-rule:evenodd;clip-rule:evenodd;fill:none;stroke:#000000;stroke-width:0.4334;stroke-miterlimit:22.9256;}
	.st4{fill-rule:evenodd;clip-rule:evenodd;fill:none;stroke:#000000;stroke-width:0.3713;stroke-miterlimit:22.9256;}
	.st5{fill-rule:evenodd;clip-rule:evenodd;fill:none;stroke:#000000;stroke-width:0.3095;stroke-miterlimit:22.9256;}
	.st6{fill-rule:evenodd;clip-rule:evenodd;fill:none;stroke:#000000;stroke-width:1.130000e-02;stroke-miterlimit:22.9256;}
	.st7{fill-rule:evenodd;clip-rule:evenodd;fill:none;stroke:#000000;stroke-width:1.250000e-02;stroke-miterlimit:22.9256;}
	.st8{fill-rule:evenodd;clip-rule:evenodd;fill:#DADADA;}
	.st9{fill-rule:evenodd;clip-rule:evenodd;fill:#9D9D9C;}
	.st10{fill-rule:evenodd;clip-rule:evenodd;}
	.st11{fill-rule:evenodd;clip-rule:evenodd;fill:#3C3C3B;}
	.st12{fill-rule:evenodd;clip-rule:evenodd;fill:#777776;}
	.st13{fill-rule:evenodd;clip-rule:evenodd;fill:none;stroke:#000000;stroke-width:6.500000e-03;stroke-miterlimit:22.9256;}
	.st14{fill-rule:evenodd;clip-rule:evenodd;fill:#A8A8A7;}
	.st15{fill-rule:evenodd;clip-rule:evenodd;fill:#D6D6D6;}
	.st16{fill-rule:evenodd;clip-rule:evenodd;fill:#706F6F;}
	.st17{fill-rule:evenodd;clip-rule:evenodd;fill:#999998;}
	.st18{fill-rule:evenodd;clip-rule:evenodd;fill:none;stroke:#646363;stroke-width:6.500000e-03;stroke-miterlimit:22.9256;}
	.st19{fill-rule:evenodd;clip-rule:evenodd;fill:#BDBCBC;}
	.st20{fill-rule:evenodd;clip-rule:evenodd;fill:none;stroke:#9D9D9C;stroke-width:6.500000e-03;stroke-miterlimit:22.9256;}
	.st21{fill-rule:evenodd;clip-rule:evenodd;fill:#E0E0E0;}
	.st22{fill-rule:evenodd;clip-rule:evenodd;fill:none;stroke:#D0D0D0;stroke-width:6.500000e-03;stroke-miterlimit:22.9256;}
	.st23{fill-rule:evenodd;clip-rule:evenodd;fill:none;stroke:#FFFFFF;stroke-width:6.500000e-03;stroke-miterlimit:22.9256;}
	.st24{fill-rule:evenodd;clip-rule:evenodd;fill:#5F5E5E;}
	.st25{fill-rule:evenodd;clip-rule:evenodd;fill:#4A4A49;}
	.st26{fill-rule:evenodd;clip-rule:evenodd;fill:#373636;}
	.st27{fill-rule:evenodd;clip-rule:evenodd;fill:none;stroke:#000000;stroke-width:1.300000e-02;stroke-miterlimit:22.9256;}
	.st28{fill-rule:evenodd;clip-rule:evenodd;fill:#646363;}
	.st29{fill-rule:evenodd;clip-rule:evenodd;fill:none;stroke:#000000;stroke-width:7.100000e-03;stroke-miterlimit:22.9256;}
	.st30{fill-rule:evenodd;clip-rule:evenodd;fill:#878787;}
	.st31{fill-rule:evenodd;clip-rule:evenodd;fill:#C6C6C6;}
	.st32{fill-rule:evenodd;clip-rule:evenodd;fill:#E3E3E3;}
	.st33{fill-rule:evenodd;clip-rule:evenodd;fill:none;stroke:#000000;stroke-width:8.500000e-03;stroke-miterlimit:22.9256;}
	.st34{fill-rule:evenodd;clip-rule:evenodd;fill:#EDEDED;}
	.st35{fill-rule:evenodd;clip-rule:evenodd;fill:#929292;}
	.st36{fill-rule:evenodd;clip-rule:evenodd;fill:#B2B2B2;}
	.st37{fill-rule:evenodd;clip-rule:evenodd;fill:#D0D0D0;}
	.st38{fill-rule:evenodd;clip-rule:evenodd;fill:#575756;}
	.st39{fill-rule:evenodd;clip-rule:evenodd;fill:#797979;}
	.st40{fill-rule:evenodd;clip-rule:evenodd;fill:none;stroke:#000000;stroke-width:7.400000e-03;stroke-miterlimit:22.9256;}
	.st41{fill-rule:evenodd;clip-rule:evenodd;fill:#979696;}
	.st42{fill-rule:evenodd;clip-rule:evenodd;fill:#CECECE;}
	.st43{fill-rule:evenodd;clip-rule:evenodd;fill:#E7E7E7;}
	.st44{fill-rule:evenodd;clip-rule:evenodd;fill:none;stroke:#000000;stroke-width:7.700000e-03;stroke-miterlimit:22.9256;}
	.st45{fill-rule:evenodd;clip-rule:evenodd;fill:none;stroke:#000000;stroke-width:1.390000e-02;stroke-miterlimit:22.9256;}
	.st46{fill-rule:evenodd;clip-rule:evenodd;fill:none;stroke:#000000;stroke-width:1.870000e-02;stroke-miterlimit:22.9256;}
	.st47{fill-rule:evenodd;clip-rule:evenodd;fill:none;stroke:#000000;stroke-width:1.980000e-02;stroke-miterlimit:22.9256;}
	.st48{fill-rule:evenodd;clip-rule:evenodd;fill:none;stroke:#000000;stroke-width:2.010000e-02;stroke-miterlimit:22.9256;}
	.st49{fill-rule:evenodd;clip-rule:evenodd;fill:none;stroke:#000000;stroke-width:1.470000e-02;stroke-miterlimit:22.9256;}
	.st50{fill-rule:evenodd;clip-rule:evenodd;fill:none;stroke:#000000;stroke-width:1.330000e-02;stroke-miterlimit:22.9256;}
	.st51{fill-rule:evenodd;clip-rule:evenodd;fill:none;stroke:#000000;stroke-width:1.420000e-02;stroke-miterlimit:22.9256;}
	.st52{fill-rule:evenodd;clip-rule:evenodd;fill:none;stroke:#000000;stroke-width:1.930000e-02;stroke-miterlimit:22.9256;}
	.st53{fill-rule:evenodd;clip-rule:evenodd;fill:none;stroke:#000000;stroke-width:1.450000e-02;stroke-miterlimit:22.9256;}
	.st54{fill-rule:evenodd;clip-rule:evenodd;fill:none;stroke:#000000;stroke-width:1.640000e-02;stroke-miterlimit:22.9256;}
	.st55{fill-rule:evenodd;clip-rule:evenodd;fill:none;stroke:#000000;stroke-width:1.760000e-02;stroke-miterlimit:22.9256;}
	.st56{fill-rule:evenodd;clip-rule:evenodd;fill:none;stroke:#000000;stroke-width:1.590000e-02;stroke-miterlimit:22.9256;}
	.st57{fill-rule:evenodd;clip-rule:evenodd;fill:none;stroke:#000000;stroke-width:1.790000e-02;stroke-miterlimit:22.9256;}
	.st58{fill-rule:evenodd;clip-rule:evenodd;fill:none;stroke:#000000;stroke-width:1.670000e-02;stroke-miterlimit:22.9256;}
	.st59{fill-rule:evenodd;clip-rule:evenodd;fill:none;stroke:#000000;stroke-width:1.500000e-02;stroke-miterlimit:22.9256;}
	.st60{fill-rule:evenodd;clip-rule:evenodd;fill:none;stroke:#000000;stroke-width:1.810000e-02;stroke-miterlimit:22.9256;}
	.st61{fill-rule:evenodd;clip-rule:evenodd;fill:none;stroke:#000000;stroke-width:2.070000e-02;stroke-miterlimit:22.9256;}
	.st62{fill-rule:evenodd;clip-rule:evenodd;fill:none;stroke:#000000;stroke-width:2.150000e-02;stroke-miterlimit:22.9256;}
	.st63{fill-rule:evenodd;clip-rule:evenodd;fill:none;stroke:#000000;stroke-width:1.530000e-02;stroke-miterlimit:22.9256;}
</style>
<g>
	<path class="st0" d="M33.5,50.1c0.2,7.8,0.3,10.1,9.3,11.3v1.1H17.6v-1.1c9-1.2,9.1-3.5,9.3-11.3V23.4c-0.2-7.8-0.3-10.1-9.3-11.3
		v-1.1h25.2V12c-9,1.2-9.1,3.5-9.3,11.3V50.1z"/>
	<path class="st1" d="M104.2,36.7c0,16.3-11.7,26.8-27.5,26.8c-15.8,0-27.5-10.4-27.5-26.8C49.3,20.5,61,10,76.7,10
		C95.9,10,104.2,23.2,104.2,36.7L104.2,36.7z M58,34.8c0,11.8,6.2,26.8,19.7,26.8C90,61.7,95.5,48.9,95.5,38
		c-0.2-13.5-8-26.2-19.4-26.2C63.2,11.8,58,24.6,58,34.8z"/>
	<path class="st0" d="M32,87.4c1.4-1.4,3.1-2.1,5.1-2.1c1.9,0,3.7,0.7,5.1,2.1c1.4,1.4,2.1,3.1,2.1,5c0,1.5-0.4,2.8-1.2,4
		c-1.4,2-3.5,3.1-5.9,3.1c-1.9,0-3.7-0.7-5.1-2.1c-1.4-1.4-2.1-3.2-2.1-5.1C29.9,90.6,30.7,88.8,32,87.4L32,87.4z M32.8,96.8
		c1.1,1.1,2.6,1.8,4.2,1.8c1.6,0,3.1-0.6,4.2-1.8c1.1-1.1,1.7-2.7,1.7-4.4c0-1.7-0.6-3.1-1.7-4.3c-1.1-1.1-2.6-1.8-4.2-1.8
		c-1.6,0-3.1,0.6-4.2,1.8c-1.1,1.1-1.7,2.7-1.7,4.3C31.1,94.1,31.7,95.7,32.8,96.8z"/>
	<path class="st0" d="M50.4,99.5c-2.8,0-4.7-2-4.7-4.7c0-2.6,2-4.7,4.8-4.7c0.7,0,1.4,0.1,2,0.4v1.1c-0.7-0.4-1.4-0.6-2.2-0.6
		c-2,0-3.6,1.7-3.6,3.8c0,2.2,1.6,3.8,3.6,3.8c0.7,0,1.5-0.2,2.3-0.7V99C51.9,99.4,51.2,99.5,50.4,99.5z"/>
	<path class="st0" d="M58.2,99.6c-2.7,0-4.5-1.9-4.5-4.9c0-2.8,1.7-4.6,4.2-4.6c2.3,0,3.9,1.7,3.9,4.4v0h-7v0.1c0,2.4,1.4,4,3.4,4
		c1.2,0,2.3-0.4,3.4-1.3v1.1C60.5,99.2,59.4,99.6,58.2,99.6L58.2,99.6z M60.6,93.6c-0.2-1.6-1.4-2.7-2.8-2.7c-1.5,0-2.7,1-2.9,2.7
		H60.6z"/>
	<path class="st0" d="M65.6,99.6c-1.5,0-2.5-1-2.5-2.3c0-2,1.8-3.2,5.2-3.3v-1c0-1.4-0.6-2-2-2c-0.9,0-1.8,0.4-2.7,1.1v-1
		c1-0.7,1.9-1,2.8-1c2.1,0,2.9,1,2.9,3.1v4.8c0,0.4,0.1,0.6,0.3,0.6c0.3,0,0.5-0.3,1-0.7v0.9c-0.6,0.5-1.1,0.8-1.5,0.8
		c-0.6,0-0.8-0.3-0.9-1.1C67.4,99.2,66.6,99.6,65.6,99.6L65.6,99.6z M68.3,94.7c-2.7,0-4.2,1.1-4.2,2.5c0,0.9,0.7,1.5,1.8,1.5
		c0.8,0,1.6-0.4,2.5-1.2V94.7z"/>
	<path class="st0" d="M71.9,90.3h1v1.5c0.9-1.1,1.9-1.6,3.1-1.6c2,0,3.2,1.3,3.2,3.7v5.5h-1v-5.1c0-2.2-0.7-3.3-2.3-3.3
		c-1.2,0-2.3,0.6-3,1.9v6.4h-1V90.3z"/>
	<path class="st0" d="M85.7,90.1c2.6,0,4.7,2.1,4.7,4.7c0,1.3-0.5,2.5-1.4,3.4c-0.9,0.9-2,1.4-3.3,1.4c-2.6,0-4.7-2.1-4.7-4.7
		C81,92.2,83,90.1,85.7,90.1L85.7,90.1z M85.7,98.6c2,0,3.6-1.7,3.6-3.8c0-2.1-1.6-3.8-3.6-3.8c-2,0-3.6,1.7-3.6,3.8
		C82.1,97,83.7,98.6,85.7,98.6z"/>
	<path class="st0" d="M91.7,93.5c0-1.1,0.6-2.1,1.6-2.8c0.7-0.4,1.5-0.5,2.5-0.5h3.3v0.9h-1.9c0.7,0.7,1.1,1.4,1.1,2.4
		c0,1.7-1,2.7-2.9,3.2c-1.3,0.4-2.2,0.4-2.2,1.3c0,0.7,0.8,0.7,2.3,0.9c2.5,0.2,3.6,0.7,3.6,2.4c0,1.8-1.4,2.6-4.1,2.6
		c-2.5,0-3.8-0.9-3.8-2.4c0-1.2,0.9-2,2.4-2.2c-0.8-0.2-1.2-0.6-1.2-1.3c0-0.7,0.6-1.2,1.6-1.5C92.4,95.9,91.7,94.9,91.7,93.5
		L91.7,93.5z M92.1,101.6c0,1,1,1.6,2.9,1.6c2.1,0,3.1-0.6,3.1-1.7c0-1.1-1-1.6-3-1.6C93.1,99.8,92.1,100.4,92.1,101.6L92.1,101.6z
		 M95,95.8c1.3,0,2.3-1,2.3-2.4c0-1.3-1-2.4-2.3-2.4c-1.3,0-2.4,1.1-2.4,2.4C92.7,94.8,93.7,95.8,95,95.8z"/>
	<path class="st0" d="M100.6,90.3h1v2.2c1-1.6,1.9-2.4,3-2.4c0.6,0,1.1,0.2,1.6,0.7l-0.5,1c-0.5-0.4-1-0.6-1.4-0.6
		c-0.9,0-1.7,0.8-2.6,2.5v5.7h-1V90.3z"/>
	<path class="st0" d="M108.9,99.6c-1.5,0-2.5-1-2.5-2.3c0-2,1.8-3.2,5.2-3.3v-1c0-1.4-0.6-2-2-2c-0.9,0-1.8,0.4-2.7,1.1v-1
		c1-0.7,1.9-1,2.8-1c2.1,0,2.9,1,2.9,3.1v4.8c0,0.4,0.1,0.6,0.3,0.6c0.3,0,0.5-0.3,1-0.7v0.9c-0.6,0.5-1.1,0.8-1.5,0.8
		c-0.6,0-0.8-0.3-0.9-1.1C110.7,99.2,109.9,99.6,108.9,99.6L108.9,99.6z M111.7,94.7c-2.7,0-4.2,1.1-4.2,2.5c0,0.9,0.7,1.5,1.8,1.5
		c0.8,0,1.6-0.4,2.5-1.2V94.7L111.7,94.7z M108.7,89l2-3.4h1.5l-2.6,3.4H108.7z"/>
	<path class="st0" d="M115.4,91.1h-1.6v-0.8h1.6v-1c0-2.6,0.9-3.8,3.1-3.8c0.3,0,0.6,0,1,0.1v0.9c-0.4-0.1-0.6-0.1-0.9-0.1
		c-1.6,0-2.2,0.8-2.2,2.7v1.3h1.7v0.8h-1.7v8.2h-1V91.1z"/>
	<path class="st0" d="M119.4,85.6h1v1.7h-1V85.6L119.4,85.6z M119.4,90.3h1v9.1h-1V90.3z"/>
	<path class="st0" d="M127.1,99.5c-2.8,0-4.7-2-4.7-4.7c0-2.6,2-4.7,4.8-4.7c0.7,0,1.4,0.1,2,0.4v1.1c-0.7-0.4-1.4-0.6-2.2-0.6
		c-2,0-3.6,1.7-3.6,3.8c0,2.2,1.6,3.8,3.6,3.8c0.7,0,1.5-0.2,2.3-0.7V99C128.6,99.4,127.9,99.5,127.1,99.5z"/>
	<path class="st0" d="M135,90.1c2.6,0,4.7,2.1,4.7,4.7c0,1.3-0.5,2.5-1.4,3.4c-0.9,0.9-2,1.4-3.3,1.4c-2.6,0-4.7-2.1-4.7-4.7
		C130.3,92.2,132.4,90.1,135,90.1L135,90.1z M135,98.6c2,0,3.6-1.7,3.6-3.8c0-2.1-1.6-3.8-3.6-3.8c-2,0-3.6,1.7-3.6,3.8
		C131.4,97,133.1,98.6,135,98.6z"/>
	<rect x="11.7" y="70" class="st1" width="1.1" height="13.8"/>
	<path class="st1" d="M15.7,74.7h1v1.5c0.9-1.1,1.9-1.6,3.1-1.6c2,0,3.2,1.3,3.2,3.7v5.5h-1v-5.1c0-2.2-0.7-3.3-2.3-3.3
		c-1.2,0-2.3,0.6-3,1.9v6.4h-1V74.7z"/>
	<path class="st1" d="M27.6,83c1.2,0,1.9-0.6,1.9-1.6c0-1.3-1-1.4-2.5-2c-1.3-0.5-2-1.4-2-2.5c0-1.5,1.2-2.5,2.8-2.5
		c0.8,0,1.6,0.3,2.5,0.8v1c-0.9-0.6-1.7-0.9-2.5-0.9c-1.1,0-1.8,0.6-1.8,1.6c0,0.9,0.7,1.4,2.2,1.9c1.6,0.6,2.4,1.1,2.4,2.5
		c0,1.6-1.1,2.6-3,2.6c-0.9,0-1.8-0.3-2.6-0.8v-1C25.8,82.7,26.6,83,27.6,83z"/>
	<path class="st1" d="M34.9,83.1c0.5,0,0.9-0.2,1.5-0.5v1c-0.6,0.3-1.1,0.4-1.6,0.4c-1.6,0-2-0.7-2-2.4v-6h-1.9v-0.8h2v-2.1l0.8-0.9
		h0.2v3h2.4v0.8h-2.4v6C33.7,82.6,33.9,83.1,34.9,83.1z"/>
	<path class="st1" d="M37.6,70h1v1.7h-1V70L37.6,70z M37.6,74.7h1v9.1h-1V74.7z"/>
	<path class="st1" d="M43.7,83.1c0.5,0,0.9-0.2,1.5-0.5v1c-0.6,0.3-1.1,0.4-1.6,0.4c-1.6,0-2-0.7-2-2.4v-6h-1.9v-0.8h2v-2.1l0.8-0.9
		h0.2v3h2.4v0.8h-2.4v6C42.5,82.6,42.7,83.1,43.7,83.1z"/>
	<path class="st1" d="M49.5,84c-2,0-3.2-1.3-3.2-3.7v-5.6h1v5.1c0,2.2,0.7,3.2,2.3,3.2c1.2,0,2.3-0.6,3-1.9v-6.5h1v9.1h-1v-1.4
		C51.8,83.5,50.7,84,49.5,84z"/>
	<path class="st1" d="M58.6,83.1c0.5,0,0.9-0.2,1.5-0.5v1C59.5,83.9,59,84,58.4,84c-1.6,0-2-0.7-2-2.4v-6h-1.9v-0.8h2v-2.1l0.8-0.9
		h0.2v3h2.4v0.8h-2.4v6C57.4,82.6,57.6,83.1,58.6,83.1z"/>
	<path class="st1" d="M65.3,74.5c2.6,0,4.7,2.1,4.7,4.7c0,1.2-0.5,2.5-1.4,3.4c-0.9,0.9-2,1.4-3.3,1.4c-2.6,0-4.7-2.1-4.7-4.7
		C60.7,76.6,62.7,74.5,65.3,74.5L65.3,74.5z M65.3,83c2,0,3.6-1.7,3.6-3.8c0-2.1-1.6-3.8-3.6-3.8c-2,0-3.6,1.7-3.6,3.8
		C61.8,81.4,63.4,83,65.3,83z"/>
	<rect x="8.1" y="66.3" class="st0" width="65" height="2.1"/>
	<rect x="29.2" y="101.5" class="st1" width="58.9" height="2.1"/>
	<rect x="101.6" y="101.5" class="st1" width="40.1" height="2.1"/>
	<path class="st2" d="M101.7,40.9c11.9,0,21.6,9.7,21.6,21.6c0,11.9-9.7,21.6-21.6,21.6c-11.9,0-21.6-9.7-21.6-21.6
		C80.1,50.6,89.8,40.9,101.7,40.9L101.7,40.9z"/>
	<path class="st3" d="M101.7,40.9c11.9,0,21.6,9.7,21.6,21.6c0,11.9-9.7,21.6-21.6,21.6c-11.9,0-21.6-9.7-21.6-21.6
		C80.1,50.6,89.8,40.9,101.7,40.9L101.7,40.9z"/>
	<path class="st2" d="M101.7,44.6c9.8,0,17.9,8,17.9,17.9c0,9.8-8,17.9-17.9,17.9c-9.8,0-17.9-8-17.9-17.9
		C83.8,52.6,91.9,44.6,101.7,44.6L101.7,44.6z"/>
	<path class="st4" d="M101.7,44.6c9.8,0,17.9,8,17.9,17.9c0,9.8-8,17.9-17.9,17.9c-9.8,0-17.9-8-17.9-17.9
		C83.8,52.6,91.9,44.6,101.7,44.6L101.7,44.6z"/>
	<path class="st2" d="M101.7,47.2c8.4,0,15.2,6.8,15.2,15.2c0,8.4-6.8,15.2-15.2,15.2c-8.4,0-15.2-6.8-15.2-15.2
		C86.5,54.1,93.3,47.2,101.7,47.2L101.7,47.2z"/>
	<path class="st5" d="M101.7,47.2c8.4,0,15.2,6.8,15.2,15.2c0,8.4-6.8,15.2-15.2,15.2c-8.4,0-15.2-6.8-15.2-15.2
		C86.5,54.1,93.3,47.2,101.7,47.2L101.7,47.2z"/>
	<polygon class="st2" points="100.6,65.2 88.6,67.9 101.7,62.5 100.6,65.2 	"/>
	<polygon class="st6" points="100.6,65.2 88.6,67.9 101.7,62.5 100.6,65.2 	"/>
	<polygon class="st2" points="104.4,63.6 107.2,75.6 101.7,62.5 104.4,63.6 	"/>
	<polygon class="st6" points="104.4,63.6 107.2,75.6 101.7,62.5 104.4,63.6 	"/>
	<polygon class="st2" points="104.4,63.6 114.8,57.1 101.7,62.5 104.4,63.6 	"/>
	<polygon class="st6" points="104.4,63.6 114.8,57.1 101.7,62.5 104.4,63.6 	"/>
	<polygon class="st2" points="102.9,59.8 96.3,49.3 101.7,62.4 102.9,59.8 	"/>
	<polygon class="st6" points="102.9,59.8 96.3,49.3 101.7,62.4 102.9,59.8 	"/>
	<polygon class="st2" points="99,61.3 88.6,67.9 101.7,62.4 99,61.3 	"/>
	<polygon class="st6" points="99,61.3 88.6,67.9 101.7,62.4 99,61.3 	"/>
	<polygon class="st2" points="100.6,65.2 107.1,75.6 101.7,62.5 100.6,65.2 	"/>
	<polygon class="st6" points="100.6,65.2 107.1,75.6 101.7,62.5 100.6,65.2 	"/>
	<polygon class="st2" points="102.8,59.7 114.8,57 101.7,62.4 102.8,59.7 	"/>
	<polygon class="st6" points="102.8,59.7 114.8,57 101.7,62.4 102.8,59.7 	"/>
	<polygon class="st2" points="99,61.4 96.3,49.4 101.7,62.5 99,61.4 	"/>
	<polygon class="st6" points="99,61.4 96.3,49.4 101.7,62.5 99,61.4 	"/>
	<path class="st7" d="M116.7,56.3l-30,12.4 M116.7,68.7l-30-12.4 M95.5,47.5l12.4,30 M107.9,47.5l-12.4,30"/>
	<polygon class="st2" points="99,63.6 88.6,57.1 101.7,62.5 99,63.6 	"/>
	<polygon class="st6" points="99,63.6 88.6,57.1 101.7,62.5 99,63.6 	"/>
	<polygon class="st2" points="102.9,65.2 96.3,75.6 101.7,62.5 102.9,65.2 	"/>
	<polygon class="st6" points="102.9,65.2 96.3,75.6 101.7,62.5 102.9,65.2 	"/>
	<polygon class="st2" points="102.8,65.2 114.8,67.9 101.7,62.5 102.8,65.2 	"/>
	<polygon class="st6" points="102.8,65.2 114.8,67.9 101.7,62.5 102.8,65.2 	"/>
	<polygon class="st2" points="104.4,61.4 107.2,49.4 101.7,62.5 104.4,61.4 	"/>
	<polygon class="st6" points="104.4,61.4 107.2,49.4 101.7,62.5 104.4,61.4 	"/>
	<polygon class="st2" points="100.6,59.7 88.6,57 101.7,62.4 100.6,59.7 	"/>
	<polygon class="st6" points="100.6,59.7 88.6,57 101.7,62.4 100.6,59.7 	"/>
	<polygon class="st2" points="99,63.6 96.3,75.6 101.7,62.5 99,63.6 	"/>
	<polygon class="st6" points="99,63.6 96.3,75.6 101.7,62.5 99,63.6 	"/>
	<polygon class="st2" points="104.4,61.3 114.8,67.9 101.7,62.4 104.4,61.3 	"/>
	<polygon class="st6" points="104.4,61.3 114.8,67.9 101.7,62.4 104.4,61.3 	"/>
	<polygon class="st2" points="100.6,59.8 107.1,49.3 101.7,62.4 100.6,59.8 	"/>
	<polygon class="st6" points="100.6,59.8 107.1,49.3 101.7,62.4 100.6,59.8 	"/>
	<polygon class="st2" points="98.6,62.5 91,51.7 101.7,62.5 98.6,62.5 	"/>
	<polygon class="st7" points="98.6,62.5 91,51.7 101.7,62.5 98.6,62.5 	"/>
	<polygon class="st8" points="101.7,65.6 91,73.2 101.7,62.5 101.7,65.6 	"/>
	<polygon class="st7" points="101.7,65.6 91,73.2 101.7,62.5 101.7,65.6 	"/>
	<polygon class="st2" points="101.7,65.6 112.4,73.2 101.7,62.5 101.7,65.6 	"/>
	<polygon class="st7" points="101.7,65.6 112.4,73.2 101.7,62.5 101.7,65.6 	"/>
	<polygon class="st8" points="104.9,62.5 112.5,51.7 101.7,62.5 104.9,62.5 	"/>
	<polygon class="st7" points="104.9,62.5 112.5,51.7 101.7,62.5 104.9,62.5 	"/>
	<polygon class="st8" points="101.7,59.3 91,51.7 101.7,62.4 101.7,59.3 	"/>
	<polygon class="st7" points="101.7,59.3 91,51.7 101.7,62.4 101.7,59.3 	"/>
	<polygon class="st2" points="98.6,62.4 91,73.2 101.7,62.4 98.6,62.4 	"/>
	<polygon class="st7" points="98.6,62.4 91,73.2 101.7,62.4 98.6,62.4 	"/>
	<polygon class="st8" points="104.9,62.4 112.5,73.2 101.7,62.4 104.9,62.4 	"/>
	<polygon class="st7" points="104.9,62.4 112.5,73.2 101.7,62.4 104.9,62.4 	"/>
	<polygon class="st2" points="101.7,59.3 112.4,51.7 101.7,62.4 101.7,59.3 	"/>
	<polygon class="st7" points="101.7,59.3 112.4,51.7 101.7,62.4 101.7,59.3 	"/>
	<polygon class="st9" points="99.5,64.7 86.5,62.5 101.7,62.5 99.5,64.7 	"/>
	<polygon class="st7" points="99.5,64.7 86.5,62.5 101.7,62.5 99.5,64.7 	"/>
	<polygon class="st9" points="103.9,64.7 101.8,77.6 101.8,62.5 103.9,64.7 	"/>
	<polygon class="st7" points="103.9,64.7 101.8,77.6 101.8,62.5 103.9,64.7 	"/>
	<polygon class="st9" points="103.9,64.7 116.9,62.5 101.7,62.5 103.9,64.7 	"/>
	<polygon class="st7" points="103.9,64.7 116.9,62.5 101.7,62.5 103.9,64.7 	"/>
	<polygon class="st9" points="103.9,60.3 101.8,47.3 101.8,62.5 103.9,60.3 	"/>
	<polygon class="st7" points="103.9,60.3 101.8,47.3 101.8,62.5 103.9,60.3 	"/>
	<polygon class="st2" points="99.5,60.2 86.5,62.4 101.7,62.4 99.5,60.2 	"/>
	<polygon class="st7" points="99.5,60.2 86.5,62.4 101.7,62.4 99.5,60.2 	"/>
	<polygon class="st2" points="99.5,64.7 101.7,77.6 101.7,62.5 99.5,64.7 	"/>
	<polygon class="st7" points="99.5,64.7 101.7,77.6 101.7,62.5 99.5,64.7 	"/>
	<polygon class="st2" points="103.9,60.2 116.9,62.4 101.7,62.4 103.9,60.2 	"/>
	<polygon class="st7" points="103.9,60.2 116.9,62.4 101.7,62.4 103.9,60.2 	"/>
	<polygon class="st2" points="99.5,60.3 101.7,47.3 101.7,62.5 99.5,60.3 	"/>
	<polygon class="st7" points="99.5,60.3 101.7,47.3 101.7,62.5 99.5,60.3 	"/>
	<path class="st10" d="M86,66.7h1.5l-0.1-0.6h7.2l0.1,0.3h2.7c0,0,0.2-0.8-1.9-2.1c0,0-2-1,0.1-2.4l3.1-3c0,0,1.5-1.6,0.7-4.6
		c0,0-0.2-1.3-1.7-2.3l0.7-0.7c0,0,0.5-0.3,0.4-0.6l-0.4-0.2c0,0-0.3-0.2,0.2-0.4l0.8-0.9l0.6,0.1l-1.9-1.7l0.2,0.7l-0.8,0.9l-0.6,0
		c0,0-0.3-0.1-0.6,0.6l-3.2,3.4l-1,1l-1,0.4c0,0-0.7,0.3,0,0.6l0.9-0.2c0,0,0.7,0.2,0.5,1l-0.6,0.6c0,0-0.2,0.4,0.3,0.3l0.9-0.8H96
		c0,0,0.4,0.1,0,0.6L92.8,60l-3.6-2.9c0,0-0.4-0.5-1.1-0.4c0,0-0.6,0.2,0.3,0.7l1,0.9c0,0,0.4,0.5,0.1,0.7l-0.8,0.1l1.9,1.6
		c0,0,0-0.7,0.2-0.7c0,0,0.5-0.3,0.9,0.2l-1.3,1.5l0.2,0.2l1.2-1.5c0.1,0.1,0.1,0.2,0.1,0.4c0.4,1.3-0.5,2.6-1,3.2
		c-0.5,0.6-3.9,1.5-3.9,1.5C86.6,65.7,86.2,66.1,86,66.7L86,66.7z M97.7,56.7c0,0,0.6-1.3,0.8,0.2c0.2,1.5-1.4,2.7-1.4,2.7
		c-1.5,1.4-2,0.6-2,0.6c-0.3-0.4,0.1-0.9,0.1-0.9L97.7,56.7z"/>
	<path class="st7" d="M86,66.7h1.5l-0.1-0.6h7.2l0.1,0.3h2.7c0,0,0.2-0.8-1.9-2.1c0,0-2-1,0.1-2.4l3.1-3c0,0,1.5-1.6,0.7-4.6
		c0,0-0.2-1.3-1.7-2.3l0.7-0.7c0,0,0.5-0.3,0.4-0.6l-0.4-0.2c0,0-0.3-0.2,0.2-0.4l0.8-0.9l0.6,0.1l-1.9-1.7l0.2,0.7l-0.8,0.9l-0.6,0
		c0,0-0.3-0.1-0.6,0.6l-3.2,3.4l-1,1l-1,0.4c0,0-0.7,0.3,0,0.6l0.9-0.2c0,0,0.7,0.2,0.5,1l-0.6,0.6c0,0-0.2,0.4,0.3,0.3l0.9-0.8H96
		c0,0,0.4,0.1,0,0.6L92.8,60l-3.6-2.9c0,0-0.4-0.5-1.1-0.4c0,0-0.6,0.2,0.3,0.7l1,0.9c0,0,0.4,0.5,0.1,0.7l-0.8,0.1l1.9,1.6
		c0,0,0-0.7,0.2-0.7c0,0,0.5-0.3,0.9,0.2l-1.3,1.5l0.2,0.2l1.2-1.5c0.1,0.1,0.1,0.2,0.1,0.4c0.4,1.3-0.5,2.6-1,3.2
		c-0.5,0.6-3.9,1.5-3.9,1.5C86.6,65.7,86.2,66.1,86,66.7L86,66.7z M97.7,56.7l-2.6,2.6c0,0-0.4,0.5-0.1,0.9c0,0,0.5,0.8,2-0.6
		c0,0,1.5-1.2,1.4-2.7C98.3,55.4,97.7,56.7,97.7,56.7z"/>
	<path class="st11" d="M98.4,54c0.5,0,0.8,0.4,0.8,0.8c0,0.5-0.4,0.8-0.8,0.8c-0.5,0-0.8-0.4-0.8-0.8C97.5,54.4,97.9,54,98.4,54
		L98.4,54z"/>
	<path class="st7" d="M98.4,54c0.5,0,0.8,0.4,0.8,0.8c0,0.5-0.4,0.8-0.8,0.8c-0.5,0-0.8-0.4-0.8-0.8C97.5,54.4,97.9,54,98.4,54
		L98.4,54z"/>
	<path class="st12" d="M98.4,54.1c0.4,0,0.8,0.4,0.8,0.8c0,0.4-0.4,0.8-0.8,0.8c-0.4,0-0.8-0.4-0.8-0.8
		C97.6,54.4,97.9,54.1,98.4,54.1z"/>
	<path class="st13" d="M98.4,54.1c0.4,0,0.8,0.4,0.8,0.8c0,0.4-0.4,0.8-0.8,0.8c-0.4,0-0.8-0.4-0.8-0.8
		C97.6,54.4,97.9,54.1,98.4,54.1z"/>
	<path class="st14" d="M98.4,54.1c0.4,0,0.8,0.3,0.8,0.8c0,0.4-0.3,0.8-0.8,0.8c-0.4,0-0.8-0.3-0.8-0.8C97.6,54.4,98,54.1,98.4,54.1
		z"/>
	<path class="st13" d="M98.4,54.1c0.4,0,0.8,0.3,0.8,0.8c0,0.4-0.3,0.8-0.8,0.8c-0.4,0-0.8-0.3-0.8-0.8C97.6,54.4,98,54.1,98.4,54.1
		z"/>
	<path class="st15" d="M98.4,54.1c0.4,0,0.7,0.3,0.7,0.7c0,0.4-0.3,0.7-0.7,0.7c-0.4,0-0.7-0.3-0.7-0.7C97.7,54.5,98,54.1,98.4,54.1
		z"/>
	<path class="st13" d="M98.4,54.1c0.4,0,0.7,0.3,0.7,0.7c0,0.4-0.3,0.7-0.7,0.7c-0.4,0-0.7-0.3-0.7-0.7C97.7,54.5,98,54.1,98.4,54.1
		z"/>
	<path class="st2" d="M98.4,54.2c0.4,0,0.7,0.3,0.7,0.7c0,0.4-0.3,0.7-0.7,0.7c-0.4,0-0.7-0.3-0.7-0.7C97.7,54.5,98,54.2,98.4,54.2z
		"/>
	<path class="st13" d="M98.4,54.2c0.4,0,0.7,0.3,0.7,0.7c0,0.4-0.3,0.7-0.7,0.7c-0.4,0-0.7-0.3-0.7-0.7C97.7,54.5,98,54.2,98.4,54.2
		z"/>
	<path class="st16" d="M97,54.8c0.3,0,0.6,0.2,0.6,0.6c0,0.3-0.2,0.6-0.6,0.6c-0.3,0-0.6-0.2-0.6-0.6C96.4,55.1,96.7,54.8,97,54.8
		L97,54.8z"/>
	<path class="st7" d="M97,54.8c0.3,0,0.6,0.2,0.6,0.6c0,0.3-0.2,0.6-0.6,0.6c-0.3,0-0.6-0.2-0.6-0.6C96.4,55.1,96.7,54.8,97,54.8
		L97,54.8z"/>
	<path class="st17" d="M97,54.9c0.3,0,0.5,0.2,0.5,0.5c0,0.3-0.2,0.5-0.5,0.5c-0.3,0-0.5-0.2-0.5-0.5C96.4,55.1,96.7,54.9,97,54.9z"
		/>
	<path class="st18" d="M97,54.9c0.3,0,0.5,0.2,0.5,0.5c0,0.3-0.2,0.5-0.5,0.5c-0.3,0-0.5-0.2-0.5-0.5C96.4,55.1,96.7,54.9,97,54.9z"
		/>
	<path class="st19" d="M97,54.9c0.3,0,0.5,0.2,0.5,0.5c0,0.3-0.2,0.5-0.5,0.5c-0.3,0-0.5-0.2-0.5-0.5C96.5,55.1,96.7,54.9,97,54.9z"
		/>
	<path class="st20" d="M97,54.9c0.3,0,0.5,0.2,0.5,0.5c0,0.3-0.2,0.5-0.5,0.5c-0.3,0-0.5-0.2-0.5-0.5C96.5,55.1,96.7,54.9,97,54.9z"
		/>
	<path class="st21" d="M97,55c0.2,0,0.4,0.2,0.4,0.4c0,0.2-0.2,0.4-0.4,0.4c-0.2,0-0.4-0.2-0.4-0.4C96.5,55.1,96.7,55,97,55z"/>
	<path class="st22" d="M97,55c0.2,0,0.4,0.2,0.4,0.4c0,0.2-0.2,0.4-0.4,0.4c-0.2,0-0.4-0.2-0.4-0.4C96.5,55.1,96.7,55,97,55z"/>
	<path class="st2" d="M97,55c0.2,0,0.4,0.2,0.4,0.4c0,0.2-0.2,0.4-0.4,0.4c-0.2,0-0.4-0.2-0.4-0.4C96.6,55.2,96.7,55,97,55z"/>
	<path class="st23" d="M97,55c0.2,0,0.4,0.2,0.4,0.4c0,0.2-0.2,0.4-0.4,0.4c-0.2,0-0.4-0.2-0.4-0.4C96.6,55.2,96.7,55,97,55z"/>
	<path class="st11" d="M93.4,60.7c0.3,0,0.5,0.2,0.5,0.6c0,0.3-0.2,0.5-0.5,0.5c-0.3,0-0.6-0.2-0.6-0.5
		C92.8,60.9,93.1,60.7,93.4,60.7L93.4,60.7z"/>
	<path class="st7" d="M93.4,60.7c0.3,0,0.5,0.2,0.5,0.6c0,0.3-0.2,0.5-0.5,0.5c-0.3,0-0.6-0.2-0.6-0.5
		C92.8,60.9,93.1,60.7,93.4,60.7L93.4,60.7z"/>
	<path class="st12" d="M93.4,60.7c0.3,0,0.5,0.2,0.5,0.5c0,0.3-0.2,0.5-0.5,0.5c-0.3,0-0.5-0.2-0.5-0.5
		C92.9,60.9,93.1,60.7,93.4,60.7z"/>
	<path class="st13" d="M93.4,60.7c0.3,0,0.5,0.2,0.5,0.5c0,0.3-0.2,0.5-0.5,0.5c-0.3,0-0.5-0.2-0.5-0.5
		C92.9,60.9,93.1,60.7,93.4,60.7z"/>
	<path class="st14" d="M93.4,60.8c0.3,0,0.5,0.2,0.5,0.5c0,0.3-0.2,0.5-0.5,0.5c-0.3,0-0.5-0.2-0.5-0.5C92.9,61,93.1,60.8,93.4,60.8
		z"/>
	<path class="st13" d="M93.4,60.8c0.3,0,0.5,0.2,0.5,0.5c0,0.3-0.2,0.5-0.5,0.5c-0.3,0-0.5-0.2-0.5-0.5C92.9,61,93.1,60.8,93.4,60.8
		z"/>
	<path class="st15" d="M93.4,60.8c0.2,0,0.4,0.2,0.4,0.4c0,0.2-0.2,0.4-0.4,0.4c-0.2,0-0.4-0.2-0.4-0.4C93,61,93.2,60.8,93.4,60.8z"
		/>
	<path class="st13" d="M93.4,60.8c0.2,0,0.4,0.2,0.4,0.4c0,0.2-0.2,0.4-0.4,0.4c-0.2,0-0.4-0.2-0.4-0.4C93,61,93.2,60.8,93.4,60.8z"
		/>
	<path class="st2" d="M93.4,60.8c0.2,0,0.4,0.2,0.4,0.4c0,0.2-0.2,0.4-0.4,0.4c-0.2,0-0.4-0.2-0.4-0.4C93,61,93.2,60.8,93.4,60.8z"
		/>
	<path class="st13" d="M93.4,60.8c0.2,0,0.4,0.2,0.4,0.4c0,0.2-0.2,0.4-0.4,0.4c-0.2,0-0.4-0.2-0.4-0.4C93,61,93.2,60.8,93.4,60.8z"
		/>
	<path class="st16" d="M98.4,54.4c0.3,0,0.5,0.2,0.5,0.5c0,0.2-0.2,0.5-0.5,0.5c-0.2,0-0.5-0.2-0.5-0.5
		C97.9,54.6,98.1,54.4,98.4,54.4L98.4,54.4z"/>
	<path class="st7" d="M98.4,54.4c0.3,0,0.5,0.2,0.5,0.5c0,0.2-0.2,0.5-0.5,0.5c-0.2,0-0.5-0.2-0.5-0.5
		C97.9,54.6,98.1,54.4,98.4,54.4L98.4,54.4z"/>
	<path class="st24" d="M98.4,54.4c0.2,0,0.4,0.2,0.4,0.4c0,0.2-0.2,0.4-0.4,0.4c-0.2,0-0.4-0.2-0.4-0.4C98,54.6,98.1,54.4,98.4,54.4
		z"/>
	<path class="st18" d="M98.4,54.4c0.2,0,0.4,0.2,0.4,0.4c0,0.2-0.2,0.4-0.4,0.4c-0.2,0-0.4-0.2-0.4-0.4C98,54.6,98.1,54.4,98.4,54.4
		z"/>
	<path class="st25" d="M98.4,54.5c0.2,0,0.4,0.2,0.4,0.4c0,0.2-0.2,0.4-0.4,0.4c-0.2,0-0.4-0.2-0.4-0.4C98,54.6,98.2,54.5,98.4,54.5
		z"/>
	<path class="st20" d="M98.4,54.5c0.2,0,0.4,0.2,0.4,0.4c0,0.2-0.2,0.4-0.4,0.4c-0.2,0-0.4-0.2-0.4-0.4C98,54.6,98.2,54.5,98.4,54.5
		z"/>
	<path class="st26" d="M98.4,54.5c0.2,0,0.3,0.2,0.3,0.4c0,0.2-0.2,0.3-0.3,0.3c-0.2,0-0.3-0.2-0.3-0.3C98,54.7,98.2,54.5,98.4,54.5
		z"/>
	<path class="st22" d="M98.4,54.5c0.2,0,0.3,0.2,0.3,0.4c0,0.2-0.2,0.3-0.3,0.3c-0.2,0-0.3-0.2-0.3-0.3C98,54.7,98.2,54.5,98.4,54.5
		z"/>
	<path class="st10" d="M98.4,54.5c0.2,0,0.3,0.1,0.3,0.3c0,0.2-0.1,0.3-0.3,0.3c-0.2,0-0.3-0.1-0.3-0.3
		C98.1,54.7,98.2,54.5,98.4,54.5z"/>
	<path class="st23" d="M98.4,54.5c0.2,0,0.3,0.1,0.3,0.3c0,0.2-0.1,0.3-0.3,0.3c-0.2,0-0.3-0.1-0.3-0.3
		C98.1,54.7,98.2,54.5,98.4,54.5z"/>
	<path class="st11" d="M90.5,65.5c0,0,1.4-0.6,1.8-1.1c0,0,0.5-0.3,0.3-0.6c0,0-0.4-0.2-0.7,0.3c0,0-0.5,0.4-1.5,1l-0.6,0.4
		c0,0-0.3,0.3,0.2,0.2C90.3,65.6,90.5,65.5,90.5,65.5L90.5,65.5z"/>
	<path class="st27" d="M90.5,65.5c0,0,1.4-0.6,1.8-1.1c0,0,0.5-0.3,0.3-0.6c0,0-0.4-0.2-0.7,0.3c0,0-0.5,0.4-1.5,1l-0.6,0.4
		c0,0-0.3,0.3,0.2,0.2C90.3,65.6,90.5,65.5,90.5,65.5L90.5,65.5z"/>
	<path class="st28" d="M90.5,65.4c0.1,0,0.1-0.1,0.2-0.1l0.1,0l0.1-0.1l0.1-0.1l0.1-0.1l0.2-0.1l0.2-0.1l0.2-0.1l0.1-0.1l0.1-0.1
		l0.1-0.1l0.1-0.1l0.1-0.1l0,0l0,0l0.1-0.1l0.1-0.1l0.1-0.1l0-0.1l0-0.1l0-0.1l0,0l-0.1,0l-0.1,0l-0.1,0l-0.1,0.1l-0.1,0.1L92,64.1
		l0,0l-0.1,0.1l-0.1,0.1l-0.2,0.1l-0.2,0.1l-0.3,0.2l-0.3,0.2L90.5,65l-0.6,0.4l0,0l0,0l0,0v0l0,0l0.1,0l0.1,0l0.1,0l0.1,0l0.1,0
		l0.1,0C90.4,65.5,90.4,65.5,90.5,65.4L90.5,65.4z"/>
	<path class="st29" d="M90.5,65.4c0.1,0,0.1-0.1,0.2-0.1l0.1,0l0.1-0.1l0.1-0.1l0.1-0.1l0.2-0.1l0.2-0.1l0.2-0.1l0.1-0.1l0.1-0.1
		l0.1-0.1l0.1-0.1l0.1-0.1l0,0l0,0l0.1-0.1l0.1-0.1l0.1-0.1l0-0.1l0-0.1l0-0.1l0,0l-0.1,0l-0.1,0l-0.1,0l-0.1,0.1l-0.1,0.1L92,64.1
		l0,0l-0.1,0.1l-0.1,0.1l-0.2,0.1l-0.2,0.1l-0.3,0.2l-0.3,0.2L90.5,65l-0.6,0.4l0,0l0,0l0,0v0l0,0l0.1,0l0.1,0l0.1,0l0.1,0l0.1,0
		l0.1,0C90.4,65.5,90.4,65.5,90.5,65.4L90.5,65.4z"/>
	<path class="st30" d="M90.5,65.4l0.2-0.1l0.1-0.1l0.1-0.1l0.1-0.1l0.1-0.1l0.1-0.1l0.2-0.1l0.2-0.1l0.1-0.1l0.1-0.1l0.1-0.1
		l0.1-0.1l0.1-0.1l0,0l0,0l0.1,0l0.1-0.1l0.1-0.1l0-0.1l0-0.1l0-0.1l0,0l-0.1,0l-0.1,0l-0.1,0l-0.1,0l-0.1,0.1L92,64.1l0,0l-0.1,0.1
		l-0.1,0.1l-0.2,0.1l-0.2,0.1l-0.3,0.2l-0.3,0.2l-0.3,0.2l-0.6,0.4l0,0l0,0l0,0v0l0,0l0.1,0l0.1,0l0.1,0l0.1,0l0.1,0l0.1,0l0.1,0
		C90.4,65.4,90.5,65.4,90.5,65.4L90.5,65.4L90.5,65.4z"/>
	<path class="st29" d="M90.5,65.4l0.2-0.1l0.1-0.1l0.1-0.1l0.1-0.1l0.1-0.1l0.1-0.1l0.2-0.1l0.2-0.1l0.1-0.1l0.1-0.1l0.1-0.1
		l0.1-0.1l0.1-0.1l0,0l0,0l0.1,0l0.1-0.1l0.1-0.1l0-0.1l0-0.1l0-0.1l0,0l-0.1,0l-0.1,0l-0.1,0l-0.1,0l-0.1,0.1L92,64.1l0,0l-0.1,0.1
		l-0.1,0.1l-0.2,0.1l-0.2,0.1l-0.3,0.2l-0.3,0.2l-0.3,0.2l-0.6,0.4l0,0l0,0l0,0v0l0,0l0.1,0l0.1,0l0.1,0l0.1,0l0.1,0l0.1,0l0.1,0
		C90.4,65.4,90.5,65.4,90.5,65.4L90.5,65.4L90.5,65.4z"/>
	<path class="st14" d="M91.4,65l0.2-0.1l0.2-0.1l0.1-0.1l0.1-0.1l0.1-0.1l0.1-0.1l0.1-0.1l0,0l0,0l0.1,0l0.1-0.1l0-0.1l0-0.1l0-0.1
		l0-0.1l0,0l0,0l-0.1,0l-0.1,0l-0.1,0L92.1,64L92,64.1l0,0l-0.1,0.1l-0.1,0.1l-0.2,0.1l-0.2,0.1l-0.3,0.2l-0.3,0.2l-0.4,0.2
		l-0.6,0.3l0,0l0,0l0,0H90l0.1,0l0.1,0l0.1,0l0.1,0c0,0,0.1,0,0.1-0.1c0.2-0.1,0.3-0.1,0.5-0.2l0.1-0.1l0.1-0.1L91.4,65L91.4,65z"/>
	<path class="st29" d="M91.4,65l0.2-0.1l0.2-0.1l0.1-0.1l0.1-0.1l0.1-0.1l0.1-0.1l0.1-0.1l0,0l0,0l0.1,0l0.1-0.1l0-0.1l0-0.1l0-0.1
		l0-0.1l0,0l0,0l-0.1,0l-0.1,0l-0.1,0L92.1,64L92,64.1l0,0l-0.1,0.1l-0.1,0.1l-0.2,0.1l-0.2,0.1l-0.3,0.2l-0.3,0.2l-0.4,0.2
		l-0.6,0.3l0,0l0,0l0,0H90l0.1,0l0.1,0l0.1,0l0.1,0c0,0,0.1,0,0.1-0.1c0.2-0.1,0.3-0.1,0.5-0.2l0.1-0.1l0.1-0.1L91.4,65L91.4,65z"/>
	<path class="st31" d="M92.3,64.3L92.3,64.3L92.3,64.3l0.1-0.1l0.1-0.1l0-0.1l0-0.1v-0.1l0,0l0,0l-0.1,0l-0.1,0l-0.1,0L92.2,64
		L92,64.2l0,0l-0.1,0.1l-0.1,0.1l-0.2,0.1l-0.2,0.1l-0.3,0.2l-0.3,0.2l-0.4,0.2L90,65.5l0.1,0l0.1,0l0.1,0l0.1,0l0.1,0l0.1,0
		c0,0,0,0,0.1,0l0.3-0.1l0.1-0.1l0.1-0.1l0.1-0.1l0.2-0.1l0.2-0.1l0.1-0.1l0.1-0.1l0.1-0.1l0.1-0.1l0.1-0.1L92.3,64.3L92.3,64.3z"/>
	<path class="st29" d="M92.3,64.3L92.3,64.3L92.3,64.3l0.1-0.1l0.1-0.1l0-0.1l0-0.1v-0.1l0,0l0,0l-0.1,0l-0.1,0l-0.1,0L92.2,64
		L92,64.2l0,0l-0.1,0.1l-0.1,0.1l-0.2,0.1l-0.2,0.1l-0.3,0.2l-0.3,0.2l-0.4,0.2L90,65.5l0.1,0l0.1,0l0.1,0l0.1,0l0.1,0l0.1,0
		c0,0,0,0,0.1,0l0.3-0.1l0.1-0.1l0.1-0.1l0.1-0.1l0.2-0.1l0.2-0.1l0.1-0.1l0.1-0.1l0.1-0.1l0.1-0.1l0.1-0.1L92.3,64.3L92.3,64.3z"/>
	<path class="st32" d="M92.4,64.1L92.4,64.1l0.1-0.1l0-0.1l0,0l0,0l-0.1,0l-0.1,0l-0.1,0L92.2,64l-0.1,0.2l0,0L92,64.3l-0.1,0.1
		l-0.2,0.1l-0.2,0.1l-0.3,0.2L90.9,65l-0.4,0.2l-0.4,0.2l0.1,0l0.1,0l0.1,0l0.1,0c0,0,0.1,0,0.1,0c0,0,0.1,0,0.1-0.1l0.2-0.1
		l0.1-0.1L91,65l0.1-0.1l0.2-0.1l0.1-0.1l0.2-0.1l0.1-0.1l0.1-0.1l0.1-0.1l0.1-0.1l0.1-0.1l0,0l0,0L92.4,64.1L92.4,64.1L92.4,64.1z"
		/>
	<path class="st29" d="M92.4,64.1L92.4,64.1l0.1-0.1l0-0.1l0,0l0,0l-0.1,0l-0.1,0l-0.1,0L92.2,64l-0.1,0.2l0,0L92,64.3l-0.1,0.1
		l-0.2,0.1l-0.2,0.1l-0.3,0.2L90.9,65l-0.4,0.2l-0.4,0.2l0.1,0l0.1,0l0.1,0l0.1,0c0,0,0.1,0,0.1,0c0,0,0.1,0,0.1-0.1l0.2-0.1
		l0.1-0.1L91,65l0.1-0.1l0.2-0.1l0.1-0.1l0.2-0.1l0.1-0.1l0.1-0.1l0.1-0.1l0.1-0.1l0.1-0.1l0,0l0,0L92.4,64.1L92.4,64.1L92.4,64.1z"
		/>
	<polygon class="st2" points="90.6,65.2 90.9,65.1 91,65 91.2,64.9 91.3,64.9 91.5,64.8 91.6,64.7 91.7,64.6 91.9,64.5 92,64.4 
		92.1,64.3 92.2,64.2 92.2,64.2 92.3,64.2 92.3,64.1 92.4,64.1 92.4,64 92.4,64 92.4,63.9 92.4,63.9 92.4,64 92.3,64 92.2,64 
		92.1,64.2 92.1,64.2 92,64.3 91.9,64.4 91.7,64.5 91.5,64.7 91.2,64.8 90.9,65 90.6,65.2 90.5,65.3 90.5,65.2 90.6,65.2 	"/>
	<polygon class="st29" points="90.6,65.2 90.9,65.1 91,65 91.2,64.9 91.3,64.9 91.5,64.8 91.6,64.7 91.7,64.6 91.9,64.5 92,64.4 
		92.1,64.3 92.2,64.2 92.2,64.2 92.3,64.2 92.3,64.1 92.4,64.1 92.4,64 92.4,64 92.4,63.9 92.4,63.9 92.4,64 92.3,64 92.2,64 
		92.1,64.2 92.1,64.2 92,64.3 91.9,64.4 91.7,64.5 91.5,64.7 91.2,64.8 90.9,65 90.6,65.2 90.5,65.3 90.5,65.2 90.6,65.2 	"/>
	<path class="st11" d="M95,64.4c0,0-0.3-0.4-0.6-0.2c0,0-0.1,0.3,0.3,0.5c0.3,0.2,0.5,0.4,0.7,0.6c0.2,0.2,0.6,0,0.3-0.3
		C95.5,64.8,95.2,64.6,95,64.4L95,64.4z"/>
	<path class="st27" d="M95,64.4c0,0-0.3-0.4-0.6-0.2c0,0-0.1,0.3,0.3,0.5c0.3,0.2,0.5,0.4,0.7,0.6c0.2,0.2,0.6,0,0.3-0.3
		C95.5,64.8,95.2,64.6,95,64.4L95,64.4z"/>
	<path class="st28" d="M94.9,64.4L94.9,64.4l-0.1-0.1l-0.1,0l-0.1,0l-0.1,0l-0.1,0l0,0l0,0.1l0,0.1l0,0.1l0.1,0.1l0.1,0.1l0.1,0.1
		l0.1,0.1l0.2,0.2c0.1,0.1,0.2,0.2,0.4,0.3l0.1,0.1l0.1,0l0.1,0l0.1,0l0.1,0l0,0l0-0.1l0-0.1l-0.1-0.1L95.7,65l-0.1-0.1l-0.1-0.1
		l-0.1-0.1l-0.1-0.1l-0.1-0.1L95,64.5L94.9,64.4L94.9,64.4L94.9,64.4L94.9,64.4z"/>
	<path class="st33" d="M94.9,64.4L94.9,64.4l-0.1-0.1l-0.1,0l-0.1,0l-0.1,0l-0.1,0l0,0l0,0.1l0,0.1l0,0.1l0.1,0.1l0.1,0.1l0.1,0.1
		l0.1,0.1l0.2,0.2c0.1,0.1,0.2,0.2,0.4,0.3l0.1,0.1l0.1,0l0.1,0l0.1,0l0.1,0l0,0l0-0.1l0-0.1l-0.1-0.1L95.7,65l-0.1-0.1l-0.1-0.1
		l-0.1-0.1l-0.1-0.1l-0.1-0.1L95,64.5L94.9,64.4L94.9,64.4L94.9,64.4L94.9,64.4z"/>
	<path class="st30" d="M94.9,64.4L94.9,64.4l-0.1-0.1l-0.1,0l-0.1,0l-0.1,0l-0.1,0l0,0l0,0l0,0.1l0,0.1l0.1,0.1l0.1,0.1l0.1,0.1
		l0.1,0.1l0.2,0.2c0.1,0.1,0.2,0.1,0.3,0.2l0.2,0.1l0.1,0l0.1,0l0.1,0l0,0l0,0l0,0l0-0.1l-0.1-0.1l-0.2-0.2l-0.1-0.1l-0.1-0.1
		l-0.1-0.1l-0.1-0.1L95,64.5L94.9,64.4L94.9,64.4L94.9,64.4L94.9,64.4z"/>
	<path class="st33" d="M94.9,64.4L94.9,64.4l-0.1-0.1l-0.1,0l-0.1,0l-0.1,0l-0.1,0l0,0l0,0l0,0.1l0,0.1l0.1,0.1l0.1,0.1l0.1,0.1
		l0.1,0.1l0.2,0.2c0.1,0.1,0.2,0.1,0.3,0.2l0.2,0.1l0.1,0l0.1,0l0.1,0l0,0l0,0l0,0l0-0.1l-0.1-0.1l-0.2-0.2l-0.1-0.1l-0.1-0.1
		l-0.1-0.1l-0.1-0.1L95,64.5L94.9,64.4L94.9,64.4L94.9,64.4L94.9,64.4z"/>
	<path class="st14" d="M94.7,64.3L94.7,64.3l-0.1,0l-0.1,0l0,0l0,0l0,0.1l0,0.1l0,0.1l0.1,0.1l0.1,0.1l0.1,0.1l0.2,0.2
		c0.1,0.1,0.2,0.1,0.3,0.2l0.2,0.1l0.1,0l0.1,0l0.1,0l0,0l0,0l0,0l0,0l-0.1-0.1L95.5,65l-0.1-0.1l-0.1-0.1l-0.1-0.1l-0.1-0.1
		L95,64.6l-0.1-0.1l0,0l0,0L94.7,64.3L94.7,64.3L94.7,64.3z"/>
	<path class="st33" d="M94.7,64.3L94.7,64.3l-0.1,0l-0.1,0l0,0l0,0l0,0.1l0,0.1l0,0.1l0.1,0.1l0.1,0.1l0.1,0.1l0.2,0.2
		c0.1,0.1,0.2,0.1,0.3,0.2l0.2,0.1l0.1,0l0.1,0l0.1,0l0,0l0,0l0,0l0,0l-0.1-0.1L95.5,65l-0.1-0.1l-0.1-0.1l-0.1-0.1l-0.1-0.1
		L95,64.6l-0.1-0.1l0,0l0,0L94.7,64.3L94.7,64.3L94.7,64.3z"/>
	<path class="st31" d="M94.7,64.4L94.7,64.4l-0.1,0l-0.1,0l0,0l0,0l0,0l0,0.1l0,0.1l0.1,0.1l0.1,0.1l0.1,0.1l0.2,0.2
		c0.1,0.1,0.2,0.1,0.3,0.2l0.1,0.1l0.1,0l0,0l0,0l0,0l0,0l0,0l0,0l0-0.1L95.5,65l-0.1-0.1l-0.1-0.1l-0.1-0.1l-0.1-0.1L95,64.6
		l-0.1-0.1l0,0L94.7,64.4L94.7,64.4L94.7,64.4L94.7,64.4z"/>
	<path class="st33" d="M94.7,64.4L94.7,64.4l-0.1,0l-0.1,0l0,0l0,0l0,0l0,0.1l0,0.1l0.1,0.1l0.1,0.1l0.1,0.1l0.2,0.2
		c0.1,0.1,0.2,0.1,0.3,0.2l0.1,0.1l0.1,0l0,0l0,0l0,0l0,0l0,0l0,0l0-0.1L95.5,65l-0.1-0.1l-0.1-0.1l-0.1-0.1l-0.1-0.1L95,64.6
		l-0.1-0.1l0,0L94.7,64.4L94.7,64.4L94.7,64.4L94.7,64.4z"/>
	<polygon class="st32" points="95.2,64.9 95.3,65 95.4,65.1 95.6,65.2 95.6,65.3 95.7,65.3 95.7,65.3 95.7,65.2 95.5,65 95.4,64.9 
		95.3,64.8 95.2,64.8 95.1,64.7 95,64.6 94.9,64.5 94.8,64.5 94.8,64.5 94.8,64.4 94.7,64.4 94.7,64.4 94.6,64.4 94.6,64.4 
		94.6,64.4 94.6,64.4 94.6,64.5 94.7,64.6 94.8,64.6 95,64.7 95.2,64.9 	"/>
	<polygon class="st33" points="95.2,64.9 95.3,65 95.4,65.1 95.6,65.2 95.6,65.3 95.7,65.3 95.7,65.3 95.7,65.2 95.5,65 95.4,64.9 
		95.3,64.8 95.2,64.8 95.1,64.7 95,64.6 94.9,64.5 94.8,64.5 94.8,64.5 94.8,64.4 94.7,64.4 94.7,64.4 94.6,64.4 94.6,64.4 
		94.6,64.4 94.6,64.4 94.6,64.5 94.7,64.6 94.8,64.6 95,64.7 95.2,64.9 	"/>
	<polygon class="st2" points="94.8,64.5 94.7,64.5 94.7,64.4 94.6,64.4 94.6,64.4 94.6,64.4 94.7,64.5 94.7,64.5 94.9,64.6 95,64.7 
		95.2,64.9 95.3,64.9 95.5,65.1 95.5,65.1 95.3,65 95.2,64.9 95.1,64.8 95,64.7 94.9,64.6 94.8,64.6 94.8,64.5 94.8,64.5 	"/>
	<polygon class="st33" points="94.8,64.5 94.7,64.5 94.7,64.4 94.6,64.4 94.6,64.4 94.6,64.4 94.7,64.5 94.7,64.5 94.9,64.6 
		95,64.7 95.2,64.9 95.3,64.9 95.5,65.1 95.5,65.1 95.3,65 95.2,64.9 95.1,64.8 95,64.7 94.9,64.6 94.8,64.6 94.8,64.5 94.8,64.5 	
		"/>
	<path class="st11" d="M97.4,49.9L97.4,49.9c0.1,0.1,0.1,0.2,0,0.3l-3.5,3.7c-0.1,0.1-0.2,0.1-0.3,0l0,0c-0.1-0.1-0.1-0.2,0-0.3
		l3.5-3.7C97.1,49.8,97.3,49.8,97.4,49.9L97.4,49.9z"/>
	<path class="st7" d="M97.4,49.9L97.4,49.9c0.1,0.1,0.1,0.2,0,0.3l-3.5,3.7c-0.1,0.1-0.2,0.1-0.3,0l0,0c-0.1-0.1-0.1-0.2,0-0.3
		l3.5-3.7C97.1,49.8,97.3,49.8,97.4,49.9L97.4,49.9z"/>
	<polygon class="st12" points="97.4,50.1 97.4,50.1 97.4,50.1 97.4,50.2 97.3,50.2 93.9,53.9 93.9,53.9 93.8,53.9 93.8,54 93.8,54 
		93.7,54 93.7,54 93.6,53.9 93.6,53.9 93.6,53.9 93.6,53.8 93.6,53.8 93.5,53.8 93.6,53.7 93.6,53.7 93.6,53.7 93.6,53.6 97.1,49.9 
		97.1,49.9 97.1,49.9 97.2,49.9 97.2,49.9 97.2,49.9 97.3,49.9 97.3,49.9 97.3,49.9 97.4,50 97.4,50 97.4,50 97.4,50.1 	"/>
	<polygon class="st13" points="97.4,50.1 97.4,50.1 97.4,50.1 97.4,50.2 97.3,50.2 93.9,53.9 93.9,53.9 93.8,53.9 93.8,54 93.8,54 
		93.7,54 93.7,54 93.6,53.9 93.6,53.9 93.6,53.9 93.6,53.8 93.6,53.8 93.5,53.8 93.6,53.7 93.6,53.7 93.6,53.7 93.6,53.6 97.1,49.9 
		97.1,49.9 97.1,49.9 97.2,49.9 97.2,49.9 97.2,49.9 97.3,49.9 97.3,49.9 97.3,49.9 97.4,50 97.4,50 97.4,50 97.4,50.1 	"/>
	<polygon class="st14" points="97.4,50.1 97.4,50.1 97.4,50.1 97.3,50.2 97.3,50.2 93.9,53.9 93.8,53.9 93.8,53.9 93.8,53.9 
		93.8,53.9 93.7,53.9 93.7,53.9 93.7,53.9 93.6,53.9 93.6,53.9 93.6,53.8 93.6,53.8 93.6,53.8 93.6,53.7 93.6,53.7 93.6,53.7 
		93.6,53.7 97.1,50 97.1,49.9 97.1,49.9 97.2,49.9 97.2,49.9 97.2,49.9 97.3,49.9 97.3,49.9 97.3,50 97.3,50 97.3,50 97.4,50 
		97.4,50.1 	"/>
	<polygon class="st13" points="97.4,50.1 97.4,50.1 97.4,50.1 97.3,50.2 97.3,50.2 93.9,53.9 93.8,53.9 93.8,53.9 93.8,53.9 
		93.8,53.9 93.7,53.9 93.7,53.9 93.7,53.9 93.6,53.9 93.6,53.9 93.6,53.8 93.6,53.8 93.6,53.8 93.6,53.7 93.6,53.7 93.6,53.7 
		93.6,53.7 97.1,50 97.1,49.9 97.1,49.9 97.2,49.9 97.2,49.9 97.2,49.9 97.3,49.9 97.3,49.9 97.3,50 97.3,50 97.3,50 97.4,50 
		97.4,50.1 	"/>
	<polygon class="st15" points="97.3,50.1 97.3,50.1 97.3,50.1 97.3,50.1 97.3,50.2 93.8,53.8 93.8,53.9 93.8,53.9 93.8,53.9 
		93.8,53.9 93.7,53.9 93.7,53.9 93.7,53.9 93.7,53.9 93.6,53.8 93.6,53.8 93.6,53.8 93.6,53.8 93.6,53.7 93.6,53.7 93.6,53.7 
		93.7,53.7 97.1,50 97.1,50 97.2,50 97.2,50 97.2,50 97.2,50 97.2,50 97.3,50 97.3,50 97.3,50 97.3,50 97.3,50.1 97.3,50.1 	"/>
	<polygon class="st13" points="97.3,50.1 97.3,50.1 97.3,50.1 97.3,50.1 97.3,50.2 93.8,53.8 93.8,53.9 93.8,53.9 93.8,53.9 
		93.8,53.9 93.7,53.9 93.7,53.9 93.7,53.9 93.7,53.9 93.6,53.8 93.6,53.8 93.6,53.8 93.6,53.8 93.6,53.7 93.6,53.7 93.6,53.7 
		93.7,53.7 97.1,50 97.1,50 97.2,50 97.2,50 97.2,50 97.2,50 97.2,50 97.3,50 97.3,50 97.3,50 97.3,50 97.3,50.1 97.3,50.1 	"/>
	<polygon class="st2" points="97.3,50.1 97.3,50.1 97.3,50.1 97.3,50.1 97.3,50.1 93.8,53.8 93.8,53.8 93.8,53.8 93.8,53.9 
		93.8,53.9 93.7,53.9 93.7,53.9 93.7,53.8 93.7,53.8 93.7,53.8 93.7,53.8 93.7,53.8 93.7,53.8 93.7,53.8 93.7,53.7 93.7,53.7 
		93.7,53.7 97.1,50 97.2,50 97.2,50 97.2,50 97.2,50 97.2,50 97.2,50 97.2,50 97.3,50 97.3,50 97.3,50 97.3,50.1 97.3,50.1 	"/>
	<polygon class="st13" points="97.3,50.1 97.3,50.1 97.3,50.1 97.3,50.1 97.3,50.1 93.8,53.8 93.8,53.8 93.8,53.8 93.8,53.9 
		93.8,53.9 93.7,53.9 93.7,53.9 93.7,53.8 93.7,53.8 93.7,53.8 93.7,53.8 93.7,53.8 93.7,53.8 93.7,53.8 93.7,53.7 93.7,53.7 
		93.7,53.7 97.1,50 97.2,50 97.2,50 97.2,50 97.2,50 97.2,50 97.2,50 97.2,50 97.3,50 97.3,50 97.3,50 97.3,50.1 97.3,50.1 	"/>
	<path class="st10" d="M109.6,65.5l-0.7,0.2v1.5c-1.1,0.3-1.3,0.4-2.1,1.4c-1.2,1.7-1.2,3.4-0.1,5.3l4-6.2l3.7,5.9
		c1.1-1.8,1.2-3.9,0.2-5.1c-0.5-0.6-1-1.2-2-1.5v-1.2l-0.5-0.2l-0.5,0c0.3-0.3,0.5-0.5,0.4-0.7c-0.1-0.1-0.3-0.1-0.5,0l0-0.6
		c0.4-0.3,0.6-0.6,0.5-0.8c-0.1-0.1-0.3-0.1-0.5,0l0-0.6c0.4-0.3,0.6-0.6,0.5-0.7c-0.1-0.1-0.3-0.1-0.5-0.1l0-0.6
		c0.4-0.3,0.6-0.6,0.5-0.7c-0.1-0.1-0.2-0.1-0.5-0.1l0-0.2l0.9-0.5v-0.9h-1.1V55h-0.8v4.1h-1.1v1l0.9,0.4l0,0.8
		c-0.6,0.4-0.9,0.8-0.8,1c0.1,0.1,0.4,0.1,0.8,0l0,0.5c-0.6,0.4-0.9,0.8-0.8,0.9c0.1,0.1,0.4,0.1,0.8,0l0,0.5
		c-0.6,0.4-0.9,0.8-0.8,0.9c0.1,0.1,0.4,0.1,0.8,0l0,0.5c0,0-0.1,0.1-0.1,0.1L109.6,65.5L109.6,65.5z"/>
	<path class="st7" d="M109.6,65.5l-0.7,0.2v1.5c-1.1,0.3-1.3,0.4-2.1,1.4c-1.2,1.7-1.2,3.4-0.1,5.3l4-6.2l3.7,5.9
		c1.1-1.8,1.2-3.9,0.2-5.1c-0.5-0.6-1-1.2-2-1.5v-1.2l-0.5-0.2l-0.5,0c0.3-0.3,0.5-0.5,0.4-0.7c-0.1-0.1-0.3-0.1-0.5,0l0-0.6
		c0.4-0.3,0.6-0.6,0.5-0.8c-0.1-0.1-0.3-0.1-0.5,0l0-0.6c0.4-0.3,0.6-0.6,0.5-0.7c-0.1-0.1-0.3-0.1-0.5-0.1l0-0.6
		c0.4-0.3,0.6-0.6,0.5-0.7c-0.1-0.1-0.2-0.1-0.5-0.1l0-0.2l0.9-0.5v-0.9h-1.1V55h-0.8v4.1h-1.1v1l0.9,0.4l0,0.8
		c-0.6,0.4-0.9,0.8-0.8,1c0.1,0.1,0.4,0.1,0.8,0l0,0.5c-0.6,0.4-0.9,0.8-0.8,0.9c0.1,0.1,0.4,0.1,0.8,0l0,0.5
		c-0.6,0.4-0.9,0.8-0.8,0.9c0.1,0.1,0.4,0.1,0.8,0l0,0.5c0,0-0.1,0.1-0.1,0.1L109.6,65.5L109.6,65.5z"/>
	<path class="st16" d="M110.7,64c0.3-0.2,0.6-0.3,0.7-0.2c0,0.1-0.2,0.3-0.5,0.5c-0.3,0.2-0.6,0.3-0.7,0.2
		C110.1,64.4,110.3,64.2,110.7,64L110.7,64z"/>
	<path class="st7" d="M110.7,64c0.3-0.2,0.6-0.3,0.7-0.2c0,0.1-0.2,0.3-0.5,0.5c-0.3,0.2-0.6,0.3-0.7,0.2
		C110.1,64.4,110.3,64.2,110.7,64L110.7,64z"/>
	<polygon class="st9" points="110.7,64 110.8,63.9 110.9,63.9 111,63.8 111.1,63.8 111.2,63.8 111.3,63.8 111.3,63.8 111.3,63.8 
		111.3,63.8 111.3,63.8 111.2,63.9 111.2,63.9 111.1,64 111,64.1 110.9,64.1 110.8,64.2 110.7,64.3 110.6,64.3 110.5,64.4 
		110.4,64.4 110.3,64.4 110.2,64.4 110.2,64.4 110.2,64.4 110.2,64.4 110.2,64.4 110.2,64.3 110.3,64.3 110.4,64.2 110.5,64.2 
		110.6,64.1 110.7,64 	"/>
	<polygon class="st13" points="110.7,64 110.8,63.9 110.9,63.9 111,63.8 111.1,63.8 111.2,63.8 111.3,63.8 111.3,63.8 111.3,63.8 
		111.3,63.8 111.3,63.8 111.2,63.9 111.2,63.9 111.1,64 111,64.1 110.9,64.1 110.8,64.2 110.7,64.3 110.6,64.3 110.5,64.4 
		110.4,64.4 110.3,64.4 110.2,64.4 110.2,64.4 110.2,64.4 110.2,64.4 110.2,64.4 110.2,64.3 110.3,64.3 110.4,64.2 110.5,64.2 
		110.6,64.1 110.7,64 	"/>
	<polygon class="st31" points="110.5,64.3 110.4,64.3 110.3,64.4 110.3,64.4 110.2,64.4 110.3,64.4 110.3,64.3 110.4,64.3 
		110.5,64.2 110.6,64.1 110.7,64 110.8,64 110.9,63.9 111,63.9 111.1,63.8 111.2,63.8 111.2,63.8 111.2,63.8 111.2,63.9 111.1,64 
		111,64 110.9,64.1 110.8,64.2 110.7,64.2 110.5,64.3 	"/>
	<polygon class="st13" points="110.5,64.3 110.4,64.3 110.3,64.4 110.3,64.4 110.2,64.4 110.3,64.4 110.3,64.3 110.4,64.3 
		110.5,64.2 110.6,64.1 110.7,64 110.8,64 110.9,63.9 111,63.9 111.1,63.8 111.2,63.8 111.2,63.8 111.2,63.8 111.2,63.9 111.1,64 
		111,64 110.9,64.1 110.8,64.2 110.7,64.2 110.5,64.3 	"/>
	<polygon class="st34" points="110.8,64.1 110.6,64.2 110.5,64.3 110.4,64.3 110.4,64.3 110.4,64.3 110.5,64.2 110.6,64.1 
		110.7,64.1 110.8,64 111,64 111.1,63.9 111.1,63.9 111.1,63.9 111,64 110.9,64.1 110.8,64.1 	"/>
	<polygon class="st13" points="110.8,64.1 110.6,64.2 110.5,64.3 110.4,64.3 110.4,64.3 110.4,64.3 110.5,64.2 110.6,64.1 
		110.7,64.1 110.8,64 111,64 111.1,63.9 111.1,63.9 111.1,63.9 111,64 110.9,64.1 110.8,64.1 	"/>
	<path class="st16" d="M110.6,62.6c0.3-0.2,0.6-0.3,0.7-0.2c0,0.1-0.2,0.3-0.5,0.5c-0.3,0.2-0.6,0.3-0.7,0.2
		C110.1,63,110.3,62.8,110.6,62.6L110.6,62.6z"/>
	<path class="st7" d="M110.6,62.6c0.3-0.2,0.6-0.3,0.7-0.2c0,0.1-0.2,0.3-0.5,0.5c-0.3,0.2-0.6,0.3-0.7,0.2
		C110.1,63,110.3,62.8,110.6,62.6L110.6,62.6z"/>
	<polygon class="st9" points="110.6,62.6 110.8,62.6 110.9,62.5 111,62.5 111.1,62.4 111.2,62.4 111.2,62.4 111.3,62.4 111.3,62.4 
		111.3,62.4 111.2,62.4 111.2,62.5 111.1,62.6 111.1,62.6 111,62.7 110.9,62.8 110.7,62.8 110.6,62.9 110.5,62.9 110.4,63 110.3,63 
		110.2,63.1 110.2,63.1 110.1,63.1 110.1,63.1 110.1,63.1 110.2,63 110.2,63 110.3,62.9 110.3,62.9 110.4,62.8 110.5,62.7 
		110.6,62.6 	"/>
	<polygon class="st13" points="110.6,62.6 110.8,62.6 110.9,62.5 111,62.5 111.1,62.4 111.2,62.4 111.2,62.4 111.3,62.4 111.3,62.4 
		111.3,62.4 111.2,62.4 111.2,62.5 111.1,62.6 111.1,62.6 111,62.7 110.9,62.8 110.7,62.8 110.6,62.9 110.5,62.9 110.4,63 110.3,63 
		110.2,63.1 110.2,63.1 110.1,63.1 110.1,63.1 110.1,63.1 110.2,63 110.2,63 110.3,62.9 110.3,62.9 110.4,62.8 110.5,62.7 
		110.6,62.6 	"/>
	<polygon class="st31" points="110.5,62.9 110.4,63 110.3,63 110.2,63 110.2,63 110.2,63 110.3,62.9 110.4,62.9 110.4,62.8 
		110.5,62.7 110.7,62.7 110.8,62.6 110.9,62.6 111,62.5 111.1,62.5 111.2,62.5 111.2,62.4 111.2,62.5 111.1,62.5 111,62.6 111,62.7 
		110.8,62.7 110.7,62.8 110.6,62.9 110.5,62.9 	"/>
	<polygon class="st13" points="110.5,62.9 110.4,63 110.3,63 110.2,63 110.2,63 110.2,63 110.3,62.9 110.4,62.9 110.4,62.8 
		110.5,62.7 110.7,62.7 110.8,62.6 110.9,62.6 111,62.5 111.1,62.5 111.2,62.5 111.2,62.4 111.2,62.5 111.1,62.5 111,62.6 111,62.7 
		110.8,62.7 110.7,62.8 110.6,62.9 110.5,62.9 	"/>
	<polygon class="st34" points="110.7,62.8 110.6,62.8 110.5,62.9 110.4,62.9 110.3,62.9 110.4,62.9 110.5,62.8 110.6,62.8 
		110.7,62.7 110.8,62.6 110.9,62.6 111,62.5 111.1,62.5 111,62.6 110.9,62.6 110.8,62.7 110.7,62.8 	"/>
	<polygon class="st13" points="110.7,62.8 110.6,62.8 110.5,62.9 110.4,62.9 110.3,62.9 110.4,62.9 110.5,62.8 110.6,62.8 
		110.7,62.7 110.8,62.6 110.9,62.6 111,62.5 111.1,62.5 111,62.6 110.9,62.6 110.8,62.7 110.7,62.8 	"/>
	<path class="st16" d="M110.6,61.2c0.3-0.2,0.6-0.3,0.7-0.2c0,0.1-0.2,0.3-0.5,0.5c-0.3,0.2-0.6,0.3-0.7,0.2
		C110.1,61.6,110.3,61.4,110.6,61.2L110.6,61.2z"/>
	<path class="st7" d="M110.6,61.2c0.3-0.2,0.6-0.3,0.7-0.2c0,0.1-0.2,0.3-0.5,0.5c-0.3,0.2-0.6,0.3-0.7,0.2
		C110.1,61.6,110.3,61.4,110.6,61.2L110.6,61.2z"/>
	<polygon class="st9" points="110.6,61.2 110.8,61.2 110.9,61.1 111,61.1 111.1,61 111.2,61 111.2,61 111.3,61 111.3,61 111.3,61 
		111.2,61 111.2,61.1 111.1,61.1 111.1,61.2 111,61.3 110.9,61.3 110.7,61.4 110.6,61.5 110.5,61.5 110.4,61.6 110.3,61.6 
		110.2,61.6 110.2,61.6 110.1,61.6 110.1,61.6 110.1,61.6 110.2,61.6 110.2,61.6 110.3,61.5 110.3,61.4 110.4,61.4 110.5,61.3 
		110.6,61.2 	"/>
	<polygon class="st13" points="110.6,61.2 110.8,61.2 110.9,61.1 111,61.1 111.1,61 111.2,61 111.2,61 111.3,61 111.3,61 111.3,61 
		111.2,61 111.2,61.1 111.1,61.1 111.1,61.2 111,61.3 110.9,61.3 110.7,61.4 110.6,61.5 110.5,61.5 110.4,61.6 110.3,61.6 
		110.2,61.6 110.2,61.6 110.1,61.6 110.1,61.6 110.1,61.6 110.2,61.6 110.2,61.6 110.3,61.5 110.3,61.4 110.4,61.4 110.5,61.3 
		110.6,61.2 	"/>
	<polygon class="st31" points="110.5,61.5 110.4,61.5 110.3,61.6 110.2,61.6 110.2,61.6 110.2,61.6 110.3,61.5 110.4,61.5 
		110.4,61.4 110.5,61.3 110.7,61.3 110.8,61.2 110.9,61.1 111,61.1 111.1,61.1 111.2,61 111.2,61 111.2,61.1 111.1,61.1 111,61.2 
		111,61.2 110.8,61.3 110.7,61.4 110.6,61.4 110.5,61.5 	"/>
	<polygon class="st13" points="110.5,61.5 110.4,61.5 110.3,61.6 110.2,61.6 110.2,61.6 110.2,61.6 110.3,61.5 110.4,61.5 
		110.4,61.4 110.5,61.3 110.7,61.3 110.8,61.2 110.9,61.1 111,61.1 111.1,61.1 111.2,61 111.2,61 111.2,61.1 111.1,61.1 111,61.2 
		111,61.2 110.8,61.3 110.7,61.4 110.6,61.4 110.5,61.5 	"/>
	<polygon class="st34" points="110.7,61.3 110.6,61.4 110.5,61.5 110.4,61.5 110.3,61.5 110.4,61.5 110.5,61.4 110.6,61.4 
		110.7,61.3 110.8,61.2 110.9,61.2 111,61.1 111.1,61.1 111,61.1 110.9,61.2 110.8,61.3 110.7,61.3 	"/>
	<polygon class="st13" points="110.7,61.3 110.6,61.4 110.5,61.5 110.4,61.5 110.3,61.5 110.4,61.5 110.5,61.4 110.6,61.4 
		110.7,61.3 110.8,61.2 110.9,61.2 111,61.1 111.1,61.1 111,61.1 110.9,61.2 110.8,61.3 110.7,61.3 	"/>
	<polygon class="st16" points="110.2,59.4 109.9,59.4 109.9,59.8 110.2,60.1 110.2,59.4 	"/>
	<polygon class="st7" points="110.2,59.4 109.9,59.4 109.9,59.8 110.2,60.1 110.2,59.4 	"/>
	<polygon class="st35" points="110.2,59.4 109.9,59.4 109.9,59.8 110.2,60 110.2,59.4 	"/>
	<polygon class="st13" points="110.2,59.4 109.9,59.4 109.9,59.8 110.2,60 110.2,59.4 	"/>
	<polygon class="st36" points="110.2,59.5 110,59.5 110,59.8 110.2,59.9 110.2,59.5 	"/>
	<polygon class="st13" points="110.2,59.5 110,59.5 110,59.8 110.2,59.9 110.2,59.5 	"/>
	<polygon class="st37" points="110.1,59.5 110,59.5 110,59.7 110.1,59.8 110.1,59.5 	"/>
	<polygon class="st13" points="110.1,59.5 110,59.5 110,59.7 110.1,59.8 110.1,59.5 	"/>
	<polygon class="st34" points="110.1,59.6 110.1,59.6 110.1,59.7 110.1,59.8 110.1,59.6 	"/>
	<polygon class="st13" points="110.1,59.6 110.1,59.6 110.1,59.7 110.1,59.8 110.1,59.6 	"/>
	<polygon class="st16" points="109.3,66.1 109.7,66.1 109.7,67.2 109.3,67.2 109.3,66.1 	"/>
	<polygon class="st7" points="109.3,66.1 109.7,66.1 109.7,67.2 109.3,67.2 109.3,66.1 	"/>
	<rect x="109.4" y="66.2" class="st17" width="0.3" height="1"/>
	<rect x="109.4" y="66.2" class="st13" width="0.3" height="1"/>
	<rect x="109.4" y="66.2" class="st19" width="0.2" height="0.9"/>
	<rect x="109.4" y="66.2" class="st13" width="0.2" height="0.9"/>
	<rect x="109.4" y="66.2" class="st21" width="0.1" height="0.9"/>
	<rect x="109.4" y="66.2" class="st13" width="0.1" height="0.9"/>
	<rect x="109.5" y="66.3" class="st2" width="0" height="0.8"/>
	<rect x="109.5" y="66.3" class="st13" width="0" height="0.8"/>
	<path class="st38" d="M113.6,68c0,0,0.9,0.6,1.2,1.6c0,0-0.2,0.6-0.5-0.1c0,0-0.2-0.7-0.7-0.9C112.6,68,113.6,68,113.6,68L113.6,68
		z"/>
	<path class="st7" d="M113.6,68c0,0,0.9,0.6,1.2,1.6c0,0-0.2,0.6-0.5-0.1c0,0-0.2-0.7-0.7-0.9C112.6,68,113.6,68,113.6,68L113.6,68z
		"/>
	<path class="st39" d="M113.6,68.1c0,0,0.1,0.1,0.1,0.1l0.1,0.1l0.1,0.1l0.1,0.1l0.1,0.1l0.1,0.1l0.1,0.1l0.1,0.1l0.1,0.1l0.1,0.2
		l0.1,0.2l0.1,0.2l0,0.2l0,0l0,0l0,0.1l0,0l-0.1,0l-0.1,0l-0.1-0.1l-0.1-0.2l0,0l0-0.1l0-0.1l-0.1-0.1L114,69l-0.1-0.2l-0.2-0.1
		l-0.2-0.1l-0.2-0.2l-0.1-0.1l0-0.1l0.1,0l0.1,0l0.1,0H113.6L113.6,68.1L113.6,68.1z"/>
	<path class="st40" d="M113.6,68.1c0,0,0.1,0.1,0.1,0.1l0.1,0.1l0.1,0.1l0.1,0.1l0.1,0.1l0.1,0.1l0.1,0.1l0.1,0.1l0.1,0.1l0.1,0.2
		l0.1,0.2l0.1,0.2l0,0.2l0,0l0,0l0,0.1l0,0l-0.1,0l-0.1,0l-0.1-0.1l-0.1-0.2l0,0l0-0.1l0-0.1l-0.1-0.1L114,69l-0.1-0.2l-0.2-0.1
		l-0.2-0.1l-0.2-0.2l-0.1-0.1l0-0.1l0.1,0l0.1,0l0.1,0H113.6L113.6,68.1L113.6,68.1z"/>
	<polygon class="st41" points="113.8,68.3 113.9,68.3 114,68.4 114,68.5 114.1,68.6 114.2,68.7 114.3,68.9 114.4,69 114.5,69.2 
		114.6,69.3 114.6,69.5 114.7,69.7 114.7,69.7 114.6,69.8 114.6,69.8 114.6,69.8 114.5,69.8 114.4,69.7 114.3,69.5 114.3,69.5 
		114.3,69.4 114.2,69.3 114.1,69.1 114,69 113.9,68.8 113.8,68.7 113.6,68.5 113.3,68.4 113.2,68.2 113.2,68.2 113.3,68.2 
		113.4,68.1 113.5,68.1 113.6,68.1 113.6,68.1 113.6,68.2 113.7,68.2 113.8,68.3 	"/>
	<polygon class="st40" points="113.8,68.3 113.9,68.3 114,68.4 114,68.5 114.1,68.6 114.2,68.7 114.3,68.9 114.4,69 114.5,69.2 
		114.6,69.3 114.6,69.5 114.7,69.7 114.7,69.7 114.6,69.8 114.6,69.8 114.6,69.8 114.5,69.8 114.4,69.7 114.3,69.5 114.3,69.5 
		114.3,69.4 114.2,69.3 114.1,69.1 114,69 113.9,68.8 113.8,68.7 113.6,68.5 113.3,68.4 113.2,68.2 113.2,68.2 113.3,68.2 
		113.4,68.1 113.5,68.1 113.6,68.1 113.6,68.1 113.6,68.2 113.7,68.2 113.8,68.3 	"/>
	<path class="st36" d="M113.8,68.3L113.8,68.3l0.2,0.2l0.1,0.1l0.1,0.1l0.1,0.1l0.1,0.1l0.1,0.1l0.1,0.2l0.1,0.2l0.1,0.2l0,0.2l0,0
		l0,0l0,0l0,0l0,0l-0.1-0.1l-0.1-0.2l0,0l0-0.1l-0.1-0.1l-0.1-0.2l-0.1-0.2l-0.1-0.2l-0.2-0.1l-0.2-0.1l-0.2-0.2l-0.1-0.1l0,0l0,0
		l0.1,0l0.1,0h0.1C113.6,68.2,113.6,68.2,113.8,68.3L113.8,68.3L113.8,68.3z"/>
	<path class="st40" d="M113.8,68.3L113.8,68.3l0.2,0.2l0.1,0.1l0.1,0.1l0.1,0.1l0.1,0.1l0.1,0.1l0.1,0.2l0.1,0.2l0.1,0.2l0,0.2l0,0
		l0,0l0,0l0,0l0,0l-0.1-0.1l-0.1-0.2l0,0l0-0.1l-0.1-0.1l-0.1-0.2l-0.1-0.2l-0.1-0.2l-0.2-0.1l-0.2-0.1l-0.2-0.2l-0.1-0.1l0,0l0,0
		l0.1,0l0.1,0h0.1C113.6,68.2,113.6,68.2,113.8,68.3L113.8,68.3L113.8,68.3z"/>
	<polygon class="st42" points="114.4,69.2 114.5,69.4 114.6,69.5 114.6,69.7 114.6,69.7 114.6,69.7 114.6,69.7 114.5,69.7 
		114.5,69.7 114.4,69.5 114.4,69.5 114.3,69.4 114.3,69.2 114.2,69.1 114.1,68.9 114,68.7 113.8,68.6 113.6,68.5 113.4,68.3 
		113.3,68.2 113.4,68.2 113.5,68.2 113.6,68.2 113.6,68.2 113.7,68.3 113.7,68.3 113.8,68.4 113.9,68.5 114,68.6 114.1,68.7 
		114.2,68.8 114.3,68.9 114.4,69 114.4,69.2 	"/>
	<polygon class="st40" points="114.4,69.2 114.5,69.4 114.6,69.5 114.6,69.7 114.6,69.7 114.6,69.7 114.6,69.7 114.5,69.7 
		114.5,69.7 114.4,69.5 114.4,69.5 114.3,69.4 114.3,69.2 114.2,69.1 114.1,68.9 114,68.7 113.8,68.6 113.6,68.5 113.4,68.3 
		113.3,68.2 113.4,68.2 113.5,68.2 113.6,68.2 113.6,68.2 113.7,68.3 113.7,68.3 113.8,68.4 113.9,68.5 114,68.6 114.1,68.7 
		114.2,68.8 114.3,68.9 114.4,69 114.4,69.2 	"/>
	<polygon class="st43" points="114.4,69.5 114.4,69.4 114.3,69.2 114.2,69.1 114.1,68.9 114,68.7 113.8,68.6 113.6,68.5 113.4,68.3 
		113.4,68.2 113.5,68.2 113.5,68.2 113.6,68.3 113.6,68.3 113.7,68.4 113.8,68.4 113.9,68.5 114,68.6 114.1,68.7 114.1,68.8 
		114.2,68.9 114.3,69.1 114.4,69.2 114.5,69.4 114.5,69.5 114.6,69.7 114.6,69.7 114.5,69.6 114.4,69.5 114.4,69.5 	"/>
	<polygon class="st40" points="114.4,69.5 114.4,69.4 114.3,69.2 114.2,69.1 114.1,68.9 114,68.7 113.8,68.6 113.6,68.5 113.4,68.3 
		113.4,68.2 113.5,68.2 113.5,68.2 113.6,68.3 113.6,68.3 113.7,68.4 113.8,68.4 113.9,68.5 114,68.6 114.1,68.7 114.1,68.8 
		114.2,68.9 114.3,69.1 114.4,69.2 114.5,69.4 114.5,69.5 114.6,69.7 114.6,69.7 114.5,69.6 114.4,69.5 114.4,69.5 	"/>
	<path class="st2" d="M113.5,68.3L113.5,68.3L113.5,68.3l0.1,0.1l0.1,0.1l0.1,0.1l0.1,0.1l0.1,0.1l0,0l-0.1-0.1l-0.2-0.1L113.5,68.3
		L113.5,68.3L113.5,68.3z M114,68.7L114,68.7l0.1,0.2l0.1,0.1l0.1,0.1l-0.1-0.2L114,68.7L114,68.7L114,68.7z M114.3,69.1L114.3,69.1
		l0.1,0.2l0.1,0.2l0.1,0.2l-0.1-0.1l0-0.1l-0.1-0.1L114.3,69.1z"/>
	<path class="st40" d="M113.5,68.3L113.5,68.3L113.5,68.3l0.1,0.1l0.1,0.1l0.1,0.1l0.1,0.1l0.1,0.1l0,0l-0.1-0.1l-0.2-0.1
		L113.5,68.3L113.5,68.3L113.5,68.3z M114,68.7L114,68.7l0.1,0.2l0.1,0.1l0.1,0.1l-0.1-0.2L114,68.7L114,68.7L114,68.7z M114.3,69.1
		L114.3,69.1l0.1,0.2l0.1,0.2l0.1,0.2l-0.1-0.1l0-0.1l-0.1-0.1L114.3,69.1z"/>
	<polygon class="st11" points="110.6,55.3 110.8,55.3 110.8,59 110.6,59 110.6,55.3 	"/>
	<polygon class="st7" points="110.6,55.3 110.8,55.3 110.8,59 110.6,59 110.6,55.3 	"/>
	<rect x="110.6" y="55.3" class="st9" width="0.1" height="3.6"/>
	<rect x="110.6" y="55.3" class="st13" width="0.1" height="3.6"/>
	<rect x="110.6" y="55.3" class="st34" width="0.1" height="3.6"/>
	<rect x="110.6" y="55.3" class="st13" width="0.1" height="3.6"/>
	<path class="st11" d="M108.1,68.4c0,0-0.4-0.1-0.6,0.2c0,0-1.2,0.9-1.2,2.7c0,0,0.1,0.8,0.3,0.9c0,0,0.3,0.1,0.1-0.9
		c0,0-0.4-0.9,1-2.4C108.2,68.7,108.1,68.4,108.1,68.4L108.1,68.4z"/>
	<path class="st7" d="M108.1,68.4c0,0-0.4-0.1-0.6,0.2c0,0-1.2,0.9-1.2,2.7c0,0,0.1,0.8,0.3,0.9c0,0,0.3,0.1,0.1-0.9
		c0,0-0.4-0.9,1-2.4C108.2,68.7,108.1,68.4,108.1,68.4L108.1,68.4z"/>
	<path class="st16" d="M107.6,68.5L107.6,68.5l-0.1,0.1l-0.1,0.1l-0.1,0.1l-0.1,0.1l-0.1,0.1l-0.1,0.1l-0.1,0.2l-0.1,0.2l-0.1,0.2
		l-0.1,0.2l-0.1,0.2l-0.1,0.3l-0.1,0.3l0,0.3l0,0.3l0,0.1l0,0.1l0,0.2l0,0.2l0.1,0.1l0.1,0.1l0.1,0l0,0l0,0l0,0l0-0.1l0-0.2l0-0.2
		l-0.1-0.3c0,0,0-0.1,0-0.1l0-0.1l0-0.1l0-0.1l0-0.1l0-0.1l0-0.2l0.1-0.2l0.1-0.2l0.1-0.2l0.1-0.2l0.2-0.2l0.2-0.3l0.3-0.3l0.2-0.1
		l0.1-0.1l0.1-0.1l0-0.1l0-0.1l0,0l0,0l0,0l-0.1,0l-0.1,0l-0.1,0L107.6,68.5L107.6,68.5L107.6,68.5z"/>
	<path class="st44" d="M107.6,68.5L107.6,68.5l-0.1,0.1l-0.1,0.1l-0.1,0.1l-0.1,0.1l-0.1,0.1l-0.1,0.1l-0.1,0.2l-0.1,0.2l-0.1,0.2
		l-0.1,0.2l-0.1,0.2l-0.1,0.3l-0.1,0.3l0,0.3l0,0.3l0,0.1l0,0.1l0,0.2l0,0.2l0.1,0.1l0.1,0.1l0.1,0l0,0l0,0l0,0l0-0.1l0-0.2l0-0.2
		l-0.1-0.3c0,0,0-0.1,0-0.1l0-0.1l0-0.1l0-0.1l0-0.1l0-0.1l0-0.2l0.1-0.2l0.1-0.2l0.1-0.2l0.1-0.2l0.2-0.2l0.2-0.3l0.3-0.3l0.2-0.1
		l0.1-0.1l0.1-0.1l0-0.1l0-0.1l0,0l0,0l0,0l-0.1,0l-0.1,0l-0.1,0L107.6,68.5L107.6,68.5L107.6,68.5z"/>
	<polygon class="st9" points="107.4,68.7 107.3,68.8 107.3,68.9 107.1,69 107,69.1 106.9,69.3 106.8,69.5 106.7,69.7 106.6,69.9 
		106.5,70.1 106.5,70.4 106.4,70.7 106.4,71 106.4,71.3 106.4,71.4 106.4,71.6 106.4,71.7 106.5,71.9 106.5,72 106.6,72.1 
		106.6,72.1 106.6,72.1 106.6,72.1 106.7,72 106.7,71.8 106.7,71.6 106.6,71.3 106.6,71.3 106.6,71.2 106.6,71.1 106.5,71 
		106.5,70.9 106.6,70.8 106.6,70.6 106.6,70.5 106.7,70.3 106.8,70.1 106.9,69.9 107,69.7 107.2,69.4 107.4,69.1 107.6,68.9 
		107.8,68.8 107.9,68.7 108,68.6 108,68.6 108,68.5 108,68.5 108,68.5 107.9,68.5 107.8,68.5 107.8,68.5 107.7,68.5 107.6,68.5 
		107.5,68.6 107.5,68.7 107.4,68.7 	"/>
	<polygon class="st44" points="107.4,68.7 107.3,68.8 107.3,68.9 107.1,69 107,69.1 106.9,69.3 106.8,69.5 106.7,69.7 106.6,69.9 
		106.5,70.1 106.5,70.4 106.4,70.7 106.4,71 106.4,71.3 106.4,71.4 106.4,71.6 106.4,71.7 106.5,71.9 106.5,72 106.6,72.1 
		106.6,72.1 106.6,72.1 106.6,72.1 106.7,72 106.7,71.8 106.7,71.6 106.6,71.3 106.6,71.3 106.6,71.2 106.6,71.1 106.5,71 
		106.5,70.9 106.6,70.8 106.6,70.6 106.6,70.5 106.7,70.3 106.8,70.1 106.9,69.9 107,69.7 107.2,69.4 107.4,69.1 107.6,68.9 
		107.8,68.8 107.9,68.7 108,68.6 108,68.6 108,68.5 108,68.5 108,68.5 107.9,68.5 107.8,68.5 107.8,68.5 107.7,68.5 107.6,68.5 
		107.5,68.6 107.5,68.7 107.4,68.7 	"/>
	<path class="st31" d="M107.1,69.2l-0.1,0.2l-0.1,0.2l-0.1,0.2l-0.1,0.2l-0.1,0.2l-0.1,0.3l-0.1,0.3l0,0.3l0,0.3c0,0.1,0,0.2,0,0.3
		l0,0.1l0,0.2l0,0.1l0,0.1h0v0l0-0.1l0-0.1l0-0.2l-0.1-0.3l0,0l0-0.1l0-0.1l0-0.1l0-0.1l0-0.1l0-0.2l0-0.2l0.1-0.2l0.1-0.2l0.1-0.2
		l0.1-0.2l0.2-0.2l0.2-0.3l0.3-0.3l0.2-0.1l0.1-0.1l0.1-0.1l0,0l0,0l0,0l-0.1,0l-0.1,0l-0.1,0l-0.1,0l-0.1,0l-0.1,0.1l-0.1,0
		l-0.1,0.1l-0.1,0.1l-0.1,0.1l-0.1,0.1L107.1,69.2L107.1,69.2z"/>
	<path class="st44" d="M107.1,69.2l-0.1,0.2l-0.1,0.2l-0.1,0.2l-0.1,0.2l-0.1,0.2l-0.1,0.3l-0.1,0.3l0,0.3l0,0.3c0,0.1,0,0.2,0,0.3
		l0,0.1l0,0.2l0,0.1l0,0.1h0v0l0-0.1l0-0.1l0-0.2l-0.1-0.3l0,0l0-0.1l0-0.1l0-0.1l0-0.1l0-0.1l0-0.2l0-0.2l0.1-0.2l0.1-0.2l0.1-0.2
		l0.1-0.2l0.2-0.2l0.2-0.3l0.3-0.3l0.2-0.1l0.1-0.1l0.1-0.1l0,0l0,0l0,0l-0.1,0l-0.1,0l-0.1,0l-0.1,0l-0.1,0l-0.1,0.1l-0.1,0
		l-0.1,0.1l-0.1,0.1l-0.1,0.1l-0.1,0.1L107.1,69.2L107.1,69.2z"/>
	<polygon class="st34" points="106.5,71.3 106.5,71.4 106.5,71.6 106.5,71.7 106.5,71.8 106.6,72 106.6,71.8 106.6,71.6 106.5,71.3 
		106.5,71.3 106.5,71.2 106.5,71.1 106.5,71 106.5,70.9 106.5,70.8 106.5,70.6 106.5,70.5 106.6,70.3 106.7,70.1 106.8,69.8 
		106.9,69.6 107.1,69.4 107.3,69.1 107.6,68.8 107.8,68.7 107.9,68.6 107.9,68.6 107.9,68.5 107.9,68.5 107.9,68.5 107.8,68.5 
		107.8,68.5 107.7,68.6 107.7,68.6 107.6,68.7 107.5,68.7 107.5,68.8 107.4,68.8 107.3,68.9 107.2,69 107.1,69.2 107,69.3 
		106.9,69.5 106.8,69.7 106.7,69.9 106.6,70.2 106.5,70.4 106.5,70.7 106.5,71 106.4,71.3 106.5,71.3 	"/>
	<polygon class="st44" points="106.5,71.3 106.5,71.4 106.5,71.6 106.5,71.7 106.5,71.8 106.6,72 106.6,71.8 106.6,71.6 106.5,71.3 
		106.5,71.3 106.5,71.2 106.5,71.1 106.5,71 106.5,70.9 106.5,70.8 106.5,70.6 106.5,70.5 106.6,70.3 106.7,70.1 106.8,69.8 
		106.9,69.6 107.1,69.4 107.3,69.1 107.6,68.8 107.8,68.7 107.9,68.6 107.9,68.6 107.9,68.5 107.9,68.5 107.9,68.5 107.8,68.5 
		107.8,68.5 107.7,68.6 107.7,68.6 107.6,68.7 107.5,68.7 107.5,68.8 107.4,68.8 107.3,68.9 107.2,69 107.1,69.2 107,69.3 
		106.9,69.5 106.8,69.7 106.7,69.9 106.6,70.2 106.5,70.4 106.5,70.7 106.5,71 106.4,71.3 106.5,71.3 	"/>
	<path class="st7" d="M101.7,47v31 M112.7,51.5L90.8,73.4 M86.2,62.5h31 M90.8,51.5l21.9,21.9"/>
	<path class="st2" d="M82.4,62.4c0.1,0.1,0.2,0.3,0.2,0.4c0.2,0.3,0.4,0.5,0.5,0.8c0,0.1,0,0.3,0,0.4c-0.1,0.4-0.1,0.8-0.3,1.1
		c-0.2,0.3-0.5,0.4-0.9,0.4c-0.7,0-1.2-0.7-1.1-1.6c0.1-0.6,0.1-1.1,0.5-1.4c0.1-0.1,0.2-0.3,0.4-0.3c0,0,0-0.1,0.3-0.1
		c0.3-0.1,0.7-0.5,0.7-1.2c0-0.6-0.1-1.3-0.5-1.3c-0.4,0-0.7,0.6-0.7,1.3c0,0.6,0.1,1,0.6,1.1c0,0-0.4,0.1-0.5,0.2
		c-0.1-0.2-0.2-0.2-0.4-0.4c-0.2-0.2-0.2-0.6-0.2-0.9c0.1-1.1,0.5-1.5,1.2-1.7c0.6,0,1,0.7,1,1.7C83.3,61.7,82.7,62.2,82.4,62.4
		c-0.7,0.3-1,1-1,1.6c0,0.6,0.1,1.3,0.6,1.3c0.5,0,0.7-0.6,0.6-1.3c-0.1-0.4-0.4-1.2-0.7-1.3C82,62.6,82.4,62.4,82.4,62.4L82.4,62.4
		z"/>
	<path class="st7" d="M82.4,62.4c0.1,0.1,0.2,0.3,0.2,0.4c0.2,0.3,0.4,0.5,0.5,0.8c0,0.1,0,0.3,0,0.4c-0.1,0.4-0.1,0.8-0.3,1.1
		c-0.2,0.3-0.5,0.4-0.9,0.4c-0.7,0-1.2-0.7-1.1-1.6c0.1-0.6,0.1-1.1,0.5-1.4c0.1-0.1,0.2-0.3,0.4-0.3c0,0,0-0.1,0.3-0.1
		c0.3-0.1,0.7-0.5,0.7-1.2c0-0.6-0.1-1.3-0.5-1.3c-0.4,0-0.7,0.6-0.7,1.3c0,0.6,0.1,1,0.6,1.1c0,0-0.4,0.1-0.5,0.2
		c-0.1-0.2-0.2-0.2-0.4-0.4c-0.2-0.2-0.2-0.6-0.2-0.9c0.1-1.1,0.5-1.5,1.2-1.7c0.6,0,1,0.7,1,1.7C83.3,61.7,82.7,62.2,82.4,62.4
		c-0.7,0.3-1,1-1,1.6c0,0.6,0.1,1.3,0.6,1.3c0.5,0,0.7-0.6,0.6-1.3c-0.1-0.4-0.4-1.2-0.7-1.3C82,62.6,82.4,62.4,82.4,62.4L82.4,62.4
		z"/>
	<path class="st45" d="M82.7,64.6c0,0-0.1,0.2,0.4,0.1"/>
	<path class="st27" d="M82.9,60.2c0,0-0.1-0.2,0.4-0.1"/>
	<path class="st45" d="M81.5,64.7c0,0,0.1,0.3-0.4,0.1"/>
	<path class="st27" d="M81.6,60.2c0,0,0.1-0.2-0.4-0.1"/>
	<path class="st45" d="M82.5,65c0,0-0.1,0.3,0.4,0.1"/>
	<path class="st27" d="M82.7,59.9c0,0-0.1-0.2,0.4-0.1"/>
	<path class="st45" d="M81.7,65c0,0,0.1,0.3-0.4,0.1"/>
	<path class="st27" d="M81.8,59.9c0,0,0.1-0.2-0.4-0.1"/>
	<path class="st46" d="M82.6,59.7c0,0-0.1-0.5,0.4-0.2"/>
	<path class="st47" d="M81.8,65.1c0,0,0.1,0.5-0.4,0.2"/>
	<path class="st46" d="M82,59.7c0,0,0.1-0.5-0.4-0.2"/>
	<path class="st48" d="M82.1,65.1c0,0-0.4,0.4,0.1,0.5"/>
	<path class="st47" d="M82.4,59.8c0,0-0.4-0.4,0.1-0.5"/>
	<path class="st45" d="M82.8,64.3c0,0-0.1,0.2,0.3,0.1"/>
	<path class="st27" d="M82.9,60.6c0,0-0.1-0.2,0.4-0.1 M81.4,64.3c0,0,0.1,0.3-0.4,0.1 M81.6,60.6c0,0,0.1-0.2-0.4-0.1"/>
	<path class="st49" d="M82.8,64c0,0,0,0.3,0.3-0.1"/>
	<path class="st27" d="M82.9,60.9c0,0-0.1-0.2,0.4-0.1"/>
	<path class="st45" d="M81.3,63.9c0,0,0.1,0.3-0.4,0.1"/>
	<path class="st27" d="M81.5,60.9c0,0,0.1-0.2-0.4-0.1"/>
	<path class="st50" d="M82.7,63.6c0,0,0,0.3,0.4-0.1"/>
	<path class="st27" d="M82.9,61.3c0,0-0.1-0.2,0.4-0.1"/>
	<path class="st45" d="M81.4,63.5c0,0,0.1,0.3-0.4,0.1"/>
	<path class="st27" d="M81.5,61.3c0,0,0.1-0.2-0.4-0.1"/>
	<path class="st45" d="M82.6,63.4c0,0,0.2,0.2,0.3-0.3"/>
	<path class="st51" d="M82.8,61.5c0,0,0.2-0.2,0.3,0.2"/>
	<path class="st45" d="M81.5,63.2c0,0-0.2,0.2-0.3-0.3 M81.7,61.5c0,0-0.2-0.2-0.3,0.2 M82.4,63.1c0,0,0.2,0.2,0.3-0.3"/>
	<path class="st51" d="M82.6,61.7c0,0,0.2-0.2,0.3,0.2"/>
	<path class="st45" d="M81.7,63c0,0-0.2,0.2-0.3-0.3"/>
	<path class="st51" d="M81.9,61.8c0,0-0.2-0.2-0.3,0.2"/>
	<path class="st45" d="M82.2,62.7c0,0,0.1,0.2,0.3-0.2 M81.8,62.7c0,0-0.2,0.2-0.3-0.2 M82,62.6c0,0-0.2,0-0.3-0.4 M82.8,62.1
		c0,0-0.2,0.2-0.3-0.2 M82.5,62.3c0,0-0.2,0.2-0.3-0.2"/>
	<path class="st2" d="M82.4,61.9c0-1.9,0-2.6,0.1-2.9c0.1-0.6,0-0.8-0.3-0.7c-0.4,1-0.3,1.6-0.3,3.5c0.3,0.2,0.4,0.2,0.4,0.2
		L82.4,61.9L82.4,61.9z"/>
	<path class="st7" d="M82.4,61.9c0-1.9,0-2.6,0.1-2.9c0.1-0.6,0-0.8-0.3-0.7c-0.4,1-0.3,1.6-0.3,3.5c0.3,0.2,0.4,0.2,0.4,0.2
		L82.4,61.9L82.4,61.9z"/>
	<path class="st2" d="M82.4,63.1c0,0.8-0.1,1.8,0.1,2.4c0.1,0.5,0,0.8-0.4,0.7c-0.3-0.2-0.3-1.9-0.2-3.5c0.1-0.2,0.4,0.1,0.4,0.1
		L82.4,63.1L82.4,63.1z"/>
	<path class="st7" d="M82.4,63.1c0,0.8-0.1,1.8,0.1,2.4c0.1,0.5,0,0.8-0.4,0.7c-0.3-0.2-0.3-1.9-0.2-3.5c0.1-0.2,0.4,0.1,0.4,0.1
		L82.4,63.1L82.4,63.1z"/>
	<path class="st27" d="M81.9,63.2c0,0-0.1,0.3,0.5,0.1 M81.9,63.6c0,0-0.1,0.3,0.5,0.1"/>
	<path class="st52" d="M81.8,64c0,0,0.2,0.3,0.6,0"/>
	<path class="st47" d="M81.8,64.3c0,0,0.3,0.5,0.6,0"/>
	<path class="st27" d="M81.9,62.8c0,0-0.1,0.3,0.5,0.1"/>
	<path class="st51" d="M81.9,65.8c0,0-0.1,0.3,0.6,0.2"/>
	<path class="st49" d="M81.9,65.5c0,0-0.1,0.3,0.7,0.2"/>
	<path class="st50" d="M81.9,60.3c0,0-0.1,0.3,0.5,0.1"/>
	<path class="st53" d="M81.9,65.1c0,0,0,0.3,0.6,0.1"/>
	<path class="st50" d="M81.9,59.9c0,0-0.1,0.2,0.5,0.1"/>
	<path class="st53" d="M81.9,61.7c0,0,0.1,0.3,0.5-0.1"/>
	<path class="st54" d="M81.8,64.7c0,0,0.1,0.3,0.6,0"/>
	<path class="st49" d="M81.9,59.6c0,0,0.1,0.3,0.5-0.1 M81.8,61.2c0,0,0.1,0.3,0.6-0.1 M82,59.1c0,0,0.1,0.3,0.5-0.1"/>
	<path class="st55" d="M81.8,60.7c0,0,0.2,0.3,0.6,0"/>
	<path class="st53" d="M82,58.6c0,0,0.1,0.3,0.5-0.1"/>
	<path class="st2" d="M121.4,61.5c0.1-1.2,0.1-1.2,0.2-1.6c0.3-0.7,0.6-0.9,0.6-0.9c0.1-0.3,0-0.4-0.3-0.4c-0.3,0.2-0.2,0.2-0.5,0.5
		c-0.3,0.4-0.4,0.6-0.6,2c0,0.2-0.1,0.5,0.1,0.7c0.2,0.3,0.1,0,0.1,0L121.4,61.5L121.4,61.5z"/>
	<path class="st50" d="M121.4,61.5c0.1-1.2,0.1-1.2,0.2-1.6c0.3-0.7,0.6-0.9,0.6-0.9c0.1-0.3,0-0.4-0.3-0.4
		c-0.3,0.2-0.2,0.2-0.5,0.5c-0.3,0.4-0.4,0.6-0.6,2c0,0.2-0.1,0.5,0.1,0.7c0.2,0.3,0.1,0,0.1,0L121.4,61.5L121.4,61.5z"/>
	<path class="st51" d="M121.2,59.9c0,0-0.2,0.2,0.3,0.3"/>
	<path class="st45" d="M121.3,59.5c0,0-0.2,0.2,0.4,0.3"/>
	<path class="st49" d="M121,61.3c0,0,0,0.3,0.5,0.1"/>
	<path class="st56" d="M121.5,59c0,0-0.1,0.3,0.4,0.4"/>
	<path class="st54" d="M121,60.9c0,0,0,0.2,0.4,0.1"/>
	<path class="st55" d="M121.8,58.7c0,0-0.1,0.3,0.3,0.4 M122.1,58.5c0,0-0.1,0.3,0.3,0.4"/>
	<path class="st57" d="M121.1,60.4c0,0,0,0.4,0.4,0.2"/>
	<path class="st2" d="M120.9,62.1c-0.1,0.1-0.1,0.4-0.2,0.5c-0.2,0.4-0.4,0.5-0.4,0.9c0,0.1,0,0.4,0,0.5c0.1,0.4,0.1,0.9,0.3,1.2
		c0.2,0.4,0.5,0.5,0.8,0.5c0.6,0,1.2-0.8,1-1.8c-0.1-0.7-0.1-1.2-0.5-1.6c-0.1-0.1-0.2-0.3-0.3-0.4c0,0,0-0.1-0.3-0.2
		c-0.3-0.1-0.7-0.6-0.7-1.3c0-0.7,0.1-1.4,0.5-1.4c0.4,0,0.6,0.7,0.6,1.4c0,0.7-0.1,1.1-0.6,1.3c0,0,0.4,0.2,0.5,0.2
		c0.1-0.2,0.2-0.2,0.3-0.5c0.1-0.3,0.2-0.6,0.2-1c-0.1-1.2-0.5-1.7-1.1-1.9c-0.6,0-1,0.8-1,1.9C120,61.3,120.6,61.9,120.9,62.1
		c0.6,0.3,0.9,1.1,0.9,1.8c0,0.7-0.1,1.4-0.6,1.4c-0.4,0-0.6-0.7-0.6-1.4c0.1-0.4,0.4-1.4,0.7-1.5C121.3,62.4,120.9,62.1,120.9,62.1
		L120.9,62.1z"/>
	<path class="st50" d="M120.9,62.1c-0.1,0.1-0.1,0.4-0.2,0.5c-0.2,0.4-0.4,0.5-0.4,0.9c0,0.1,0,0.4,0,0.5c0.1,0.4,0.1,0.9,0.3,1.2
		c0.2,0.4,0.5,0.5,0.8,0.5c0.6,0,1.2-0.8,1-1.8c-0.1-0.7-0.1-1.2-0.5-1.6c-0.1-0.1-0.2-0.3-0.3-0.4c0,0,0-0.1-0.3-0.2
		c-0.3-0.1-0.7-0.6-0.7-1.3c0-0.7,0.1-1.4,0.5-1.4c0.4,0,0.6,0.7,0.6,1.4c0,0.7-0.1,1.1-0.6,1.3c0,0,0.4,0.2,0.5,0.2
		c0.1-0.2,0.2-0.2,0.3-0.5c0.1-0.3,0.2-0.6,0.2-1c-0.1-1.2-0.5-1.7-1.1-1.9c-0.6,0-1,0.8-1,1.9C120,61.3,120.6,61.9,120.9,62.1
		c0.6,0.3,0.9,1.1,0.9,1.8c0,0.7-0.1,1.4-0.6,1.4c-0.4,0-0.6-0.7-0.6-1.4c0.1-0.4,0.4-1.4,0.7-1.5C121.3,62.4,120.9,62.1,120.9,62.1
		L120.9,62.1z"/>
	<path class="st49" d="M120.6,63.8c0,0,0.2,0.2-0.4,0.1"/>
	<path class="st2" d="M121,62.7c0,0.4-0.1,1.6-0.3,1.7c-0.3,0.7-0.6,0.8-0.7,0.9c-0.3,0.1-0.4,0.6,0,0.5c0.3-0.2,0.5-0.3,0.7-0.6
		c0.4-0.4,0.4-0.7,0.8-2.6c-0.2-0.2-0.2-0.2-0.3-0.2L121,62.7L121,62.7z"/>
	<path class="st50" d="M121,62.7c0,0.4-0.1,1.6-0.3,1.7c-0.3,0.7-0.6,0.8-0.7,0.9c-0.3,0.1-0.4,0.6,0,0.5c0.3-0.2,0.5-0.3,0.7-0.6
		c0.4-0.4,0.4-0.7,0.8-2.6c-0.2-0.2-0.2-0.2-0.3-0.2L121,62.7L121,62.7z"/>
	<path class="st51" d="M121.1,64.4c0,0,0.2-0.2-0.3-0.3"/>
	<path class="st45" d="M121,64.8c0,0,0.2-0.2-0.3-0.3"/>
	<path class="st49" d="M121.4,63c0,0,0-0.3-0.5-0.1"/>
	<path class="st56" d="M120.8,65.2c0,0,0.1-0.3-0.4-0.4"/>
	<path class="st58" d="M121.3,63.4c0,0,0-0.2-0.4-0.1"/>
	<path class="st55" d="M120.4,65.5c0,0,0.1-0.3-0.2-0.4 M120.2,65.8c0,0,0.1-0.3-0.2-0.4"/>
	<path class="st57" d="M121.3,63.9c0,0,0-0.4-0.4-0.2"/>
	<path class="st2" d="M121,61.6c0-0.4-0.3-1.6-0.5-1.8c-0.3-0.7-0.5-0.9-0.6-1c-0.3-0.1-0.2-0.4,0.2-0.4c0.3,0.2,0.2,0.2,0.4,0.5
		c0.4,0.4,0.4,0.6,0.8,2.4c-0.2,0.2-0.2,0.4-0.3,0.3L121,61.6L121,61.6z"/>
	<path class="st50" d="M121,61.6c0-0.4-0.3-1.6-0.5-1.8c-0.3-0.7-0.5-0.9-0.6-1c-0.3-0.1-0.2-0.4,0.2-0.4c0.3,0.2,0.2,0.2,0.4,0.5
		c0.4,0.4,0.4,0.6,0.8,2.4c-0.2,0.2-0.2,0.4-0.3,0.3L121,61.6L121,61.6z"/>
	<path class="st51" d="M121,59.9c0,0,0.2,0.2-0.3,0.3"/>
	<path class="st50" d="M120.9,59.5c0,0,0.2,0.2-0.3,0.3"/>
	<path class="st59" d="M121.4,61.3c0,0,0,0.3-0.5,0.1"/>
	<path class="st56" d="M120.7,59.1c0,0,0.1,0.3-0.4,0.4"/>
	<path class="st58" d="M121.3,60.9c0,0,0,0.2-0.4,0.1"/>
	<path class="st55" d="M120.5,58.8c0,0,0.1,0.3-0.2,0.4 M120.3,58.5c0,0,0.1,0.3-0.2,0.4"/>
	<path class="st60" d="M121.2,60.4c0,0,0,0.4-0.4,0.2"/>
	<path class="st59" d="M121.3,65.3c0,0,0.2,0.1-0.2,0.3"/>
	<path class="st53" d="M120.4,59.7c0,0,0.1-0.3-0.4-0.1"/>
	<path class="st59" d="M121.8,64.7c0,0-0.1,0.3,0.4,0.1"/>
	<path class="st53" d="M121.6,59.7c0,0-0.1-0.3,0.4-0.1"/>
	<path class="st49" d="M121.1,65.3c0,0,0.2,0.3-0.3,0.3"/>
	<path class="st59" d="M121.6,65.1c0,0-0.1,0.3,0.4,0.1"/>
	<path class="st53" d="M121.5,59.3c0,0-0.1-0.3,0.4-0.1"/>
	<path class="st61" d="M120.8,59.1c0,0,0.5-0.3-0.1-0.4"/>
	<path class="st62" d="M121.5,65.2c0,0-0.1,0.6,0.3,0.2"/>
	<path class="st49" d="M120.6,64.3c0,0,0.1,0.2-0.3,0.1"/>
	<path class="st53" d="M120.4,60.1c0,0,0.1-0.3-0.4-0.1 M121.9,64.2c0,0-0.1,0.3,0.4,0.1 M121.7,60.1c0,0-0.1-0.3,0.4-0.1
		 M120.4,60.5c0,0,0.1-0.3-0.4-0.1"/>
	<path class="st59" d="M121.9,63.9c0,0-0.1,0.3,0.4,0.1"/>
	<path class="st53" d="M121.7,60.5c0,0-0.1-0.3,0.4-0.1"/>
	<path class="st50" d="M120.7,63.5c0,0,0,0.3-0.5-0.1"/>
	<path class="st53" d="M120.5,60.9c0,0,0.1-0.3-0.4-0.1"/>
	<path class="st59" d="M121.9,63.4c0,0-0.1,0.3,0.4,0.1"/>
	<path class="st53" d="M121.7,60.9c0,0-0.1-0.3,0.3-0.1"/>
	<path class="st45" d="M120.8,63.3c0,0-0.2,0.2-0.4-0.3 M120.9,63c0,0-0.2,0.2-0.3-0.3 M121,62.7c0,0-0.2,0.2-0.3-0.3 M121.2,62.4
		c0,0-0.2,0.2-0.4-0.3"/>
	<path class="st50" d="M120.6,61.1c0,0-0.1-0.2-0.3,0.3"/>
	<path class="st45" d="M121.7,63.1c0,0,0.2,0.2,0.3-0.3 M121.6,61.2c0,0,0.1-0.2,0.3,0.3"/>
	<path class="st50" d="M120.7,61.4c0,0-0.2-0.2-0.3,0.3"/>
	<path class="st45" d="M121.6,62.8c0,0,0.2,0.2,0.3-0.3 M121.4,62.5c0,0,0.1,0.2,0.3-0.3 M121.2,62.4c0,0,0.1,0,0.3-0.5 M120.5,61.8
		c0,0,0.1,0.2,0.3-0.3 M120.8,62c0,0,0.1,0.2,0.3-0.3"/>
	<path class="st61" d="M121.2,59.2c0,0-0.1-0.5,0.4-0.2"/>
	<path class="st45" d="M121.4,61.5c0,0,0.2-0.2,0.3,0.2"/>
	<path class="st2" d="M121.4,61.4c0,1.2,0.1,2.5,0.2,3c0.2,0.8,0.5,0.9,0.5,1c0.3,0.2,0.3,0.7-0.1,0.5c-0.3-0.2-0.4-0.4-0.6-0.7
		c-0.3-0.5-0.3-1.6-0.4-3.5c0.1,0,0.2,0,0.2,0L121.4,61.4L121.4,61.4z"/>
	<path class="st50" d="M121.4,61.4c0,1.2,0.1,2.5,0.2,3c0.2,0.8,0.5,0.9,0.5,1c0.3,0.2,0.3,0.7-0.1,0.5c-0.3-0.2-0.4-0.4-0.6-0.7
		c-0.3-0.5-0.3-1.6-0.4-3.5c0.1,0,0.2,0,0.2,0L121.4,61.4L121.4,61.4z"/>
	<path class="st51" d="M121.1,64.2c0,0-0.1-0.3,0.4-0.2"/>
	<path class="st45" d="M121.2,64.7c0,0-0.2-0.2,0.4-0.2"/>
	<path class="st63" d="M121.1,62.8c0,0,0-0.3,0.4,0"/>
	<path class="st56" d="M121.1,62.5c0,0,0-0.3,0.4,0 M121.1,62.2c0,0,0-0.3,0.4,0"/>
	<path class="st63" d="M121.3,65.2c0,0-0.1-0.3,0.5-0.3"/>
	<path class="st54" d="M121.1,63.2c0,0,0-0.2,0.4-0.1"/>
	<path class="st55" d="M121.6,65.5c0,0-0.1-0.3,0.3-0.3 M121.8,65.8c0,0-0.1-0.3,0.3-0.3 M121.1,63.7c0,0,0.1-0.4,0.4-0.1"/>
	<polygon class="st2" points="121.3,61.5 121,61.7 121.1,61.8 121.4,61.5 121.3,61.5 	"/>
	<polygon class="st7" points="121.3,61.5 121,61.7 121.1,61.8 121.4,61.5 121.3,61.5 	"/>
	<path class="st53" d="M121.1,61.7c0,0,0-0.2,0.3,0"/>
	<path class="st10" d="M84.2,56.3l-2-0.7l0.1-0.3l2,0.7L84.2,56.3L84.2,56.3z M84.5,55.4l0.1-0.2l-1.5-0.7l2-0.3l0.1-0.3L83.2,53
		l-0.1,0.2l1.5,0.7l-2,0.3l-0.1,0.3L84.5,55.4L84.5,55.4z M84.9,53l0.1-0.2c0.1,0,0.2,0.1,0.3,0.1c0.1,0,0.2,0,0.3-0.1
		c0.1-0.1,0.2-0.1,0.2-0.2c0.1-0.1,0.1-0.2,0.1-0.3c0-0.1,0-0.2,0-0.2c0-0.1-0.1-0.1-0.1-0.2c-0.1,0-0.1-0.1-0.2-0.1
		c-0.1,0-0.1,0-0.2,0.1c-0.1,0-0.2,0.1-0.3,0.3c-0.1,0.1-0.3,0.2-0.3,0.3c-0.1,0.1-0.2,0.1-0.3,0.1c-0.1,0-0.2,0-0.3-0.1
		c-0.1-0.1-0.2-0.1-0.2-0.2c0-0.1-0.1-0.2,0-0.3c0-0.1,0.1-0.2,0.2-0.4c0.1-0.1,0.2-0.2,0.3-0.3c0.1-0.1,0.2-0.1,0.3-0.1
		c0.1,0,0.2,0,0.3,0.1l-0.1,0.2c-0.1-0.1-0.2-0.1-0.3,0c-0.1,0-0.2,0.1-0.3,0.2c-0.1,0.1-0.1,0.3-0.1,0.4c0,0.1,0,0.2,0.1,0.2
		c0.1,0,0.1,0.1,0.2,0c0.1,0,0.2-0.1,0.4-0.3c0.2-0.2,0.3-0.3,0.4-0.3c0.1-0.1,0.2-0.1,0.3-0.1c0.1,0,0.2,0,0.3,0.1
		c0.1,0.1,0.2,0.2,0.2,0.3c0,0.1,0.1,0.2,0,0.4c0,0.1-0.1,0.3-0.2,0.4c-0.1,0.2-0.2,0.3-0.3,0.4c-0.1,0.1-0.2,0.1-0.4,0.1
		C85.1,53.1,85,53.1,84.9,53L84.9,53z M87,51.1l0.2-0.2l-1.5-1.2l0.4-0.5L86,49l-1.1,1.3l0.2,0.2l0.4-0.5L87,51.1L87,51.1z
		 M87.9,49.9l-1.5-1.5l0.2-0.2l1.5,1.5L87.9,49.9L87.9,49.9z M89,48.9l0.2-0.2l-1.3-1.4l0.5-0.5l-0.2-0.2L87,47.8l0.2,0.2l0.5-0.5
		L89,48.9L89,48.9z M90,45.4l0.2-0.2l0.7,1c0.1,0.2,0.2,0.3,0.2,0.5c0,0.1,0,0.3,0,0.4c-0.1,0.1-0.2,0.3-0.3,0.4
		c-0.2,0.1-0.3,0.2-0.5,0.2c-0.1,0-0.3,0-0.4-0.1c-0.1-0.1-0.2-0.2-0.4-0.4l-0.7-1l0.2-0.2l0.7,1c0.1,0.2,0.2,0.3,0.3,0.3
		c0.1,0.1,0.2,0.1,0.3,0.1c0.1,0,0.2-0.1,0.3-0.1c0.2-0.1,0.3-0.2,0.3-0.4c0-0.1-0.1-0.3-0.2-0.5L90,45.4L90,45.4z M92.4,46.3
		l0.2-0.1l-0.9-1.6l0.6-0.3L92.3,44l-1.5,0.8l0.1,0.2l0.6-0.3L92.4,46.3L92.4,46.3z M93.2,44.7c-0.1-0.3-0.1-0.6,0-0.9
		c0.1-0.3,0.3-0.4,0.6-0.6c0.2-0.1,0.4-0.1,0.5-0.1c0.2,0,0.3,0.1,0.5,0.2c0.1,0.1,0.2,0.3,0.3,0.5c0.1,0.2,0.1,0.4,0.1,0.6
		c0,0.2-0.1,0.4-0.2,0.5c-0.1,0.1-0.3,0.2-0.4,0.3c-0.2,0.1-0.4,0.1-0.6,0.1c-0.2,0-0.3-0.1-0.5-0.2C93.3,45,93.2,44.9,93.2,44.7
		L93.2,44.7z M93.4,44.6c0.1,0.2,0.2,0.4,0.4,0.5c0.2,0.1,0.4,0.1,0.6,0c0.2-0.1,0.3-0.2,0.4-0.4c0.1-0.2,0.1-0.4-0.1-0.7
		c-0.1-0.2-0.1-0.3-0.3-0.4c-0.1-0.1-0.2-0.2-0.3-0.2c-0.1,0-0.3,0-0.4,0c-0.2,0.1-0.3,0.2-0.4,0.4C93.3,44.1,93.3,44.3,93.4,44.6
		L93.4,44.6z M97.1,43.3c-0.1-0.3,0-0.6,0.2-0.9c0.2-0.2,0.4-0.4,0.7-0.4c0.2,0,0.4,0,0.5,0.1c0.2,0.1,0.3,0.2,0.4,0.3
		c0.1,0.2,0.2,0.3,0.2,0.5c0,0.2,0,0.4,0,0.6c-0.1,0.2-0.2,0.3-0.3,0.4c-0.1,0.1-0.3,0.2-0.5,0.2c-0.2,0-0.4,0-0.6-0.1
		c-0.2-0.1-0.3-0.2-0.4-0.3C97.2,43.6,97.2,43.5,97.1,43.3L97.1,43.3z M97.4,43.2c0,0.3,0.1,0.4,0.3,0.6c0.2,0.1,0.3,0.2,0.5,0.1
		c0.2,0,0.4-0.1,0.5-0.3c0.1-0.2,0.1-0.4,0.1-0.7c0-0.2-0.1-0.3-0.2-0.4c-0.1-0.1-0.2-0.2-0.3-0.3c-0.1-0.1-0.3-0.1-0.4,0
		c-0.2,0-0.4,0.1-0.5,0.3C97.4,42.7,97.4,42.9,97.4,43.2L97.4,43.2z M101.3,43.1l0.3,0.1c0,0.2-0.1,0.4-0.3,0.6
		c-0.1,0.1-0.3,0.2-0.6,0.2c-0.2,0-0.4,0-0.6-0.1c-0.2-0.1-0.3-0.2-0.4-0.4c-0.1-0.2-0.1-0.4-0.2-0.6c0-0.2,0-0.4,0.1-0.6
		c0.1-0.2,0.2-0.3,0.3-0.4c0.2-0.1,0.3-0.2,0.5-0.2c0.2,0,0.4,0,0.5,0.1c0.2,0.1,0.3,0.2,0.3,0.4l-0.3,0.1c-0.1-0.2-0.1-0.3-0.2-0.3
		c-0.1-0.1-0.2-0.1-0.4-0.1c-0.2,0-0.3,0.1-0.4,0.1c-0.1,0.1-0.2,0.2-0.2,0.3c0,0.1,0,0.3,0,0.4c0,0.2,0,0.3,0.1,0.5
		c0.1,0.1,0.2,0.2,0.3,0.3c0.1,0.1,0.2,0.1,0.4,0.1c0.2,0,0.3-0.1,0.4-0.2C101.2,43.4,101.3,43.3,101.3,43.1L101.3,43.1z
		 M102.2,43.8l0.1-2.1l1.5,0.1l0,0.3l-1.3-0.1l0,0.7l1.2,0.1l0,0.2l-1.2-0.1l0,0.7l1.3,0.1l0,0.3L102.2,43.8L102.2,43.8z M104.1,44
		l1.1-2l0.3,0l0.5,2.2l-0.3-0.1l-0.1-0.7l-0.9-0.1l-0.3,0.6L104.1,44L104.1,44z M104.8,43.2l0.7,0.1l-0.1-0.6c0-0.2-0.1-0.3-0.1-0.5
		c0,0.1-0.1,0.3-0.2,0.4L104.8,43.2L104.8,43.2z M106.4,44.4l0.6-2l0.3,0.1l0.6,1.9l0.5-1.6l0.3,0.1l-0.6,2l-0.3-0.1l-0.6-1.9
		l-0.5,1.6L106.4,44.4L106.4,44.4z M108.9,44.2c0.1-0.3,0.3-0.5,0.6-0.6c0.3-0.1,0.5-0.1,0.8,0c0.2,0.1,0.3,0.2,0.4,0.3
		c0.1,0.2,0.2,0.3,0.2,0.5c0,0.2,0,0.4-0.1,0.6c-0.1,0.2-0.2,0.4-0.4,0.5c-0.2,0.1-0.3,0.2-0.5,0.2c-0.2,0-0.4,0-0.5-0.1
		c-0.2-0.1-0.3-0.2-0.4-0.3c-0.1-0.2-0.2-0.3-0.2-0.5C108.8,44.5,108.9,44.4,108.9,44.2L108.9,44.2z M109.2,44.3
		c-0.1,0.2-0.1,0.4-0.1,0.6c0.1,0.2,0.2,0.3,0.4,0.4c0.2,0.1,0.4,0.1,0.6,0c0.2-0.1,0.3-0.2,0.4-0.5c0.1-0.2,0.1-0.3,0.1-0.4
		c0-0.1,0-0.3-0.1-0.4c-0.1-0.1-0.2-0.2-0.3-0.2c-0.2-0.1-0.4-0.1-0.6,0C109.5,43.8,109.3,44,109.2,44.3L109.2,44.3z M112.1,46.1
		l0.1-0.2l0.8,0.5l-0.4,0.7c-0.2,0-0.3,0-0.5,0c-0.2,0-0.3-0.1-0.4-0.2c-0.2-0.1-0.3-0.3-0.4-0.4c-0.1-0.2-0.1-0.3-0.1-0.5
		c0-0.2,0.1-0.4,0.2-0.5c0.1-0.2,0.3-0.3,0.4-0.4c0.2-0.1,0.3-0.1,0.5-0.1c0.2,0,0.4,0.1,0.5,0.2c0.1,0.1,0.2,0.2,0.3,0.3
		c0.1,0.1,0.1,0.2,0.1,0.3c0,0.1,0,0.2-0.1,0.4l-0.2-0.1c0-0.1,0-0.2,0-0.3c0-0.1,0-0.2-0.1-0.2c-0.1-0.1-0.1-0.2-0.2-0.2
		c-0.1-0.1-0.2-0.1-0.3-0.1c-0.1,0-0.2,0-0.3,0c-0.1,0-0.2,0.1-0.2,0.1c-0.1,0.1-0.2,0.2-0.3,0.3c-0.1,0.2-0.2,0.3-0.2,0.5
		c0,0.1,0,0.3,0.1,0.4c0.1,0.1,0.2,0.2,0.3,0.3c0.1,0.1,0.2,0.1,0.3,0.1c0.1,0,0.2,0,0.3,0l0.2-0.3L112.1,46.1L112.1,46.1z
		 M112.9,47.6l0.2,0.2l0.6-0.7l0.2,0.2c0.1,0.1,0.1,0.1,0.1,0.1c0,0,0,0.1,0.1,0.1c0,0.1,0,0.1,0,0.2c0,0.1,0,0.2,0,0.4l-0.1,0.5
		l0.3,0.2l0.1-0.7c0-0.1,0-0.3,0-0.4c0-0.1,0-0.1-0.1-0.2c0.2,0.1,0.3,0.2,0.5,0.1c0.1,0,0.3-0.1,0.4-0.2c0.1-0.1,0.1-0.2,0.1-0.3
		c0-0.1,0-0.2,0-0.3c-0.1-0.1-0.1-0.2-0.3-0.3l-0.7-0.6L112.9,47.6L112.9,47.6z M113.9,46.8l0.5-0.5l0.5,0.4
		c0.1,0.1,0.2,0.2,0.2,0.3c0,0.1,0,0.2-0.1,0.3c0,0.1-0.1,0.1-0.2,0.1c-0.1,0-0.1,0-0.2,0c-0.1,0-0.2-0.1-0.3-0.2L113.9,46.8
		L113.9,46.8z M114.5,48.9l2.1-0.9l0.2,0.2l-0.9,2.1l-0.2-0.2l0.3-0.6l-0.6-0.6l-0.6,0.3L114.5,48.9L114.5,48.9z M115.6,48.8
		l0.5,0.5l0.3-0.6c0.1-0.2,0.2-0.3,0.2-0.4c-0.1,0.1-0.2,0.1-0.4,0.2L115.6,48.8L115.6,48.8z M116.7,47.9l0.1,0.2l0.5-0.1l-0.2-0.2
		L116.7,47.9L116.7,47.9z M116.1,50.7l0.2,0.2l0.8-0.6l0.6,0.8l0.2-0.2l-0.6-0.8l0.5-0.4l0.7,0.9l0.2-0.2l-0.9-1.1L116.1,50.7
		L116.1,50.7z M117.3,52.3l1.8-1.2l0.2,0.2l-1.8,1.2L117.3,52.3L117.3,52.3z M119.2,54.1c-0.2,0-0.3,0-0.5,0
		c-0.1-0.1-0.2-0.2-0.3-0.3c-0.1-0.1-0.1-0.2-0.1-0.4c0-0.1,0.1-0.2,0.2-0.4c0.1-0.1,0.2-0.2,0.4-0.3c0.1-0.1,0.3-0.1,0.4-0.1
		c0.1,0,0.3,0,0.4,0.1c0.1,0.1,0.2,0.2,0.3,0.3c0.1,0.1,0.1,0.2,0.1,0.4c0,0.1-0.1,0.2-0.2,0.3l0.2,0.2c0.1-0.1,0.2-0.3,0.3-0.5
		c0-0.2,0-0.4-0.1-0.6c-0.1-0.2-0.2-0.3-0.4-0.4c-0.1-0.1-0.3-0.1-0.5-0.1c-0.2,0-0.4,0.1-0.6,0.2c-0.2,0.1-0.3,0.2-0.5,0.4
		c-0.1,0.1-0.2,0.3-0.2,0.5c0,0.2,0,0.4,0.1,0.6c0.1,0.2,0.2,0.3,0.4,0.4c0.2,0.1,0.4,0.1,0.6,0L119.2,54.1L119.2,54.1z M119.8,54.7
		c0.3-0.1,0.6-0.2,0.9-0.1c0.3,0.1,0.4,0.3,0.6,0.6c0.1,0.2,0.1,0.4,0.1,0.5c0,0.2-0.1,0.3-0.2,0.5c-0.1,0.1-0.3,0.3-0.5,0.3
		c-0.2,0.1-0.4,0.1-0.6,0.1c-0.2,0-0.4-0.1-0.5-0.2c-0.1-0.1-0.3-0.3-0.3-0.4c-0.1-0.2-0.1-0.4-0.1-0.6c0-0.2,0.1-0.3,0.2-0.5
		C119.4,54.9,119.6,54.8,119.8,54.7L119.8,54.7z M119.9,55c-0.2,0.1-0.4,0.2-0.5,0.4c-0.1,0.2-0.1,0.4,0,0.6
		c0.1,0.2,0.2,0.3,0.4,0.4c0.2,0.1,0.4,0,0.7-0.1c0.2-0.1,0.3-0.2,0.4-0.3c0.1-0.1,0.2-0.2,0.2-0.4c0-0.1,0-0.3-0.1-0.4
		c-0.1-0.2-0.2-0.3-0.4-0.4C120.4,54.8,120.2,54.9,119.9,55z"/>
	<path class="st10" d="M84.1,69.1l0.1,0.3L83,69.8c-0.2,0.1-0.4,0.1-0.5,0.1c-0.1,0-0.3-0.1-0.4-0.2c-0.1-0.1-0.2-0.2-0.3-0.4
		c-0.1-0.2-0.1-0.4-0.1-0.5c0-0.1,0.1-0.3,0.2-0.4c0.1-0.1,0.3-0.2,0.5-0.2l1.2-0.4l0.1,0.3l-1.2,0.4c-0.2,0.1-0.3,0.1-0.4,0.2
		c-0.1,0.1-0.1,0.1-0.1,0.2c0,0.1,0,0.2,0,0.3c0.1,0.2,0.2,0.3,0.3,0.4c0.1,0.1,0.3,0,0.6,0L84.1,69.1L84.1,69.1z M82.5,70.9l1.9-1
		l0.1,0.3l-1,1.8l1.5-0.8l0.1,0.2l-1.9,1l-0.1-0.3l1-1.8l-1.5,0.8L82.5,70.9L82.5,70.9z M83.7,73.2l0.1,0.3l1.9-1l-0.1-0.2
		L83.7,73.2L83.7,73.2z M84.7,74.7l1.3-1.9l0.2,0.3l-1,1.3c-0.1,0.1-0.2,0.2-0.2,0.3c0.1,0,0.2-0.1,0.4-0.1l1.6-0.4l0.2,0.2
		l-2.2,0.5L84.7,74.7L84.7,74.7z M85.8,76.1l1.1,1.2l0.2-0.2l-0.9-1l0.5-0.5l0.8,0.9l0.2-0.2l-0.8-0.9l0.5-0.4l0.9,0.9l0.2-0.2
		l-1.1-1.1L85.8,76.1L85.8,76.1z M87.5,77.8l1.4-1.6l0.7,0.6c0.1,0.1,0.2,0.2,0.3,0.3c0,0.1,0.1,0.2,0,0.3c0,0.1-0.1,0.2-0.1,0.3
		c-0.1,0.1-0.2,0.2-0.4,0.2c-0.1,0-0.3,0-0.5-0.1c0,0.1,0.1,0.1,0.1,0.2c0,0.1,0,0.2,0,0.4L88.9,79l-0.3-0.2l0.1-0.5
		c0-0.2,0-0.3,0-0.4c0-0.1,0-0.2,0-0.2c0-0.1,0-0.1-0.1-0.1c0,0-0.1-0.1-0.1-0.1l-0.2-0.2L87.7,78L87.5,77.8L87.5,77.8z M88.5,77.1
		l0.5,0.4c0.1,0.1,0.2,0.1,0.3,0.2c0.1,0,0.1,0,0.2,0c0.1,0,0.1-0.1,0.2-0.1c0.1-0.1,0.1-0.2,0.1-0.3c0-0.1-0.1-0.2-0.2-0.3
		l-0.5-0.4L88.5,77.1L88.5,77.1z M89.7,78.9c-0.1,0.1-0.1,0.2-0.1,0.4c0,0.1,0,0.3,0.1,0.4c0.1,0.1,0.2,0.2,0.4,0.3
		c0.1,0.1,0.3,0.1,0.4,0.2c0.1,0,0.3,0,0.4,0c0.1,0,0.2-0.1,0.3-0.2c0.1-0.1,0.1-0.2,0.1-0.3c0-0.1,0-0.2-0.1-0.3
		c-0.1-0.1-0.2-0.2-0.3-0.4c-0.2-0.2-0.3-0.3-0.3-0.4c0-0.1,0-0.1,0-0.2c0-0.1,0.1-0.1,0.2-0.1c0.1,0,0.2,0,0.4,0.1
		c0.1,0.1,0.2,0.2,0.3,0.3c0,0.1,0,0.2,0,0.3l0.2,0.1c0.1-0.1,0.1-0.2,0.1-0.3c0-0.1,0-0.2-0.1-0.3c-0.1-0.1-0.2-0.2-0.3-0.3
		c-0.1-0.1-0.2-0.1-0.4-0.1c-0.1,0-0.2,0-0.3,0c-0.1,0-0.2,0.1-0.2,0.2c-0.1,0.1-0.1,0.2-0.1,0.3c0,0.1,0,0.2,0.1,0.3
		c0,0.1,0.1,0.2,0.3,0.3c0.1,0.1,0.2,0.2,0.3,0.3c0.1,0.1,0.1,0.1,0.1,0.2c0,0.1,0,0.1,0,0.2c0,0.1-0.1,0.1-0.2,0.1
		c-0.1,0-0.1,0-0.2,0c-0.1,0-0.2-0.1-0.3-0.1c-0.1-0.1-0.2-0.1-0.2-0.2c-0.1-0.1-0.1-0.2-0.1-0.3c0-0.1,0-0.2,0.1-0.3L89.7,78.9
		L89.7,78.9z M91.5,80.8l1.1-1.8l0.2,0.1l-1.1,1.8L91.5,80.8L91.5,80.8z M92.5,81.3l0.7,0.3c0.1,0.1,0.2,0.1,0.3,0.1
		c0.1,0,0.2,0,0.3,0c0.1,0,0.2,0,0.3-0.1c0.1,0,0.2-0.1,0.3-0.2c0.1-0.1,0.2-0.2,0.2-0.4c0.1-0.2,0.1-0.3,0.1-0.5
		c0-0.2,0-0.3-0.1-0.4c0-0.1-0.1-0.2-0.2-0.3c-0.1-0.1-0.2-0.1-0.3-0.2l-0.7-0.3L92.5,81.3L92.5,81.3z M92.9,81.2l0.7-1.5l0.4,0.2
		c0.2,0.1,0.3,0.1,0.3,0.2c0.1,0.1,0.1,0.2,0.1,0.3c0,0.1,0,0.3-0.1,0.5c-0.1,0.1-0.1,0.3-0.2,0.3c-0.1,0.1-0.2,0.1-0.3,0.2
		c-0.1,0-0.1,0-0.2,0c-0.1,0-0.2,0-0.3-0.1L92.9,81.2L92.9,81.2z M94.7,82.3l1.4-1.8l0.3,0.1l0.3,2.3l-0.3-0.1L96.2,82l-0.9-0.2
		L95,82.3L94.7,82.3L94.7,82.3z M95.5,81.6l0.7,0.2l-0.1-0.6c0-0.2,0-0.3,0-0.5c-0.1,0.1-0.1,0.2-0.2,0.4L95.5,81.6L95.5,81.6z
		 M97.2,82.9l0.4-2.1l0.7,0.1c0.2,0,0.3,0.1,0.4,0.1c0.1,0.1,0.2,0.1,0.3,0.2c0.1,0.1,0.1,0.2,0.2,0.4c0,0.2,0,0.3,0,0.5
		c0,0.2-0.1,0.3-0.1,0.4c-0.1,0.1-0.1,0.2-0.2,0.3c-0.1,0.1-0.1,0.1-0.2,0.2c-0.1,0-0.2,0.1-0.3,0.1c-0.1,0-0.2,0-0.3,0L97.2,82.9
		L97.2,82.9z M97.5,82.7l0.4,0.1c0.1,0,0.2,0,0.3,0c0.1,0,0.2,0,0.2-0.1c0.1-0.1,0.1-0.1,0.2-0.2c0.1-0.1,0.1-0.2,0.1-0.4
		c0-0.2,0-0.4,0-0.5c-0.1-0.1-0.1-0.2-0.2-0.3c-0.1,0-0.2-0.1-0.3-0.1l-0.4-0.1L97.5,82.7L97.5,82.7z M99.7,83.3l0.2-2.1l1.5,0.1
		l0,0.2l-1.3-0.1l-0.1,0.6l1.2,0.1l0,0.2l-1.2-0.1l-0.1,0.7l1.3,0.1l0,0.2L99.7,83.3L99.7,83.3z M103.4,83.4l-0.3-2.1l0.7-0.1
		c0.2,0,0.3,0,0.4,0c0.1,0,0.2,0,0.3,0.1c0.1,0.1,0.2,0.2,0.3,0.3c0.1,0.1,0.1,0.3,0.2,0.5c0,0.2,0,0.3,0,0.4c0,0.1-0.1,0.2-0.1,0.3
		c0,0.1-0.1,0.2-0.2,0.2c-0.1,0.1-0.1,0.1-0.2,0.1c-0.1,0-0.2,0.1-0.3,0.1L103.4,83.4L103.4,83.4z M103.6,83.1l0.5-0.1
		c0.1,0,0.2,0,0.3-0.1c0.1,0,0.1-0.1,0.2-0.1c0.1-0.1,0.1-0.2,0.1-0.3c0-0.1,0-0.3,0-0.4c0-0.2-0.1-0.4-0.2-0.5
		c-0.1-0.1-0.2-0.2-0.3-0.2c-0.1,0-0.2,0-0.4,0l-0.4,0.1L103.6,83.1L103.6,83.1z M105.9,83l-0.5-2.1l1.5-0.4l0.1,0.2l-1.2,0.3
		l0.2,0.6l1.1-0.3l0.1,0.2L106,82l0.2,0.7l1.3-0.3l0.1,0.2L105.9,83L105.9,83z M109,81.4l0.2-0.1c0.1,0.1,0.1,0.2,0.2,0.2
		c0.1,0,0.2,0.1,0.3,0.1c0.1,0,0.2,0,0.3-0.1c0.1,0,0.2-0.1,0.2-0.2c0.1-0.1,0.1-0.1,0.1-0.2c0-0.1,0-0.1,0-0.2
		c0-0.1-0.1-0.1-0.1-0.1c-0.1,0-0.1,0-0.2,0c-0.1,0-0.2,0-0.4,0.1c-0.2,0-0.3,0.1-0.4,0.1c-0.1,0-0.2,0-0.3-0.1
		c-0.1,0-0.1-0.1-0.2-0.2c0-0.1-0.1-0.2,0-0.3c0-0.1,0.1-0.2,0.2-0.3c0.1-0.1,0.2-0.2,0.3-0.2c0.1-0.1,0.3-0.1,0.4-0.1
		c0.1,0,0.2,0,0.3,0.1c0.1,0.1,0.2,0.1,0.2,0.3l-0.2,0.1c-0.1-0.1-0.2-0.2-0.3-0.2c-0.1,0-0.2,0-0.4,0.1c-0.2,0.1-0.3,0.2-0.3,0.2
		c0,0.1,0,0.2,0,0.3c0,0.1,0.1,0.1,0.2,0.1c0.1,0,0.2,0,0.5,0c0.2,0,0.4-0.1,0.5-0.1c0.1,0,0.2,0,0.3,0.1c0.1,0.1,0.2,0.1,0.2,0.2
		c0,0.1,0.1,0.2,0,0.3c0,0.1-0.1,0.2-0.2,0.3c-0.1,0.1-0.2,0.2-0.3,0.2c-0.2,0.1-0.3,0.1-0.5,0.1c-0.1,0-0.3,0-0.4-0.1
		C109.2,81.6,109.1,81.5,109,81.4L109,81.4z M111.4,81.1l-0.4-2.3l0.3-0.2l1.8,1.4l-0.3,0.2l-0.5-0.4l-0.8,0.4l0.1,0.7L111.4,81.1
		L111.4,81.1z M111.5,80l0.6-0.4l-0.5-0.4c-0.1-0.1-0.3-0.2-0.4-0.3c0,0.1,0.1,0.3,0.1,0.4L111.5,80L111.5,80z M110.7,78.9l0.2-0.1
		c0,0,0-0.1,0-0.1c0,0,0-0.1,0.1-0.1c0,0,0.1,0,0.2,0c0.1,0,0.2,0,0.2-0.1c0.1,0,0.1-0.1,0.1-0.2c0-0.1,0-0.2-0.1-0.3l-0.2,0.1
		c0,0,0,0.1,0,0.1c0,0,0,0,0,0.1c0,0-0.1,0-0.1,0c-0.1,0-0.2,0-0.3,0.1c-0.1,0-0.1,0.1-0.1,0.2C110.6,78.7,110.6,78.8,110.7,78.9
		L110.7,78.9z M112.9,79c0.1,0.1,0.3,0.3,0.4,0.3c0.2,0.1,0.3,0.1,0.5,0.1c0.2,0,0.4-0.1,0.5-0.2c0.1-0.1,0.2-0.3,0.3-0.4
		c0.1-0.2,0.1-0.3,0-0.5c0-0.2-0.1-0.4-0.3-0.5c-0.1-0.2-0.3-0.3-0.5-0.4c-0.2-0.1-0.3-0.1-0.5-0.1c-0.2,0-0.3,0.1-0.5,0.2
		c-0.2,0.2-0.4,0.4-0.4,0.7C112.6,78.4,112.7,78.7,112.9,79L112.9,79z M113.2,78.8c0.2,0.2,0.3,0.3,0.5,0.3c0.2,0,0.4,0,0.5-0.2
		c0.2-0.1,0.3-0.3,0.3-0.5c0-0.2-0.1-0.4-0.2-0.6c-0.1-0.1-0.2-0.2-0.4-0.3c-0.1-0.1-0.3-0.1-0.4-0.1c-0.1,0-0.2,0.1-0.4,0.2
		c-0.2,0.1-0.2,0.3-0.3,0.5C112.9,78.3,113,78.6,113.2,78.8L113.2,78.8z M116.1,77.7l-1.5-1.5l0.6-0.6c0.1-0.1,0.2-0.2,0.2-0.2
		c0.1-0.1,0.2-0.1,0.3-0.1c0.1,0,0.2,0,0.3,0c0.1,0,0.2,0.1,0.3,0.2c0.1,0.1,0.2,0.3,0.2,0.4c0,0.2-0.1,0.4-0.3,0.6l-0.4,0.4
		l0.6,0.6L116.1,77.7L116.1,77.7z M115.5,76.7l0.4-0.4c0.1-0.1,0.2-0.2,0.2-0.3c0-0.1,0-0.2-0.1-0.3c-0.1-0.1-0.1-0.1-0.2-0.1
		c-0.1,0-0.1,0-0.2,0c0,0-0.1,0.1-0.2,0.2l-0.4,0.4L115.5,76.7L115.5,76.7z M117.4,76.4l0.2-0.2l-0.4-0.6l0.5-0.7l0.7,0.2l0.2-0.3
		l-2.2-0.6l-0.2,0.2L117.4,76.4L117.4,76.4z M117.1,75.4l-0.3-0.6c-0.1-0.1-0.2-0.2-0.2-0.3c0.1,0,0.3,0.1,0.4,0.2l0.6,0.2
		L117.1,75.4L117.1,75.4z M118,72l0.2-0.2l1,0.7c0.2,0.1,0.3,0.2,0.4,0.3c0.1,0.1,0.1,0.2,0.1,0.4c0,0.1-0.1,0.3-0.2,0.5
		c-0.1,0.2-0.2,0.3-0.3,0.4c-0.1,0.1-0.3,0.1-0.4,0.1c-0.1,0-0.3-0.1-0.5-0.2l-1-0.7l0.1-0.2l1,0.7c0.2,0.1,0.3,0.2,0.4,0.2
		c0.1,0,0.2,0,0.3,0c0.1,0,0.2-0.1,0.2-0.2c0.1-0.2,0.2-0.3,0.1-0.4c0-0.1-0.2-0.3-0.4-0.4L118,72L118,72z M120.3,72.1l0.6-1.2
		l-0.2-0.1l-0.5,0.9l-1.7-0.9l-0.1,0.3L120.3,72.1L120.3,72.1z M120.2,70c-0.3-0.1-0.6-0.3-0.7-0.5c-0.1-0.2-0.1-0.5-0.1-0.8
		c0.1-0.2,0.2-0.3,0.3-0.5c0.1-0.1,0.3-0.2,0.5-0.2c0.2,0,0.4,0,0.6,0.1c0.2,0.1,0.4,0.2,0.5,0.3c0.1,0.1,0.2,0.3,0.3,0.5
		c0,0.2,0,0.4,0,0.5c-0.1,0.2-0.2,0.3-0.3,0.5c-0.1,0.1-0.3,0.2-0.5,0.2C120.6,70,120.4,70,120.2,70L120.2,70z M120.3,69.7
		c0.2,0.1,0.5,0.1,0.6,0c0.2-0.1,0.3-0.2,0.4-0.4c0.1-0.2,0-0.4,0-0.6c-0.1-0.2-0.3-0.3-0.5-0.4c-0.2-0.1-0.3-0.1-0.5-0.1
		c-0.1,0-0.3,0.1-0.4,0.2c-0.1,0.1-0.2,0.2-0.2,0.3c-0.1,0.2-0.1,0.4,0,0.6C119.8,69.5,120,69.6,120.3,69.7z"/>
	<path class="st10" d="M89.1,50.5l0.6-0.6l0.1,0.1l-0.2,0.8l0.5-0.5l0.1,0.1L89.6,51l-0.1-0.1l0.2-0.8L89.1,50.5L89.1,50.5
		L89.1,50.5z M89.8,51.2L89.8,51.2l0.7-0.3c0,0,0.1,0,0.1-0.1c0,0,0,0-0.1,0.1l-0.3,0.6l0.1,0.1l0.8-0.4L91,51.1l-0.5,0.3
		c-0.1,0-0.1,0.1-0.2,0.1c0.1-0.1,0.1-0.2,0.2-0.3l0.2-0.4l-0.1-0.1l-0.5,0.3c0,0-0.1,0-0.1,0.1c0,0,0.1-0.1,0.1-0.1l0.3-0.5
		l-0.1-0.1L89.8,51.2z"/>
	<path class="st10" d="M113.2,51.6l-0.6-0.6l0.1-0.1l0.8,0.2l-0.5-0.5l0.1-0.1l0.6,0.6l-0.1,0.1l-0.8-0.2L113.2,51.6L113.2,51.6
		L113.2,51.6z M113.8,51l0.5-0.5l-0.1-0.1l-0.4,0.4l-0.2-0.2l0.3-0.3l-0.1-0.1l-0.3,0.3l-0.2-0.2l0.4-0.4l-0.1-0.1l-0.4,0.4
		L113.8,51z"/>
	<path class="st10" d="M89.6,75.1L89.6,75.1c0.1-0.1,0.1,0,0.2,0c0,0,0.1,0,0.1,0c0,0,0.1,0,0.1-0.1c0,0,0.1-0.1,0.1-0.1
		c0,0,0-0.1,0-0.1c0,0,0-0.1,0-0.1c0,0,0,0-0.1,0c0,0-0.1,0-0.1,0c0,0-0.1,0-0.1,0.1c-0.1,0-0.1,0.1-0.2,0.1c0,0-0.1,0-0.1,0
		c0,0-0.1,0-0.1-0.1c0,0-0.1-0.1-0.1-0.1c0,0,0-0.1,0-0.1c0-0.1,0.1-0.1,0.1-0.1c0,0,0.1-0.1,0.1-0.1c0,0,0.1,0,0.1,0
		c0,0,0.1,0,0.1,0.1l-0.1,0.1c0,0-0.1-0.1-0.1,0c0,0-0.1,0-0.1,0.1c0,0-0.1,0.1-0.1,0.1c0,0,0,0.1,0,0.1c0,0,0,0,0.1,0
		c0,0,0.1,0,0.2-0.1c0.1,0,0.1-0.1,0.2-0.1c0.1,0,0.1,0,0.1,0c0,0,0.1,0,0.1,0.1c0,0,0.1,0.1,0.1,0.1c0,0,0,0.1,0,0.1
		c0,0,0,0.1-0.1,0.1c-0.1,0.1-0.1,0.1-0.2,0.1c-0.1,0-0.1,0-0.2,0C89.7,75.2,89.6,75.1,89.6,75.1L89.6,75.1z M90.5,74.6L90.5,74.6
		l-0.3-0.7c0,0,0-0.1,0-0.1c0,0,0,0,0.1,0.1l0.6,0.3l0.1-0.1l-0.4-0.8l-0.1,0.1l0.3,0.5c0,0.1,0.1,0.1,0.1,0.2
		c-0.1-0.1-0.2-0.1-0.3-0.2l-0.4-0.2l-0.1,0.1l0.3,0.5c0,0,0,0.1,0.1,0.1c0,0-0.1-0.1-0.2-0.1L89.8,74l-0.1,0.1L90.5,74.6z"/>
	<path class="st10" d="M112.9,73.8L112.9,73.8c0.1,0.1,0,0.1,0,0.2c0,0,0,0.1,0,0.1c0,0,0,0.1,0.1,0.1c0,0,0.1,0.1,0.1,0.1
		c0,0,0.1,0,0.1,0c0,0,0.1,0,0.1,0c0,0,0,0,0-0.1c0,0,0-0.1,0-0.1c0,0,0-0.1-0.1-0.1c0-0.1-0.1-0.1-0.1-0.2c0,0,0-0.1,0-0.1
		c0,0,0-0.1,0.1-0.1c0,0,0.1-0.1,0.1-0.1c0,0,0.1,0,0.1,0c0,0,0.1,0,0.1,0.1c0,0,0.1,0.1,0.1,0.1c0,0.1,0,0.1,0,0.1
		c0,0,0,0.1-0.1,0.1l-0.1-0.1c0,0,0.1-0.1,0-0.1c0,0,0-0.1-0.1-0.1c0,0-0.1-0.1-0.1-0.1c0,0-0.1,0-0.1,0c0,0,0,0,0,0.1
		c0,0,0,0.1,0.1,0.2c0.1,0.1,0.1,0.1,0.1,0.2c0,0.1,0,0.1,0,0.1c0,0,0,0.1-0.1,0.1c0,0-0.1,0.1-0.1,0.1c0,0-0.1,0-0.1,0
		c0,0-0.1,0-0.1-0.1c-0.1-0.1-0.1-0.1-0.1-0.2c0-0.1,0-0.1,0-0.2C112.9,73.9,112.9,73.8,112.9,73.8L112.9,73.8z M113.3,74.6l0.5,0.5
		l0.1-0.1l-0.4-0.4l0.2-0.2l0.3,0.3l0.1-0.1l-0.3-0.3l0.2-0.2l0.4,0.4l0.1-0.1l-0.4-0.4L113.3,74.6z"/>
	<polygon class="st10" points="101.1,46.9 101.1,45.1 101.3,45.1 102.3,46.5 102.3,45.1 102.5,45.1 102.5,46.9 102.3,46.9 
		101.3,45.5 101.3,46.9 101.1,46.9 	"/>
	<path class="st10" d="M101,79.4l0.2,0c0,0.1,0,0.2,0.1,0.2c0,0.1,0.1,0.1,0.2,0.1c0.1,0,0.2,0.1,0.3,0.1c0.1,0,0.2,0,0.2,0
		c0.1,0,0.1-0.1,0.2-0.1c0,0,0.1-0.1,0.1-0.2c0-0.1,0-0.1-0.1-0.1c0,0-0.1-0.1-0.2-0.1c0,0-0.2-0.1-0.3-0.1c-0.2,0-0.3-0.1-0.4-0.1
		c-0.1,0-0.2-0.1-0.2-0.2c0-0.1-0.1-0.1-0.1-0.2c0-0.1,0-0.2,0.1-0.3c0.1-0.1,0.1-0.1,0.2-0.2c0.1,0,0.2-0.1,0.3-0.1
		c0.1,0,0.3,0,0.4,0.1c0.1,0,0.2,0.1,0.2,0.2c0.1,0.1,0.1,0.2,0.1,0.3l-0.2,0c0-0.1-0.1-0.2-0.1-0.3c-0.1-0.1-0.2-0.1-0.3-0.1
		c-0.1,0-0.3,0-0.3,0.1c-0.1,0.1-0.1,0.1-0.1,0.2c0,0.1,0,0.1,0.1,0.2c0.1,0,0.2,0.1,0.4,0.1c0.2,0,0.3,0.1,0.4,0.1
		c0.1,0.1,0.2,0.1,0.2,0.2c0.1,0.1,0.1,0.2,0.1,0.3c0,0.1,0,0.2-0.1,0.3c-0.1,0.1-0.1,0.2-0.2,0.2c-0.1,0.1-0.2,0.1-0.4,0.1
		c-0.2,0-0.3,0-0.4-0.1c-0.1,0-0.2-0.1-0.3-0.2C101.1,79.6,101,79.5,101,79.4L101,79.4z"/>
	<polygon class="st10" points="117.7,63.4 117.7,61.5 119,61.5 119,61.8 117.9,61.8 117.9,62.3 119,62.3 119,62.5 117.9,62.5 
		117.9,63.2 119.1,63.2 119.1,63.4 117.7,63.4 	"/>
	<path class="st10" d="M84.6,63.4l-0.4-1.8h0.2l0.2,1.2c0,0.1,0,0.2,0.1,0.4c0-0.2,0.1-0.3,0.1-0.3l0.3-1.2h0.2l0.2,0.9
		c0,0.2,0.1,0.4,0.1,0.6c0-0.1,0-0.2,0.1-0.4l0.2-1.2h0.2l-0.4,1.8h-0.2L85.2,62c0-0.1,0-0.2,0-0.2c0,0.1,0,0.2,0,0.2l-0.3,1.4H84.6
		L84.6,63.4z"/>
</g>
</svg>
