<?xml version="1.0" encoding="UTF-8"?>
<svg width="310px" height="64px" viewBox="0 0 310 64" version="1.1" xmlns="http://www.w3.org/2000/svg" xmlns:xlink="http://www.w3.org/1999/xlink">
    <!-- Generator: Sketch 43.2 (39069) - http://www.bohemiancoding.com/sketch -->
    <title>marca-petrobras-color</title>
    <desc>Created with Sketch.</desc>
    <defs></defs>
    <g id="Page-1" stroke="none" stroke-width="1" fill="none" fill-rule="evenodd">
        <g id="marca-petrobras-color">
            <g id="Page-1" transform="translate(1.000000, 3.000000)">
                <polygon id="Fill-1" fill="#FDC82F" points="0 13 62 13 62 0 0 0"></polygon>
                <g id="Group-30" transform="translate(0.000000, 20.000000)" fill="#008541">
                    <path d="M23.4816962,7.299084 C23.4816962,6.253884 22.5834533,5.620524 21.5928823,5.620524 L16.6063825,5.620524 L15.4546285,9.694464 L20.7924446,9.694464 C22.3549804,9.694464 23.4816962,8.707764 23.4816962,7.299084" id="Fill-2"></path>
                    <path d="M44.5743636,10.57563 C47.2855235,10.57563 48.1743771,8.59677 48.1743771,7.59135 C48.1743771,7.16001 48.0851788,5.64603 45.8520906,5.64603 L41.1402278,5.64603 C41.1144072,5.76693 39.7733024,10.57563 39.7733024,10.57563 L44.5743636,10.57563 Z" id="Fill-4"></path>
                    <path d="M18.5597477,13.92417 L14.2484949,13.92417 C14.2461476,13.93041 12.869833,18.67749 12.869833,18.67749 L17.6591575,18.67749 C20.3601457,18.67749 20.7857939,17.29845 21.0377401,16.85307 C21.2372626,16.49973 21.3710601,15.47169 21.0823392,14.98575 C20.791271,14.49513 20.670775,13.92417 18.5597477,13.92417" id="Fill-6"></path>
                    <path d="M53.2920141,4.696692 C54.0548946,6.734052 53.474323,8.785452 52.7036181,10.075572 C52.0346306,11.193312 50.3609882,12.936612 48.4338347,13.456092 C49.4377072,13.456092 50.6160641,14.254812 50.6958731,16.026192 C50.718564,16.531632 50.9900712,23.428392 50.9900712,23.428392 L44.9746607,23.429952 L44.7626191,17.284332 C44.6961115,16.565952 44.9410157,14.896752 42.2509818,14.896752 L38.5508158,14.896752 L36.1839302,23.252892 L29.7053143,23.252892 L36.105686,1.216332 L22.16962,1.216332 C24.0772124,1.254552 26.6811778,1.711632 28.0277597,3.347292 C29.6583678,5.327712 29.1497808,7.790172 28.4940948,9.148932 C28.3673393,9.412572 27.3392111,11.205792 25.5716757,12.023232 C25.7265992,12.067692 27.1514252,12.975612 27.6381038,14.477112 C28.3274348,16.599492 27.5043063,19.649292 25.9715033,20.931612 C24.8236616,21.891792 23.8385677,23.208432 18.1815155,23.208432 L5.12491376,23.208432 L11.5025946,1.216332 L-7.82441527e-05,1.216332 L-7.82441527e-05,39.000312 L59.8175765,39.000312 L59.8175765,1.216332 L47.3955348,1.216332 C49.3868485,1.259232 52.1958136,1.769352 53.2920141,4.696692" id="Fill-8"></path>
                    <polygon id="Fill-11" points="124.015104 23.361858 105.554961 23.361858 111.827795 1.358058 129.850553 1.358058 128.38191 6.462378 117.623339 6.462378 116.71023 9.628398 125.84054 9.628398 124.37268 14.773278 115.241587 14.773278 114.248669 18.216198 125.482964 18.216198"></polygon>
                    <path d="M98.3294266,8.797776 C97.8130152,10.578516 96.5431126,11.290656 95.0353478,11.370216 L91.6997996,11.360856 L93.0542059,6.463236 L95.0384776,6.463236 L95.0384776,6.462456 L95.1143744,6.462456 C96.6620438,6.462456 98.8857426,6.739356 98.3294266,8.797776 M97.9335112,1.357356 L95.0353478,1.357356 L95.0353478,1.358136 L87.2977836,1.358136 L80.9850453,23.361936 L88.2500149,23.361936 L90.1951645,16.515876 L93.848384,16.515876 C94.2450819,16.515876 94.6425622,16.515876 95.0384776,16.476096 L95.0384776,16.475316 C100.672839,16.118856 103.9677,13.228956 105.237603,8.757996 C106.507505,4.246476 104.284589,1.357356 97.9335112,1.357356" id="Fill-13"></path>
                    <path d="M269.629507,15.881034 L267.365903,15.881034 L269.629507,11.845314 L271.852423,7.966374 L271.93145,15.881034 L269.629507,15.881034 Z M279.117393,23.362014 L277.489914,1.357434 L270.105231,1.357434 L269.629507,2.069574 L256.329565,22.688874 L255.893746,23.362014 L256.329565,23.362014 L262.999097,23.362014 L264.667262,20.472114 L269.629507,20.472114 L271.892327,20.472114 L271.892327,23.362014 L279.117393,23.362014 Z" id="Fill-15"></path>
                    <path d="M306.271243,7.728708 C306.826777,3.890328 304.921532,0.764088 298.808316,0.764088 C293.249851,0.764088 288.525469,3.098628 287.215662,7.807488 C284.794788,16.197948 298.172191,13.903968 297.21996,17.267328 C296.942193,18.295368 295.552577,18.888948 293.767045,18.888948 C293.051111,18.888948 292.336742,18.691608 291.861018,18.335148 C291.344606,17.938908 291.066057,17.385108 291.145866,16.594188 L284.198568,16.594188 C283.245554,20.551908 286.064691,23.954268 291.900922,23.954268 C297.974233,23.954268 302.976382,21.461388 304.405903,16.356288 C306.708628,8.362068 293.408687,10.380708 294.360918,7.095348 C294.559658,6.304428 295.394524,5.829408 297.022002,5.829408 C297.696467,5.829408 298.331809,5.948748 298.767629,6.225648 C299.205796,6.502548 299.482781,6.977568 299.363849,7.728708 L306.271243,7.728708 Z" id="Fill-17"></path>
                    <path d="M249.462467,8.758152 C249.064987,10.142652 247.914016,10.737012 246.047893,10.854792 L245.413333,10.854792 L242.554291,10.854792 L243.824976,6.462612 L246.047893,6.462612 L247.199647,6.462612 C248.867029,6.462612 249.89907,7.214532 249.462467,8.758152 M256.329174,3.613272 C255.378508,2.069652 252.956069,1.357512 248.468767,1.357512 L246.047893,1.357512 L238.029432,1.357512 L231.756598,23.362092 L238.981663,23.362092 L241.20458,15.683772 L243.389156,15.683772 C244.738085,15.683772 245.571386,15.842112 246.047893,16.197792 C246.802949,16.752372 246.683235,17.781192 246.167606,19.522152 C246.126919,19.681272 246.08858,19.799052 246.047893,19.918392 C245.571386,21.659352 245.413333,22.926072 245.453237,23.362092 L246.047893,23.362092 L252.797233,23.362092 L252.956069,22.688172 C252.121986,22.688172 252.47878,21.738912 253.313645,18.849792 C254.583547,14.417832 253.313645,13.864032 251.248781,12.992772 C253.869178,12.318852 255.575683,10.380552 256.329174,8.046012 C256.409766,7.887672 256.44967,7.769112 256.488792,7.610772 C256.965299,5.948592 256.965299,4.602312 256.329174,3.613272" id="Fill-20"></path>
                    <path d="M223.459275,8.243274 C223.102482,9.510774 221.871701,10.143354 220.403841,10.143354 L218.616745,10.143354 L217.425869,10.143354 L218.457909,6.462534 L218.616745,6.462534 L220.997714,6.462534 C222.546948,6.462534 223.935782,6.503094 223.459275,8.243274 M221.991415,16.197714 C221.55403,17.781894 220.245005,18.176574 218.616745,18.216354 L218.259169,18.216354 L215.123143,18.216354 L216.274115,14.179854 L218.577623,14.179854 L218.616745,14.179854 C220.879565,14.179854 222.546948,14.298414 221.991415,16.197714 M223.261317,1.357434 L218.616745,1.357434 L212.661582,1.357434 L206.389531,23.362014 L217.187224,23.362014 C217.664513,23.362014 218.139455,23.362014 218.616745,23.321454 C223.618893,23.044554 227.311235,21.263814 228.581137,16.752294 C229.255602,14.338194 228.581137,12.280554 226.358221,11.686194 C228.024822,10.816494 229.970754,9.153534 230.606096,6.897774 C231.836094,2.505594 228.224344,1.357434 223.261317,1.357434" id="Fill-22"></path>
                    <path d="M197.09929,12.239994 C196.305894,15.129114 194.876373,17.424654 192.732483,18.256134 C192.17695,18.455034 191.581512,18.572814 190.946169,18.572814 C187.492473,18.572814 187.611404,15.051114 188.445486,12.239994 C189.080829,9.984234 190.469663,7.372794 192.732483,6.462534 C193.248895,6.265194 193.805211,6.145854 194.439771,6.145854 C197.655606,6.067074 197.972494,9.233874 197.09929,12.239994 M196.028127,0.763854 C194.91706,0.763854 193.805211,0.882414 192.732483,1.120314 C187.294515,2.307474 182.8479,6.383754 181.180517,12.161214 C179.076532,19.681194 182.490324,23.954814 189.399283,23.954814 C190.550254,23.954814 191.661321,23.835474 192.732483,23.599134 C197.972494,22.411974 202.578728,18.455034 204.364259,12.239994 C206.032425,6.422754 203.928439,0.763854 196.028127,0.763854" id="Fill-24"></path>
                    <path d="M170.70026,8.758152 C170.30278,10.142652 169.151808,10.737012 167.286468,10.854792 L166.650343,10.854792 L163.792866,10.854792 L165.062769,6.462612 L167.286468,6.462612 L168.437439,6.462612 C170.104822,6.462612 171.136863,7.214532 170.70026,8.758152 M169.706559,1.357512 L167.286468,1.357512 L159.306347,1.357512 L153.867596,20.472192 L153.034295,23.362092 L153.867596,23.362092 L160.299265,23.362092 L162.443155,15.683772 L164.626167,15.683772 C165.976661,15.683772 166.809179,15.842112 167.286468,16.197792 C168.041524,16.752372 167.921028,17.781192 167.404617,19.522152 C167.365494,19.681272 167.326372,19.799052 167.286468,19.918392 C166.849865,21.659352 166.650343,22.926072 166.690247,23.362092 L167.286468,23.362092 L174.035026,23.362092 L174.233766,22.688172 C173.359779,22.688172 173.716572,21.738912 174.550655,18.849792 C175.82134,14.417832 174.550655,13.864032 172.486574,12.992772 C175.265024,12.280632 176.972312,10.142652 177.726585,7.610772 C178.918244,3.336372 177.092025,1.357512 169.706559,1.357512" id="Fill-26"></path>
                    <polygon id="Fill-28" points="153.86783 4.246164 154.701131 1.357824 153.86783 1.357824 134.415552 1.357824 132.788073 7.135284 139.298769 7.135284 134.653414 23.361624 141.879261 23.361624 146.523834 7.135284 153.03453 7.135284"></polygon>
                </g>
            </g>
        </g>
    </g>
</svg>