<?xml version="1.0" encoding="UTF-8"?>
<svg width="225px" height="114px" viewBox="0 0 225 114" version="1.1" xmlns="http://www.w3.org/2000/svg" xmlns:xlink="http://www.w3.org/1999/xlink">
    <!-- Generator: Sketch 43.2 (39069) - http://www.bohemiancoding.com/sketch -->
    <title>marca-museu-nacional</title>
    <desc>Created with Sketch.</desc>
    <defs>
        <polygon id="path-1" points="0 54 216 54 216 0.0935357143 0 0.0935357143"></polygon>
    </defs>
    <g id="Page-1" stroke="none" stroke-width="1" fill="none" fill-rule="evenodd">
        <g id="marca-museu-nacional">
            <g id="Page-1" transform="translate(4.000000, 29.000000)">
                <polygon id="Fill-1" fill="#1D1C1B" points="132.495196 31 134.483492 36.3846154 134.512228 36.3846154 136.50511 31 138 31 138 38 136.84658 38 136.84658 35.6153846 136.960608 32.5818462 136.932177 32.5769231 134.882129 38 134.108394 38 132.068128 32.5913846 132.039698 32.596 132.15342 35.6153846 132.15342 38 131 38 131 31"></polygon>
                <g id="Group-38">
                    <path d="M145.690722,30.8843036 L145.690722,35.7860893 C145.690722,36.5964107 145.429669,37.218375 144.907243,37.6519821 C144.384497,38.0855893 143.701669,38.3022321 142.858757,38.3022321 C142.031822,38.3022321 141.362095,38.084625 140.849893,37.6494107 C140.337053,37.2141964 140.080793,36.5931964 140.080793,35.7860893 L140.080793,30.8843036 L141.286367,30.8843036 L141.286367,35.7822321 C141.286367,36.2942679 141.428237,36.6790179 141.712935,36.9364821 C141.996994,37.1942679 142.379148,37.3228393 142.858757,37.3228393 C143.354343,37.3228393 143.749917,37.1942679 144.044201,36.9364821 C144.338485,36.6790179 144.485787,36.2942679 144.485787,35.7822321 L144.485787,30.8843036 L145.690722,30.8843036 Z" id="Fill-2" fill="#1D1C1B"></path>
                    <path d="M151.042793,36.3127821 C151.042793,36.009675 150.931278,35.7612107 150.707929,35.5680321 C150.484899,35.3745321 150.090604,35.2012821 149.525041,35.0476393 C148.718237,34.8335679 148.097396,34.5497464 147.662521,34.1964964 C147.227964,33.8432464 147.010367,33.3803893 147.010367,32.807925 C147.010367,32.2187464 147.25097,31.7330679 147.732178,31.3512107 C148.213385,30.969675 148.833905,30.7787464 149.594698,30.7787464 C150.388083,30.7787464 151.025538,30.9957107 151.506746,31.4293179 C151.987953,31.862925 152.220249,32.382675 152.203633,32.9885679 L152.193728,33.0187821 L151.038,33.0187821 C151.038,32.643675 150.912426,32.339925 150.660959,32.1072107 C150.409811,31.8744964 150.050982,31.7581393 149.584793,31.7581393 C149.144805,31.7581393 148.806746,31.8552107 148.570296,32.0487107 C148.333527,32.2425321 148.215621,32.4932464 148.215621,32.8005321 C148.215621,33.077925 148.343751,33.3083893 148.600012,33.4922464 C148.856272,33.6757821 149.280284,33.8493536 149.872367,34.0132821 C150.649456,34.2241393 151.239621,34.5153536 151.643183,34.886925 C152.046746,35.2588179 152.248047,35.7326036 152.248047,36.3082821 C152.248047,36.9177107 152.007763,37.402425 151.526556,37.762425 C151.045349,38.122425 150.413006,38.3021036 149.629207,38.3021036 C148.875444,38.3021036 148.213704,38.0989607 147.645266,37.6920321 C147.076509,37.2851036 146.800438,36.7303179 146.816734,36.0270321 L146.826959,35.9971393 L147.98716,35.9971393 C147.98716,36.4423179 148.139574,36.774675 148.443763,36.9938893 C148.747953,37.213425 149.143207,37.3230321 149.629207,37.3230321 C150.075905,37.3230321 150.422911,37.2320679 150.670864,37.0504607 C150.918817,36.8685321 151.042793,36.6229607 151.042793,36.3127821" id="Fill-4" fill="#1D1C1B"></path>
                    <polygon id="Fill-6" fill="#1D1C1B" points="157.882963 34.907175 154.723164 34.907175 154.723164 37.2172821 158.388774 37.2172821 158.388774 38.196675 153.51791 38.196675 153.51791 30.884175 158.354265 30.884175 158.354265 31.8635679 154.723164 31.8635679 154.723164 33.9277821 157.882963 33.9277821"></polygon>
                    <path d="M164.891652,30.8843036 L164.891652,35.7860893 C164.891652,36.5964107 164.630599,37.218375 164.108173,37.6519821 C163.585427,38.0855893 162.902599,38.3022321 162.059688,38.3022321 C161.232753,38.3022321 160.563025,38.084625 160.050824,37.6494107 C159.537983,37.2141964 159.281723,36.5931964 159.281723,35.7860893 L159.281723,30.8843036 L160.487297,30.8843036 L160.487297,35.7822321 C160.487297,36.2942679 160.629167,36.6790179 160.913865,36.9364821 C161.197924,37.1942679 161.580078,37.3228393 162.059688,37.3228393 C162.555273,37.3228393 162.950847,37.1942679 163.245131,36.9364821 C163.539415,36.6790179 163.686717,36.2942679 163.686717,35.7822321 L163.686717,30.8843036 L164.891652,30.8843036 Z" id="Fill-8" fill="#1D1C1B"></path>
                    <polygon id="Fill-10" fill="#1D1C1B" points="173.079522 38.1968036 171.87906 38.1968036 168.675167 32.8581964 168.645131 32.8681607 168.645131 38.1968036 167.439877 38.1968036 167.439877 30.8843036 168.645131 30.8843036 171.849344 36.2180893 171.87906 36.208125 171.87906 30.8843036 173.079522 30.8843036"></polygon>
                    <path d="M176.095374,35.469675 L178.233327,35.469675 L177.186877,32.3457107 L177.156841,32.3457107 L176.095374,35.469675 Z M178.57554,36.4892464 L175.748368,36.4892464 L175.172901,38.196675 L173.952628,38.196675 L176.606617,30.884175 L177.747327,30.884175 L180.371279,38.196675 L179.145895,38.196675 L178.57554,36.4892464 Z" id="Fill-12" fill="#1D1C1B"></path>
                    <path d="M186.477178,35.7710143 L186.487083,35.8012286 C186.500183,36.5411571 186.263095,37.1431929 185.775497,37.6066929 C185.28726,38.0705143 184.627118,38.3022643 183.793793,38.3022643 C182.950562,38.3022643 182.265178,38.0152286 181.737639,37.4408357 C181.21042,36.8667643 180.946491,36.1326214 180.946491,35.2387286 L180.946491,33.8475857 C180.946491,32.9569071 181.207225,32.2227643 181.728053,31.6451571 C182.248882,31.06755 182.925639,30.7789071 183.758964,30.7789071 C184.612101,30.7789071 185.284385,31.0058357 185.775497,31.4593714 C186.26629,31.9132286 186.505296,32.5233 186.492195,33.2899071 L186.48229,33.3201214 L185.316337,33.3201214 C185.316337,32.8280143 185.185012,32.44455 184.922361,32.17005 C184.659391,31.89555 184.271805,31.7583 183.758964,31.7583 C183.266254,31.7583 182.875473,31.9556571 182.585982,32.35005 C182.296491,32.7450857 182.152065,33.2400857 182.152065,33.8356929 L182.152065,35.2355143 C182.152065,35.8378714 182.300006,36.3360857 182.595888,36.7308 C182.891769,37.1255143 183.290858,37.3228714 183.793793,37.3228714 C184.292893,37.3228714 184.671852,37.1878714 184.929391,36.9172286 C185.187568,36.6472286 185.316337,36.26505 185.316337,35.7710143 L186.477178,35.7710143 Z" id="Fill-14" fill="#1D1C1B"></path>
                    <mask id="mask-2" fill="white">
                        <use xlink:href="#path-1"></use>
                    </mask>
                    <g id="Clip-17"></g>
                    <polygon id="Fill-16" fill="#1D1C1B" mask="url(#mask-2)" points="187.737231 38.1966429 188.942485 38.1966429 188.942485 30.8841429 187.737231 30.8841429"></polygon>
                    <path d="M195.018891,33.8725607 C195.018891,33.2631321 194.85753,32.7626679 194.535128,32.3708464 C194.212725,31.979025 193.776891,31.783275 193.228264,31.783275 C192.698808,31.783275 192.280867,31.979025 191.973163,32.3708464 C191.665779,32.7626679 191.511767,33.2631321 191.511767,33.8725607 L191.511767,35.1984536 C191.511767,35.8146321 191.665779,36.319275 191.973163,36.7127036 C192.280867,37.1061321 192.700725,37.3028464 193.233057,37.3028464 C193.785518,37.3028464 194.221033,37.1070964 194.54024,36.715275 C194.859128,36.3234536 195.018891,35.8178464 195.018891,35.1984536 L195.018891,33.8725607 Z M196.219033,35.1984536 C196.219033,36.0923464 195.942323,36.8332393 195.388264,37.4208107 C194.834524,38.0083821 194.116228,38.3021679 193.233057,38.3021679 C192.366501,38.3021679 191.663222,38.0083821 191.122583,37.4208107 C190.581944,36.8332393 190.311625,36.0923464 190.311625,35.1984536 L190.311625,33.882525 C190.311625,32.9921679 190.581944,32.2519179 191.122583,31.6627393 C191.663222,31.0735607 192.364903,30.7788107 193.228264,30.7788107 C194.111116,30.7788107 194.83037,31.0735607 195.385708,31.6627393 C195.941364,32.2519179 196.219033,32.9921679 196.219033,33.882525 L196.219033,35.1984536 Z" id="Fill-18" fill="#1D1C1B" mask="url(#mask-2)"></path>
                    <polygon id="Fill-19" fill="#1D1C1B" mask="url(#mask-2)" points="203.163401 38.1968036 201.96294 38.1968036 198.759046 32.8581964 198.729011 32.8681607 198.729011 38.1968036 197.523756 38.1968036 197.523756 30.8843036 198.729011 30.8843036 201.933224 36.2180893 201.96294 36.208125 201.96294 30.8843036 203.163401 30.8843036"></polygon>
                    <path d="M206.179221,35.469675 L208.317174,35.469675 L207.270724,32.3457107 L207.240689,32.3457107 L206.179221,35.469675 Z M208.659387,36.4892464 L205.832215,36.4892464 L205.256748,38.196675 L204.036476,38.196675 L206.690464,30.884175 L207.831174,30.884175 L210.455127,38.196675 L209.229742,38.196675 L208.659387,36.4892464 Z" id="Fill-20" fill="#1D1C1B" mask="url(#mask-2)"></path>
                    <polygon id="Fill-21" fill="#1D1C1B" mask="url(#mask-2)" points="212.498627 37.2174429 215.817231 37.2174429 215.817231 38.1968357 211.293373 38.1968357 211.293373 30.8843357 212.498627 30.8843357"></polygon>
                    <path d="M137.267904,46.469025 L137.267904,51.3206679 C137.267904,52.1409536 136.998224,52.7738464 136.459182,53.219025 C135.919821,53.664525 135.214307,53.8869536 134.342318,53.8869536 C133.473525,53.8869536 132.772164,53.664525 132.237916,53.219025 C131.703667,52.7738464 131.436543,52.1409536 131.436543,51.3206679 L131.436543,46.469025 L132.899336,46.469025 L132.899336,51.3168107 C132.899336,51.7983107 133.027466,52.1589536 133.283727,52.3980964 C133.539987,52.6372393 133.892744,52.7568107 134.342318,52.7568107 C134.798283,52.7568107 135.156153,52.6382036 135.415608,52.4006679 C135.675383,52.1631321 135.805111,51.8018464 135.805111,51.3168107 L135.805111,46.469025 L137.267904,46.469025 Z" id="Fill-22" fill="#1D1C1B" mask="url(#mask-2)"></path>
                    <polygon id="Fill-23" fill="#1D1C1B" mask="url(#mask-2)" points="147.830049 50.7430286 144.78464 50.7430286 144.78464 53.7814929 143.32664 53.7814929 143.32664 46.4689929 148.339374 46.4689929 148.339374 47.5991357 144.78464 47.5991357 144.78464 49.6128857 147.830049 49.6128857"></polygon>
                    <path d="M155.47156,49.7285036 L156.729856,49.7285036 C157.139169,49.7285036 157.444317,49.6413964 157.645938,49.4675036 C157.84724,49.2932893 157.947891,49.0355036 157.947891,48.693825 C157.947891,48.3592179 157.84724,48.093075 157.645938,47.8953964 C157.444317,47.6980393 157.147477,47.5990393 156.754779,47.5990393 L155.47156,47.5990393 L155.47156,49.7285036 Z M155.47156,50.8586464 L155.47156,53.7813964 L154.013879,53.7813964 L154.013879,46.4688964 L156.754779,46.4688964 C157.583311,46.4688964 158.231631,46.6591821 158.699418,47.0391107 C159.166885,47.4190393 159.400779,47.949075 159.400779,48.628575 C159.400779,49.0072179 159.302364,49.3318607 159.106175,49.602825 C158.909666,49.8741107 158.621773,50.0936464 158.242495,50.2607893 C158.671938,50.3883964 158.980282,50.6008607 159.168483,50.898825 C159.356684,51.1967893 159.450625,51.5651464 159.450625,52.003575 L159.450625,52.5410036 C159.450625,52.7454321 159.478104,52.9588607 159.533063,53.1812893 C159.588021,53.4043607 159.681962,53.5689321 159.815205,53.6759679 L159.815205,53.7813964 L158.312471,53.7813964 C158.179228,53.6743607 158.092637,53.495325 158.052696,53.2442893 C158.012755,52.9929321 157.992944,52.7553964 157.992944,52.5310393 L157.992944,52.0135393 C157.992944,51.6490393 157.893891,51.3652179 157.695785,51.1623964 C157.497678,50.9598964 157.219051,50.8586464 156.859583,50.8586464 L155.47156,50.8586464 Z" id="Fill-24" fill="#1D1C1B" mask="url(#mask-2)"></path>
                    <path d="M168.604903,46.469025 L170.057791,46.469025 L170.057791,51.5868107 C170.057791,52.2933107 169.829009,52.8532393 169.371128,53.2665964 C168.913566,53.6805964 168.335222,53.8869536 167.636418,53.8869536 C166.877542,53.8869536 166.276512,53.7011679 165.833968,53.3295964 C165.391104,52.9577036 165.178299,52.4103107 165.194915,51.6870964 L165.20482,51.6572036 L166.622879,51.6572036 C166.622879,52.0403464 166.714264,52.3193464 166.897353,52.494525 C167.080441,52.6697036 167.326796,52.7568107 167.636418,52.7568107 C167.905779,52.7568107 168.13456,52.6523464 168.322761,52.4434179 C168.510962,52.2344893 168.604903,51.9474536 168.604903,51.5826321 L168.604903,46.469025 Z" id="Fill-25" fill="#1D1C1B" mask="url(#mask-2)"></path>
                    <path d="M131.325444,42.4240071 L216,42.4240071" id="Stroke-26" stroke="#1D1C1B" stroke-width="2" mask="url(#mask-2)"></path>
                    <path d="M140.278133,22.5817714 L131.146701,22.5817714 L131.146701,21.2597357 L135.760665,16.1107714 C136.586002,15.1831286 137.145493,14.4467357 137.439138,13.9019143 C137.732464,13.3570929 137.879127,12.7990929 137.879127,12.2282357 C137.879127,11.5214143 137.67431,10.9258071 137.264996,10.4427 C136.855363,9.95927143 136.312168,9.71787857 135.635091,9.71787857 C134.661174,9.71787857 133.943837,9.96923571 133.48276,10.4716286 C133.021683,10.9746643 132.790985,11.6802 132.790985,12.5882357 L130.962973,12.5882357 L130.943482,12.5300571 C130.911209,11.3105571 131.314133,10.2855214 132.15257,9.45495 C132.991008,8.6247 134.151849,8.20941429 135.635091,8.20941429 C136.898819,8.20941429 137.906606,8.58066429 138.657813,9.32348571 C139.40902,10.0663071 139.784783,11.01195 139.784783,12.1600929 C139.784783,12.9321643 139.5576,13.7058429 139.102914,14.4808071 C138.648227,15.2560929 138.011411,16.0882714 137.192464,16.9770214 L133.487553,21.0247714 L133.507044,21.0736286 L140.278133,21.0736286 L140.278133,22.5817714 Z" id="Fill-27" fill="#1D1C1B" mask="url(#mask-2)"></path>
                    <path d="M149.312844,13.4122821 C149.312844,12.1873179 149.092051,11.2651393 148.650146,10.6463893 C148.20824,10.0273179 147.568548,9.71778214 146.73011,9.71778214 C145.891672,9.71778214 145.253258,10.0273179 144.814867,10.6463893 C144.376157,11.2651393 144.156962,12.1873179 144.156962,13.4122821 L144.156962,17.5638536 C144.156962,18.7891393 144.379672,19.7138893 144.824453,20.3397107 C145.269554,20.9652107 145.911163,21.2779607 146.749601,21.2779607 C147.58772,21.2779607 148.224536,20.9668179 148.660051,20.3442107 C149.095246,19.7222464 149.312844,18.7955679 149.312844,17.5638536 L149.312844,13.4122821 Z M151.218501,17.1813536 C151.218501,18.9909964 150.820051,20.3776393 150.023791,21.3412821 C149.227211,22.3042821 148.135708,22.7861036 146.749601,22.7861036 C145.362856,22.7861036 144.26656,22.3029964 143.460714,21.3361393 C142.654548,20.369925 142.251305,18.9848893 142.251305,17.1813536 L142.251305,13.8240321 C142.251305,12.0208179 142.65295,10.6338536 143.455601,9.664425 C144.258572,8.69435357 145.350075,8.20931786 146.73011,8.20931786 C148.116536,8.20931786 149.211234,8.69435357 150.014205,9.664425 C150.817175,10.6338536 151.218501,12.0208179 151.218501,13.8240321 L151.218501,17.1813536 Z" id="Fill-28" fill="#1D1C1B" mask="url(#mask-2)"></path>
                    <path d="M160.475698,13.4122821 C160.475698,12.1873179 160.254905,11.2651393 159.813,10.6463893 C159.371095,10.0273179 158.731402,9.71778214 157.892964,9.71778214 C157.054527,9.71778214 156.416112,10.0273179 155.977722,10.6463893 C155.539012,11.2651393 155.319817,12.1873179 155.319817,13.4122821 L155.319817,17.5638536 C155.319817,18.7891393 155.542527,19.7138893 155.987308,20.3397107 C156.432408,20.9652107 157.074018,21.2779607 157.912456,21.2779607 C158.750574,21.2779607 159.387391,20.9668179 159.822905,20.3442107 C160.258101,19.7222464 160.475698,18.7955679 160.475698,17.5638536 L160.475698,13.4122821 Z M162.381355,17.1813536 C162.381355,18.9909964 161.982905,20.3776393 161.186645,21.3412821 C160.390065,22.3042821 159.298562,22.7861036 157.912456,22.7861036 C156.52571,22.7861036 155.429414,22.3029964 154.623568,21.3361393 C153.817402,20.369925 153.41416,18.9848893 153.41416,17.1813536 L153.41416,13.8240321 C153.41416,12.0208179 153.815805,10.6338536 154.618456,9.664425 C155.421426,8.69435357 156.512929,8.20931786 157.892964,8.20931786 C159.279391,8.20931786 160.374089,8.69435357 161.177059,9.664425 C161.98003,10.6338536 162.381355,12.0208179 162.381355,13.8240321 L162.381355,17.1813536 Z" id="Fill-29" fill="#1D1C1B" mask="url(#mask-2)"></path>
                    <path d="M167.441634,22.0698 C167.770427,22.0698 168.066948,21.9836571 168.331196,21.8113714 C168.595445,21.6394071 168.76735,21.4423714 168.847232,21.2199429 L168.847232,20.39355 L167.828901,20.39355 C167.463043,20.39355 167.170356,20.4874071 166.950841,20.6751214 C166.731327,20.8631571 166.621409,21.0839786 166.621409,21.3375857 C166.621409,21.5629071 166.690427,21.7413 166.828782,21.8727643 C166.967137,22.0042286 167.171315,22.0698 167.441634,22.0698 L167.441634,22.0698 Z M168.948522,22.7525143 C168.917847,22.5988714 168.893883,22.4632286 168.877267,22.3449429 C168.860333,22.2276214 168.850427,22.1090143 168.847232,21.9897643 C168.678202,22.2346929 168.457729,22.4391214 168.186131,22.6043357 C167.914214,22.7689071 167.621208,22.8515143 167.308072,22.8515143 C166.788841,22.8515143 166.393267,22.7158714 166.12135,22.4442643 C165.849433,22.1726571 165.713634,21.7981929 165.713634,21.3211929 C165.713634,20.83455 165.906309,20.4543 166.291978,20.1791571 C166.677327,19.9049786 167.200392,19.7674071 167.860853,19.7674071 L168.847232,19.7674071 L168.847232,19.2637286 C168.847232,18.9654429 168.758084,18.7288714 168.580108,18.5549786 C168.401812,18.3804429 168.149705,18.2936571 167.824108,18.2936571 C167.53238,18.2936571 167.294972,18.3698357 167.112202,18.5218714 C166.929433,18.67455 166.838049,18.8571214 166.838049,19.07055 L165.971492,19.07055 L165.962546,19.0422643 C165.944013,18.6719786 166.115279,18.3328714 166.476344,18.0252643 C166.83709,17.7176571 167.303279,17.5636929 167.874912,17.5636929 C168.440155,17.5636929 168.894841,17.7105857 169.238972,18.00405 C169.583102,18.2978357 169.755007,18.7205143 169.755007,19.27305 L169.755007,21.7261929 C169.755007,21.9081214 169.764273,22.0839429 169.782806,22.2533357 C169.801338,22.42305 169.834889,22.5892286 169.884096,22.7525143 L168.948522,22.7525143 Z" id="Fill-30" fill="#1D1C1B" mask="url(#mask-2)"></path>
                    <path d="M172.35605,17.658 L172.420594,18.4159286 C172.586428,18.14625 172.79476,17.9366786 173.044949,17.7872143 C173.295458,17.6383929 173.580476,17.5638214 173.900002,17.5638214 C174.437446,17.5638214 174.853789,17.7248571 175.148712,18.0466071 C175.443636,18.3683571 175.591257,18.8649643 175.591257,19.53675 L175.591257,22.7526429 L174.683482,22.7526429 L174.683482,19.5553929 C174.683482,19.1066786 174.59657,18.7881429 174.423067,18.5997857 C174.249245,18.4114286 173.984357,18.31725 173.628085,18.31725 C173.367032,18.31725 173.135695,18.3815357 172.934393,18.5101071 C172.733091,18.639 172.572689,18.8148214 172.452866,19.0375714 L172.452866,22.7526429 L171.545091,22.7526429 L171.545091,17.658 L172.35605,17.658 Z" id="Fill-31" fill="#1D1C1B" mask="url(#mask-2)"></path>
                    <path d="M178.07695,20.2592571 C178.07695,20.7986143 178.188465,21.2437929 178.410856,21.5947929 C178.633885,21.9461143 178.964915,22.1216143 179.404264,22.1216143 C179.837222,22.1216143 180.166015,21.9461143 180.390323,21.5947929 C180.614631,21.2437929 180.726785,20.7986143 180.726785,20.2592571 L180.726785,20.1560786 C180.726785,19.62315 180.613672,19.1795786 180.388086,18.8250429 C180.162181,18.4708286 179.831151,18.2937214 179.394998,18.2937214 C178.96172,18.2937214 178.633885,18.4708286 178.410856,18.8250429 C178.188465,19.1795786 178.07695,19.62315 178.07695,20.1560786 L178.07695,20.2592571 Z M177.169175,20.1583286 C177.169175,19.4049 177.368879,18.7842214 177.768288,18.2959714 C178.167696,17.8080429 178.709613,17.5637571 179.394998,17.5637571 C180.086134,17.5637571 180.632205,17.8070786 181.033211,18.2937214 C181.434217,18.7800429 181.63456,19.4016857 181.63456,20.1583286 L181.63456,20.2618286 C181.63456,21.0213643 181.434856,21.6430071 181.035447,22.1264357 C180.636039,22.6095429 180.092524,22.8512571 179.404264,22.8512571 C178.716004,22.8512571 178.17153,22.6089 177.770524,22.1241857 C177.369518,21.6388286 177.169175,21.01815 177.169175,20.2618286 L177.169175,20.1583286 Z" id="Fill-32" fill="#1D1C1B" mask="url(#mask-2)"></path>
                    <path d="M186.115985,21.3965036 C186.115985,21.1923964 186.039937,21.0246107 185.887843,20.892825 C185.735748,20.7607179 185.447854,20.6462893 185.023843,20.5488964 C184.418659,20.4142179 183.963014,20.2316464 183.657547,20.0011821 C183.35176,19.7707179 183.199026,19.4566821 183.199026,19.0587536 C183.199026,18.645075 183.370931,18.2924679 183.715062,18.0012536 C184.059192,17.7093964 184.507488,17.5637893 185.060588,17.5637893 C185.641488,17.5637893 186.102884,17.7161464 186.445417,18.0205393 C186.787949,18.3249321 186.951547,18.6955393 186.936209,19.1317179 L186.926943,19.1600036 L186.060707,19.1600036 C186.060707,18.9372536 185.969322,18.737325 185.786553,18.559575 C185.603464,18.3824679 185.361582,18.2937536 185.060588,18.2937536 C184.738186,18.2937536 184.498541,18.3657536 184.341653,18.5103964 C184.185085,18.6547179 184.106801,18.8289321 184.106801,19.0327179 C184.106801,19.2336107 184.175819,19.3923964 184.314174,19.5084321 C184.452209,19.6244679 184.733393,19.7282893 185.157405,19.8192536 C185.787192,19.9571464 186.255618,20.1448607 186.563002,20.382075 C186.870067,20.6189679 187.02376,20.9365393 187.02376,21.3354321 C187.02376,21.7873607 186.844825,22.1531464 186.486955,22.4324679 C186.129085,22.7117893 185.661298,22.8512893 185.083594,22.8512893 C184.447736,22.8512893 183.946718,22.6867179 183.58118,22.3569321 C183.215641,22.0274679 183.042138,21.6430393 183.060671,21.203325 L183.069937,21.1753607 L183.936174,21.1753607 C183.951511,21.5032179 184.071334,21.7430036 184.295641,21.8943964 C184.519949,22.0461107 184.7826,22.1216464 185.083594,22.1216464 C185.406316,22.1216464 185.659062,22.0551107 185.841831,21.9213964 C186.0246,21.788325 186.115985,21.6131464 186.115985,21.3965036" id="Fill-33" fill="#1D1C1B" mask="url(#mask-2)"></path>
                    <polygon id="Fill-34" fill="#1D1C1B" mask="url(#mask-2)" points="123.576156 15.1311536 84.9089609 15.1240821 61.8436118 8.147475 38.745032 15.1025464 0.319398817 15.1025464 0.319398817 7.38826071 37.6218959 7.38826071 61.8484047 0.0934392857 86.0378485 7.41011786 123.577754 7.41686786"></polygon>
                    <polygon id="Fill-36" fill="#1D1C1B" mask="url(#mask-2)" points="84.7522651 54 77.083626 53.9765357 77.1539219 30.8526429 7.66870296 30.8526429 7.66870296 53.9955 6.39053254e-05 53.9955 6.39053254e-05 23.1383571 84.8458864 23.1383571"></polygon>
                    <polygon id="Fill-37" fill="#1D1C1B" mask="url(#mask-2)" points="123.656805 53.9954357 115.988166 53.9954357 115.988166 30.53115 100.331361 30.53115 100.331361 53.9954357 92.6627219 53.9954357 92.6627219 22.8168643 123.656805 22.8168643"></polygon>
                </g>
            </g>
        </g>
    </g>
</svg>