<svg xmlns="http://www.w3.org/2000/svg" width="31" height="30" viewBox="0 0 31 30">
    <g fill="none" fill-rule="evenodd">
        <path fill="#006BBD" d="M.286 15c0-8.284 6.715-15 15-15 8.284 0 15 6.716 15 15 0 8.284-6.716 15-15 15-8.285 0-15-6.716-15-15z"/>
        <path fill="#FFF" d="M14.836 12.192l.032.52-.525-.064c-1.91-.244-3.578-1.07-4.994-2.458l-.692-.688-.179.508c-.378 1.134-.136 2.33.65 3.136.42.444.326.508-.398.243-.252-.085-.472-.148-.493-.116-.074.074.178 1.038.378 1.419.272.53.828 1.049 1.437 1.356l.514.243-.608.011c-.588 0-.609.01-.546.233.21.689 1.039 1.42 1.962 1.737l.65.223-.566.339a5.907 5.907 0 0 1-2.812.784c-.472.01-.86.053-.86.084 0 .106 1.28.7 2.025.932 2.235.689 4.89.392 6.883-.783 1.416-.837 2.832-2.5 3.493-4.11.357-.858.714-2.426.714-3.178 0-.487.031-.55.619-1.133.346-.34.671-.71.734-.816.105-.201.095-.201-.44-.021-.892.317-1.018.275-.577-.202.325-.339.713-.953.713-1.133 0-.032-.157.021-.336.117-.188.106-.608.264-.923.36l-.566.18-.515-.35c-.283-.19-.682-.402-.891-.466-.536-.148-1.354-.127-1.837.043-1.311.476-2.14 1.705-2.046 3.05z"/>
    </g>
</svg>
