<?xml version="1.0" encoding="UTF-8"?>
<svg width="214px" height="114px" viewBox="0 0 214 114" version="1.1" xmlns="http://www.w3.org/2000/svg" xmlns:xlink="http://www.w3.org/1999/xlink">
    <!-- Generator: Sketch 43.2 (39069) - http://www.bohemiancoding.com/sketch -->
    <title>marca-amigos-do-museu</title>
    <desc>Created with Sketch.</desc>
    <defs>
        <polygon id="path-1" points="6.46215206 0.1265 0.305754964 0.1265 0.305754964 26.84385 6.46215206 26.84385 6.46215206 0.1265"></polygon>
        <polygon id="path-3" points="26.3398026 25 0.0199925318 25 0.0199925318 0.38629771 26.3398026 0.38629771 26.3398026 25"></polygon>
    </defs>
    <g id="Page-1" stroke="none" stroke-width="1" fill="none" fill-rule="evenodd">
        <g id="marca-amigos-do-museu">
            <g id="Page-1" transform="translate(3.000000, 26.000000)">
                <path d="M88.7537743,17.9555721 L85.4387307,9.40158848 L82.0641683,17.9590469 L88.7537743,17.9555721 Z M90.6188615,22.7453462 L80.1705722,22.7513031 L78.483041,26.9965252 L72,27 L82.3662635,3.00347481 L88.8488043,3 L99,26.985108 L92.2758831,26.9885828 L90.6188615,22.7453462 Z" id="Fill-1" fill="#FFB600"></path>
                <g id="Group-31">
                    <path d="M133.604041,15.091 L133.610588,26.846 L127.429009,26.8495 L127.423973,16.8525 C127.422462,14.715 126.241949,13.4405 124.331673,13.4415 C122.144399,13.477 120.791644,15.202 120.793154,17.649 L120.797687,26.853 L114.616612,26.856 L114.611072,16.8595 C114.609561,14.722 113.429048,13.4475 111.518772,13.4485 C109.332002,13.484 107.943992,15.2085 107.945503,17.656 L107.950036,26.86 L101.803711,26.8635 L101.793639,8.2135 L107.939963,8.2105 L107.941978,11.279 C109.225232,9.1055 111.343004,7.9675 114.051033,7.966 C117.106065,7.964 119.364854,9.5145 120.303624,12.1335 C121.516874,9.375 123.808399,7.9605 126.863431,7.959 C130.925726,7.9565 133.601523,10.713 133.604041,15.091" id="Fill-2" fill="#FFB600"></path>
                    <g id="Group-6" transform="translate(137.491525, 0.000000)">
                        <mask id="mask-2" fill="white">
                            <use xlink:href="#path-1"></use>
                        </mask>
                        <g id="Clip-5"></g>
                        <path d="M6.20580339,2.95135 C6.20681065,4.57185 5.02680097,5.74435 3.39452978,5.74535 C1.76276223,5.74635 0.581745278,4.57485 0.580738015,2.95435 C0.579730751,1.29935 1.75974044,0.12735 3.39150799,0.12635 C5.02377918,0.12535 6.20479613,1.29635 6.20580339,2.95135 L6.20580339,2.95135 Z M6.45157579,8.19085 L6.46215206,26.84035 L0.316331235,26.84385 L0.305754964,8.19435 L6.45157579,8.19085 Z" id="Fill-4" fill="#FFB600" mask="url(#mask-2)"></path>
                    </g>
                    <path d="M160.50947,16.97235 C160.507959,14.35285 158.978933,12.59535 156.721654,12.59635 C154.430632,12.59785 152.90362,14.39135 152.905131,16.97685 C152.906642,19.52735 154.435165,21.31935 156.726691,21.31835 C158.983969,21.31685 160.510477,19.52385 160.50947,16.97235 L160.50947,16.97235 Z M166.650255,8.17885 L166.659824,25.17385 C166.662342,30.44785 162.53256,33.75935 156.45624,33.76285 C153.157451,33.76485 150.170913,32.73235 148.052134,31.35485 L150.202138,27.11285 C151.904415,28.28385 153.988444,28.93785 156.002468,28.93685 C158.814749,28.93535 160.51501,27.52085 160.514003,25.34935 L160.512996,23.34985 C159.298739,24.93685 157.493218,25.79885 155.166439,25.79985 C150.47964,25.80285 147.144085,22.21935 147.141063,16.80735 C147.138042,11.49935 150.365315,7.98085 155.018371,7.97835 C157.379398,7.97735 159.254923,8.87235 160.505441,10.45785 L160.504434,8.18235 L166.650255,8.17885 Z" id="Fill-7" fill="#FFB600"></path>
                    <path d="M175.854985,17.55045 C175.856496,20.34245 177.489271,22.20345 179.885048,22.20195 C182.316079,22.20095 183.945832,20.33795 183.944322,17.54595 C183.943314,14.78845 182.310539,12.92795 179.879508,12.92895 C177.483731,12.93045 175.853474,14.79245 175.854985,17.55045 M190.160651,17.47395 C190.163673,23.23045 186.068138,27.02445 179.887566,27.02795 C173.706491,27.03145 169.641677,23.24195 169.638656,17.48445 C169.635634,11.76195 173.696418,7.96845 179.87699,7.96495 C186.058065,7.96145 190.157125,11.75095 190.160651,17.47395" id="Fill-9" fill="#FFB600"></path>
                    <g id="Group-13" transform="translate(191.380145, 7.500000)" fill="#FFB600">
                        <path d="M8.49672446,4.65985 C7.45571719,4.66035 6.72645811,5.03985 6.72696174,5.83285 C6.72847264,8.28035 16.5885792,7.10335 16.5578576,13.58385 C16.5598722,17.41035 13.1920852,19.58385 8.60953801,19.58635 C5.44975109,19.58785 2.42795932,18.69335 0.134923002,16.93685 L2.07743148,12.97085 C4.23146538,14.45235 6.66249685,15.27785 8.74551864,15.27635 C9.89228862,15.27585 10.7247923,14.89685 10.7242886,14.13835 C10.7227777,11.58685 1.03642421,12.86785 1.03289879,6.42185 C1.03088426,2.52585 4.32765908,0.38735 8.73746053,0.38485 C11.4454896,0.38335 14.1892765,1.14035 16.5513104,2.55235 L14.4697995,6.55235 C12.1435235,5.34735 10.0242402,4.65885 8.49672446,4.65985" id="Fill-11"></path>
                    </g>
                    <path d="M14.3057162,51.5026 C14.3042053,48.7101 12.6714305,46.8496 10.2756533,46.8506 C7.84562906,46.8521 6.21436513,48.7491 6.21587603,51.5071 C6.21688329,54.2641 7.85066538,56.1596 10.2811932,56.1586 C12.6769705,56.1576 14.3072271,54.2601 14.3057162,51.5026 L14.3057162,51.5026 Z M20.4777259,35.1586 L20.491324,60.7376 L14.3107525,60.7411 L14.3097453,58.3276 C13.0254838,60.0526 11.1167186,60.9841 8.75518838,60.9851 C3.47762906,60.9881 0.00357578692,57.1291 5.03631961e-05,51.3376 C-0.00297142857,45.6501 3.43230218,41.8901 8.60611332,41.8881 C11.0366412,41.8866 12.9811642,42.8506 14.3016872,44.5386 L14.2966508,35.1621 L20.4777259,35.1586 Z" id="Fill-14" fill="#000000"></path>
                    <path d="M30.2345375,39.53145 C30.2350412,40.42845 29.8880387,41.18745 29.4367845,41.87645 L26.8350218,45.63545 L23.9184891,45.63745 L25.4787409,41.84395 C24.7147312,41.32745 24.3319709,40.46595 24.3314673,39.53495 C24.33046,37.81195 25.5804746,36.60445 27.2817433,36.60345 C28.8440097,36.60245 30.2335303,37.63595 30.2345375,39.53145" id="Fill-16" fill="#FFB600"></path>
                    <g id="Group-20" transform="translate(32.232446, 36.000000)">
                        <mask id="mask-4" fill="white">
                            <use xlink:href="#path-3"></use>
                        </mask>
                        <g id="Clip-19"></g>
                        <path d="M6.5485753,12.6623 C6.55058983,16.5918 9.64238644,19.6243 13.2534276,19.6223 C16.899723,19.6203 19.8147448,16.5853 19.8122266,12.6548 C19.8102121,8.7253 16.8916649,5.7623 13.2453695,5.7643 C9.60008136,5.7663 6.54605714,8.7328 6.5485753,12.6623 M26.3398005,12.6168 C26.3438295,19.6843 20.721786,24.9958 13.1864446,25.0003 C5.65211041,25.0043 0.0240232446,19.6983 0.0199941889,12.6313 C0.0164687651,5.5993 5.63851235,0.3908 13.1728465,0.3863 C20.7081879,0.3823 26.3357714,5.6193 26.3398005,12.6168" id="Fill-18" fill="#000000" mask="url(#mask-4)"></path>
                    </g>
                    <polygon id="Fill-21" fill="#000000" points="79.0824058 36.5412 85.5480329 50.6362 91.9985511 36.5342 98.9436358 36.5307 98.9567303 60.6957 93.3316649 60.6982 93.2883525 45.3922 87.6350838 58.2882 83.4690402 58.2907 77.8016697 45.4007 77.8102315 60.7067 72.1509191 60.7097 72.1378247 36.5452"></polygon>
                    <path d="M121.998849,42.0334 L122.009426,60.6829 L115.828351,60.6864 L115.82684,57.6524 C114.543082,59.8254 112.494811,60.9294 109.821532,60.9654 C105.758733,60.9674 103.118694,58.1764 103.116176,53.8334 L103.109629,42.0439 L109.2902,42.0404 L109.29574,52.0714 C109.296748,54.1749 110.478772,55.4489 112.318539,55.4479 C114.505813,55.4129 115.824825,53.6889 115.823314,51.2414 L115.818782,42.0369 L121.998849,42.0334 Z" id="Fill-23" fill="#000000"></path>
                    <path d="M133.282875,46.02655 C132.241364,46.02705 131.512105,46.40605 131.512608,47.19955 C131.514119,49.64655 141.374226,48.46955 141.343504,54.95005 C141.345519,58.77655 137.978739,60.95055 133.395185,60.95305 C130.235398,60.95405 127.213606,60.05955 124.921577,58.30305 L126.864085,54.33755 C129.017112,55.81855 131.448143,56.64405 133.531669,56.64305 C134.677935,56.64205 135.510942,56.26355 135.510439,55.50455 C135.508928,52.95355 125.822071,54.23455 125.818545,47.78855 C125.816531,43.89255 129.114313,41.75355 133.524114,41.75105 C136.23164,41.74955 138.97593,42.50705 141.336957,43.91855 L139.256453,47.91855 C136.92917,46.71355 134.810894,46.02555 133.282875,46.02655" id="Fill-25" fill="#000000"></path>
                    <path d="M156.443549,49.7023 C156.442038,47.5648 155.052014,46.1173 152.969495,46.1188 C150.955471,46.1198 149.635955,47.5678 149.220963,49.7063 L156.443549,49.7023 Z M162.417631,52.9738 L149.360972,52.9808 C149.95274,55.0838 151.516517,56.2543 153.63429,56.2538 C155.23181,56.2528 156.793069,55.5968 158.043084,54.3553 L161.273883,57.5593 C159.365621,59.6973 156.55334,60.8708 153.080798,60.8728 C146.934977,60.8763 143.149176,57.1203 143.146154,51.4333 C143.142629,45.6413 147.063907,41.8133 152.931723,41.8103 C159.494551,41.8063 162.830609,46.1823 162.417631,52.9738 L162.417631,52.9738 Z" id="Fill-27" fill="#000000"></path>
                    <path d="M183.93722,42.0002 L183.947293,60.6497 L177.766722,60.6532 L177.764707,57.6187 C176.480949,59.7922 174.433685,60.8962 171.759903,60.9317 C167.697104,60.9342 165.057065,58.1432 165.054547,53.8002 L165.048,42.0107 L171.229075,42.0072 L171.234111,52.0382 C171.235622,54.1412 172.416639,55.4157 174.256407,55.4147 C176.444688,55.3797 177.762692,53.6557 177.761182,51.2077 L177.756649,42.0037 L183.93722,42.0002 Z" id="Fill-29" fill="#000000"></path>
                </g>
            </g>
        </g>
    </g>
</svg>